<?xml version="1.0" standalone="no"?>
<!DOCTYPE svg PUBLIC "-//W3C//DTD SVG 20010904//EN"
 "http://www.w3.org/TR/2001/REC-SVG-20010904/DTD/svg10.dtd">
<svg version="1.0" xmlns="http://www.w3.org/2000/svg"
 width="365.000000pt" height="365.000000pt" viewBox="0 0 365.000000 365.000000"
 preserveAspectRatio="xMidYMid meet">
<metadata>
Created by potrace 1.11, written by Peter Selinger 2001-2013
</metadata>
<g transform="translate(0.000000,365.000000) scale(0.100000,-0.100000)"
fill="#000000" stroke="none">
<path d="M923 3451 c-133 -34 -207 -184 -153 -309 43 -99 130 -149 241 -139
72 6 129 43 171 111 86 139 -9 326 -174 340 -29 3 -68 1 -85 -3z"/>
<path d="M745 2358 c-10 -752 -11 -718 20 -833 96 -364 367 -643 730 -750 111
-33 328 -45 452 -26 96 15 228 59 317 106 37 19 69 35 70 35 2 0 6 -60 9 -133
4 -72 14 -159 22 -192 38 -138 112 -251 210 -316 61 -42 171 -82 210 -77 l25
3 1 705 c1 397 6 754 12 818 39 425 -192 833 -578 1022 -55 27 -145 61 -200
77 -91 25 -115 27 -265 27 -148 0 -175 -2 -265 -27 -60 -16 -148 -51 -219 -87
l-120 -61 -50 50 c-28 27 -71 61 -96 76 -62 39 -193 85 -240 85 l-39 0 -6
-502z m1170 -33 c209 -53 367 -216 410 -423 39 -181 -7 -334 -137 -463 -109
-107 -234 -159 -388 -159 -201 0 -377 99 -478 268 -55 91 -72 156 -72 271 0
100 11 145 55 229 111 217 375 337 610 277z"/>
</g>
</svg>
