<svg xmlns="http://www.w3.org/2000/svg" viewBox="0 0 480 480" width="480" height="480">
	<style>
		tspan { white-space:pre }
		.shp0 { fill: #ffffff } 
	</style>
	<path id="Forma 1" class="shp0" d="M222.5 332C125.45 332 47 275.9 47 206.5C47 137.1 125.45 81 222.5 81C319.55 81 398 137.1 398 206.5C398 275.9 319.55 332 222.5 332Z" />
	<path id="Forma 1 copy" class="shp0" d="M232.5 307C135.45 307 57 250.9 57 181.5C57 112.1 135.45 56 232.5 56C329.55 56 408 112.1 408 181.5C408 250.9 329.55 307 232.5 307Z" />
	<path id="Forma 1 copy 2" class="shp0" d="M256.5 298C159.45 298 81 248.83 81 188C81 127.17 159.45 78 256.5 78C353.55 78 432 127.17 432 188C432 248.83 353.55 298 256.5 298Z" />
	<path id="Layer" fill-rule="evenodd" class="shp0" d="M439.77 227.66C428.78 265.23 397.05 294.15 347.46 273.72C347.46 273.72 359.92 314.09 317.43 329.88C299.82 336.42 285.87 337.79 273 336.36C268.89 340.93 264.54 345.21 260.14 348.63C241.12 363.42 236.19 371.17 225.78 387.31C215.37 403.45 229.15 412.03 225.78 419.78C222.41 427.53 217.88 426.12 207.31 425.41C196.74 424.71 186.18 414.85 189 393.71C190.52 382.31 193.27 370.09 195.48 361.25C194.65 361.5 193.8 361.71 192.94 361.93C192.89 361.94 192.85 361.96 192.8 361.98C192.67 362.01 192.53 362.03 192.41 362.06C191.59 362.26 190.76 362.45 189.91 362.62C189.6 362.68 189.28 362.74 188.97 362.8C186.07 363.33 183.06 363.71 179.93 363.92C179.7 363.94 179.48 363.96 179.24 363.97C178.32 364.03 177.38 364.07 176.44 364.1C176.04 364.11 175.64 364.12 175.24 364.13C174.32 364.15 173.4 364.16 172.47 364.16C172.07 364.15 171.66 364.14 171.26 364.14C168.16 364.09 165 363.91 161.79 363.62C161.35 363.58 160.91 363.54 160.46 363.5C159.56 363.41 158.65 363.3 157.74 363.19C157.19 363.13 156.64 363.06 156.09 362.99C155.21 362.87 154.33 362.75 153.44 362.62C152.86 362.53 152.28 362.44 151.71 362.34C150.83 362.2 149.95 362.06 149.07 361.91C148.97 361.89 148.88 361.87 148.78 361.85C146.77 361.49 144.77 361.09 142.76 360.66C142.07 360.51 141.39 360.36 140.7 360.2C139.92 360.02 139.14 359.84 138.37 359.65C137.65 359.47 136.93 359.29 136.21 359.11C135.46 358.92 134.72 358.73 133.98 358.53C133.17 358.31 132.37 358.08 131.56 357.86C130.91 357.67 130.27 357.5 129.62 357.31C128.27 356.9 126.91 356.49 125.57 356.06C124.99 355.87 124.41 355.67 123.83 355.48C122.96 355.19 122.1 354.9 121.24 354.61C120.63 354.39 120.03 354.18 119.42 353.96C118.58 353.66 117.74 353.35 116.91 353.03C116.35 352.82 115.78 352.61 115.22 352.39C114.22 352.01 113.24 351.61 112.26 351.21C111.89 351.06 111.52 350.91 111.15 350.76C109.84 350.21 108.55 349.65 107.28 349.08C106.86 348.89 106.45 348.7 106.03 348.51C105.15 348.1 104.27 347.69 103.4 347.27C102.94 347.05 102.48 346.82 102.02 346.59C101.19 346.18 100.36 345.76 99.55 345.33C99.14 345.12 98.73 344.91 98.33 344.7C97.29 344.14 96.27 343.58 95.27 343.01C95.13 342.93 94.98 342.85 94.84 342.77C93.71 342.12 92.62 341.46 91.56 340.79C91.24 340.59 90.93 340.39 90.62 340.19C89.87 339.71 89.13 339.23 88.42 338.74C88.07 338.51 87.73 338.27 87.39 338.04C86.71 337.55 86.04 337.07 85.39 336.58C85.1 336.37 84.81 336.15 84.53 335.94C83.62 335.24 82.75 334.54 81.92 333.84C81.03 333.07 80.17 332.31 79.36 331.54C79.09 331.29 78.86 331.04 78.6 330.79C78.07 330.27 77.53 329.75 77.03 329.22C76.74 328.91 76.47 328.6 76.19 328.29C75.77 327.83 75.33 327.36 74.94 326.9C74.65 326.56 74.39 326.22 74.11 325.88C73.75 325.45 73.39 325.01 73.05 324.58C72.78 324.22 72.54 323.87 72.28 323.51C71.98 323.1 71.66 322.68 71.38 322.26C71.13 321.89 70.91 321.53 70.68 321.17C70.42 320.76 70.15 320.35 69.9 319.95C69.68 319.58 69.48 319.21 69.27 318.84C69.05 318.44 68.82 318.05 68.61 317.65C68.41 317.27 68.24 316.9 68.05 316.52C67.86 316.14 67.67 315.76 67.5 315.38C67.32 314.99 67.16 314.61 67 314.22C66.85 313.86 66.69 313.5 66.55 313.14C66.39 312.74 66.26 312.35 66.12 311.96C66 311.61 65.87 311.27 65.76 310.92C65.63 310.52 65.51 310.13 65.39 309.73C65.3 309.4 65.2 309.07 65.11 308.75C65 308.34 64.91 307.94 64.81 307.54C64.74 307.23 64.66 306.92 64.6 306.62C64.51 306.21 64.44 305.8 64.36 305.4C64.31 305.11 64.25 304.82 64.21 304.54C64.14 304.12 64.09 303.71 64.04 303.31C64 303.04 63.96 302.78 63.93 302.51C63.89 302.1 63.85 301.68 63.82 301.27C63.8 301.03 63.78 300.79 63.76 300.55C63.74 300.13 63.72 299.72 63.71 299.31C63.71 299.15 63.69 298.98 63.69 298.82C63.69 298.81 63.69 298.79 63.69 298.78C63.48 288.48 67.1 281.29 67.1 281.29C61.8 279.04 55.09 274.94 47.82 267.49C30.97 250.2 33.9 176.54 55.88 147.23C77.86 117.91 107.9 91.6 141.6 72.06C175.3 52.52 230.24 57.03 258.08 58.53C285.92 60.04 359.18 79.58 400.21 114.91C441.24 150.23 450.76 190.09 439.77 227.66ZM89.87 247.21C89.23 246.45 78.77 233.49 83.09 204.86C87.89 173.06 99.92 159.63 126 156.97C130.79 156.48 134.52 152.58 134.78 147.76C134.85 146.77 136.72 122.05 158.38 112.41C173.94 105.48 190.61 109.06 190.77 109.09C196.04 110.26 201.28 106.96 202.47 101.69C203.66 96.43 200.39 91.2 195.13 89.99C194.2 89.78 172.1 84.85 150.41 94.51C126.8 105.02 118.98 126.72 116.43 138.57C76.8 146.08 67.33 177.97 63.71 201.93C57.86 240.73 74.6 259.55 75.31 260.34C77.25 262.45 79.89 263.52 82.55 263.52C84.91 263.52 87.28 262.67 89.16 260.95C93.11 257.33 93.42 251.21 89.87 247.21ZM127.18 251.42C126.13 250.7 104.36 235.42 111.65 205.73C118.59 177.5 146.26 177.77 149.38 177.91C152.21 177.99 154.97 176.91 156.91 174.86C158.86 172.8 159.85 170.01 159.58 167.19C159.06 161.52 159.38 143.95 167.35 138.16C175.86 131.97 190.28 134.36 194.66 135.69C198.78 136.94 203.22 135.36 205.62 131.8C206.84 130.05 218.4 114.45 237.06 121.73C242.09 123.69 247.78 121.2 249.74 116.16C251.71 111.12 249.22 105.44 244.18 103.47C243.63 103.26 243.08 103.06 242.53 102.87C242.47 102.56 242.4 102.25 242.3 101.95C234.66 76.46 211.99 73.58 211.03 73.47C205.64 72.86 200.8 76.72 200.18 82.09C199.57 87.42 203.36 92.25 208.67 92.92C209.63 93.07 215.86 94.28 220.34 100.81C208.8 102.79 199.58 109.3 193.73 115.48C184.78 114 168.51 113.08 155.82 122.31C143.39 131.35 140.42 148.02 139.9 158.9C122.87 161.39 99.76 171.99 92.62 201.06C81.95 244.5 114.93 266.82 116.34 267.75C118 268.84 119.87 269.37 121.73 269.37C124.91 269.37 128.03 267.82 129.92 264.96C132.88 260.46 131.65 254.41 127.18 251.42ZM322.61 260.45C311.14 243.93 285.36 234.45 241.47 230.61C192.61 226.34 188.96 220.1 182.32 208.76C179.56 204.04 176.12 198.16 170.14 191.58C161.21 181.76 147.58 179.73 136.99 186.66C127.38 192.95 119.56 207.87 129.12 229.24C143.3 260.9 185.93 268.9 227.15 276.63L230.31 277.22C242.11 279.44 252.72 280.5 262.09 281.44C271.09 282.33 283.31 283.55 286.17 285.69C286.17 285.99 286.13 286.56 285.93 287.46C285.22 290.6 284.18 291.25 283.78 291.49C278.59 294.72 261.24 290.51 244.47 286.43C241.23 285.64 237.86 284.82 234.38 284C199.25 275.7 145.53 258.44 144.99 258.27C139.84 256.61 134.32 259.44 132.66 264.59C131 269.74 133.83 275.27 138.98 276.92C141.21 277.64 193.98 294.59 229.87 303.07C233.32 303.88 236.64 304.69 239.84 305.47C254.95 309.14 267.47 312.19 277.7 312.19C284.02 312.19 289.46 311.03 294.11 308.15C299.69 304.68 303.37 299.18 305.04 291.77C306.59 284.94 305.64 279.08 302.24 274.35C295.55 265.08 282.33 263.76 264.03 261.94C255.07 261.04 244.9 260.03 233.94 257.97L230.77 257.37C194.5 250.57 156.99 243.53 147.01 221.23C142.77 211.77 144.31 205.29 147.72 203.06C149.65 201.79 152.75 201.58 155.64 204.76C160.25 209.83 162.87 214.32 165.41 218.66C175.53 235.95 183.44 245.21 239.76 250.14C276.38 253.34 298.84 260.57 306.51 271.62C308.74 274.83 311.34 280.39 308.25 291.58C306.81 296.79 309.87 302.19 315.08 303.63C320.3 305.07 325.69 302.02 327.14 296.8C331.05 282.65 329.53 270.42 322.61 260.45ZM398.36 231.8C393.49 229.45 387.63 231.5 385.29 236.38C381.94 243.35 374.09 245.34 368.1 245.77C352.19 246.95 332.52 238.73 325.16 227.84C321.2 221.98 322.53 217.64 323.88 214.89C330.57 201.21 332.98 186.81 332.18 172.98C341.48 171.76 359.49 171.15 370.09 182.12C378.42 190.73 382.22 202.43 379.13 209.92C377.06 214.96 371.7 217.6 363.22 217.77C358.72 217.88 353.21 216.86 352.02 211.65C351.26 208.3 352.75 205.59 353.39 205.3C353.52 205.26 354.51 205.36 356.2 206.43C360.76 209.34 366.82 207.99 369.72 203.43C372.63 198.86 371.28 192.81 366.72 189.9C357.83 184.24 348.23 184.31 341.04 190.08C333.07 196.47 330.06 208.74 333.87 219.25C338 230.64 348.76 237.37 362.73 237.37C363.03 237.37 363.32 237.36 363.61 237.36C379.89 237.03 392.15 229.76 397.25 217.39C403.37 202.56 398.12 182.91 384.18 168.5C367.3 151.03 341.6 151.9 328.93 153.64C323.66 134.82 312.73 118.5 299.34 108.63C281.88 95.77 266.51 98.81 259.02 107.52C251.03 116.81 250.6 133.83 267.66 150.88C277.97 161.2 281.54 178.89 281.44 192C281.36 202.68 279.1 209.23 277.69 211.45C277.54 211.45 277.42 211.44 277.35 211.43C274.19 208.44 271.41 188.99 269.91 178.49C267.08 158.62 256.23 141.72 240.89 133.29C230.95 127.82 220.57 126.78 212.43 130.45C204.14 134.18 199.2 142.69 199.23 153.22C199.25 165.59 206.72 182.22 223.06 189.48C228.06 191.71 230.75 196.04 231.53 199.06C231.99 200.86 231.74 201.94 231.6 202.13C231.28 202.47 228.61 203.46 222.24 201.77C202.54 196.51 189.42 164.34 186.03 152.38C184.55 147.18 179.12 144.16 173.93 145.63C168.72 147.11 165.7 152.53 167.18 157.73C167.8 159.92 182.81 211.53 217.19 220.7C236.49 225.85 246.86 217.79 250.14 208.53C254.84 195.2 246.09 178.28 231.02 171.58C223.03 168.02 218.84 159.63 218.82 153.18C218.82 151.13 219.33 148.83 220.47 148.32C222.41 147.45 226.55 147.77 231.44 150.45C241.41 155.94 248.54 167.46 250.51 181.26C254.05 206.01 256.5 220.35 265.75 227.24C270.13 230.5 275.56 231.68 281.92 230.72C286.92 229.97 293.74 226.46 297.85 214.01C304.15 194.88 301.97 157.49 281.51 137.03C273.25 128.76 272.46 121.95 273.88 120.3C274.99 119 280.2 118.87 287.71 124.41C308.44 139.68 321.43 175.32 306.28 206.27C301.04 216.98 301.98 228.54 308.93 238.82C319.38 254.29 343.37 265.48 365.11 265.48C366.59 265.48 368.07 265.43 369.53 265.32C385.3 264.16 397.16 256.9 402.95 244.87C405.29 239.99 403.24 234.14 398.36 231.8ZM406.23 155.33C389.41 135.05 358.44 128.79 345.32 127C340.75 117.49 329.49 98.53 307.77 85.29C275.74 65.76 249 84.94 247.88 85.76C243.52 88.97 242.58 95.1 245.79 99.46C248.98 103.8 255.07 104.75 259.43 101.59C260.3 100.98 277.1 89.54 297.57 102.02C321.09 116.36 329.27 139.12 329.35 139.35C330.64 143.05 334.02 145.63 337.94 145.89C338.3 145.92 375.29 148.71 391.15 167.84C407.1 187.07 404.02 214.36 403.99 214.63C403.34 220 407.17 224.88 412.54 225.53C412.94 225.58 413.33 225.6 413.73 225.6C418.61 225.6 422.84 221.95 423.44 216.98C423.62 215.52 427.5 180.98 406.23 155.33Z" />
</svg>