<?xml version="1.0" encoding="utf-8"?>
<!-- Generator: Adobe Illustrator 22.1.0, SVG Export Plug-In . SVG Version: 6.00 Build 0)  -->
<svg version="1.1" xmlns="http://www.w3.org/2000/svg" xmlns:xlink="http://www.w3.org/1999/xlink" x="0px" y="0px"
	 viewBox="0 0 774.9 928.2" style="enable-background:new 0 0 774.9 928.2;" xml:space="preserve">
<g id="SHADOW" style="display:none;">
	
		<ellipse transform="matrix(0.999 -4.378379e-02 4.378379e-02 0.999 -36.4948 14.3742)" style="display:inline;fill:#DFE4F2;" cx="309.9" cy="840.3" rx="266.8" ry="87.2"/>
</g>
<g id="UMBLERITO">
	<g id="paint">
		<g id="XMLID_3_">
			<g>
				<path style="fill:#C5D6D5;" d="M357,349.3c-1.1,0.2-2.2,0.4-3.3,0.7c1.2-2.6,3.2-4.9,5.7-6.4c-6.9,0.2-13.7,3.1-18.4,7.9
					c0.1-2.5,0.2-4.9,0.3-7.4c-1.9,3.1-4.8,6.4-6.7,9.5c-1.8-7.8-8.2-14.5-15.5-18.4c-2.3,4.5-3.1,9.6-2.4,14.5
					c-2.2-1.3-4.3-2.6-6.5-3.9c1.5,1.5,2.7,3.2,3.4,5.2c-41.7,5.2-145.6,45.9-182.3,143.5C72.9,650,331.2,719.7,377.3,722.7
					c23.4,1.5,85.4-10.5,119.3-33.5c29.5-20,49.3-50.5,59.5-82.8c18-57,6.6-121.2-30.2-170c-36.8-48.8-104.6-82.4-169-86.9
					L357,349.3z M424,151.5c-2.6,8.7-2.9,18.5,1.4,26.5c4.3,8,14.1,13.4,22.9,10.7c5-1.5,9-5.4,11.6-10c4.3-7.6,4.5-17.5,0.2-25
					c-4.3-7.6-13.3-12.4-22-11.2C432.3,143.2,427.1,146.7,424,151.5z M517.2,170.1c11,1.5,25.3-3.2,31.9-11.8
					c8.9-11.4,9.5-26.9,5.9-40.8c-2.8-10.9-8.2-21.5-16.7-29.6c-8.4-8.1-22.1-14.8-37.8-14.9l-0.2-0.3c-5.3,3.3-9.5,8.2-11.9,13.8
					c-4.3,10.2-3,21.9,0.8,32.3c3.9,10.4,10.2,19.8,16.1,29.3C509.9,155.2,514.2,162.4,517.2,170.1z M207.3,849.5
					c-0.7-3.1-1.5-6.1-3.6-8.4c-2.6-2.9-7.4-4.4-11.4-2.5c-4.6,2.2-6.1,7.8-5.5,12.3c0.5,3.8,2.3,7.5,5.6,9.6
					c3.4,2.1,8.5,2,11.9-0.8C207.3,857.2,208.1,853,207.3,849.5L207.3,849.5z M257.7,151.5c-3.1-4.8-8.3-8.3-14-9.1
					c-8.6-1.2-17.6,3.6-22,11.2c-4.3,7.6-4.1,17.4,0.2,25c2.6,4.6,6.6,8.5,11.6,10c8.7,2.7,18.5-2.7,22.9-10.7
					C260.6,170,260.3,160.2,257.7,151.5z M247.6,853c1.2-2.9,2.4-5.7,2.1-8.9c-0.4-3.9-3.4-7.9-7.8-8.7c-5-0.9-9.5,2.7-11.7,6.6
					c-1.8,3.4-2.6,7.4-1.1,11c1.5,3.6,5.7,6.6,10,6.4C243.1,859.2,246.3,856.3,247.6,853L247.6,853z M283.3,866.4
					C283.4,866.4,283.4,866.4,283.3,866.4c0.3-0.2,0.5-0.4,0.7-0.6c0,0,0.1-0.1,0.1-0.1c2.2-2,4.3-4,5.1-6.8c1-3.6-0.1-8.3-3.9-10.8
					c-4.3-2.9-9.7-1.5-13.1,1.1c-2.9,2.2-5.1,5.5-5.1,9.3c0,3.8,2.7,8.1,6.8,9.7C277.3,869.3,280.9,868.4,283.3,866.4z M144.1,276
					c-2.1-2.8-4.1-5.7-5.8-8.6l-0.1,0c-1.5,0.8-4.1,2.1-5.6,2.9c-1.2-6.4,0.4-13.4,4.3-18.3c-2.3,0.8-4.8,1-7.1,0.6
					c3.9-3.8,7.6-9.4,10.2-14.3l0-0.1c-5.9,1.2-12.4-2-15.4-7.8l0.1,0c11.2-2.1,20-13.4,22.4-25.4c-20,1.9-42.5-9.4-53.8-26.7
					C79.5,157,78.5,129.5,84.7,105c4.7-18.3,13.3-36,26.8-49.2c13.5-13.2,32.4-21.5,51.2-20.2c26.6,1.8,53.6,22.1,79.5,24.8
					c18.1-8.6,38.3-14.4,58-16.9c3.6-0.5,7.1-0.8,10.6-1.1l0.1,0c-0.3-0.4-0.6-0.8-0.9-1.1c-4.1-5.6-4.6-12.6-2.6-18.9
					c2.2-6.9,7.1-13.1,12.3-19c-3.8,5.2-0.8,12,4.9,16.1s13.4,5.9,20.9,7.7c7.4,1.7,15.2,3.5,21.1,7.4c2.5,1.7,4.6,3.9,5.9,6.3
					c20,3.2,42.3,10,61.2,19.5c28.5,0.3,53.3-22.6,82-24.6c18.9-1.3,37.7,7,51.2,20.2c13.6,13.2,22.2,30.8,26.9,49.2
					c6.2,24.5,5.2,52-8.6,73.1c-11.3,17.3-35.1,28.5-55.1,26.6c5.9,9.1,12.8,17.1,20.6,23.7c-3.2,0.6-6.4,1.1-9.5,1.7
					c2.2,3.7,5.9,6.1,9.7,6.3c-5.7,4.1-11.5,8.2-17.2,12.3c2-0.7,3.9-1.4,5.9-2.1c-4.1,9.9-9.3,19.1-15.6,27.2l0.1,0.1
					c23.9,3.3,47.2,12.2,70.7,18.2c14.1,3.6,29.8,6.4,44.5,6.4l0,0c-1.2,2.2-2.2,4.5-2.9,6.9c-3.2,10.9-0.6,24.2,9.5,31.9
					c-2,6-2,12.4,0.8,18c3.1,6,8.9,10.1,15.5,12.1l-0.1,0.2c-4,5-3.1,12.1,0.5,16.2c3.6,4.1,9,6.1,14.3,7.4
					c11.2,2.6,24.6,2.1,37.5-1.5c1.5-10.4,0.2-21.1-0.7-31.6c-0.9-11-1-22.5,3.3-32.7c-3.7,5.1-7.3,10.1-11,15.2
					c-2.2-15-1.7-30.4,1.5-45.2c-2.7,5.9-9.6,9.7-16.1,8.6c5.4-8.8,8.2-21.8,7.6-32.1l0-0.2c4.6,1,9.1,2.4,13.5,4.1
					c23.8,9.5,43.6,29.1,53.1,53c12.2,30.7,7.6,67.2-10.6,94.8c-18.2,27.6-49.1,46-81.9,50.4c-32.8,4.4-70.1-7-97.2-26.1l-0.1,0
					c2.9,7.7,5.6,15.4,8,23.2c17,54.5,20.3,114.8,0.2,168.3c-2.2,5.8-4.7,11.6-7.5,17.2l0,0c-20.4,43.1-41,86.6-70.4,123.6
					c-6.8,8.6-14.2,16.9-22.1,24.6l0.1,0.2c-0.1,18.8-4,38.6-11.5,56.3c0.2-3.6,0.3-7.2,0.5-10.8c-4.9,8.2-8.2,10.9-15.7,15
					c2.4-4.3,1.4-4.6,3.7-8.8c-35.4,8.7-75.6,6.7-108.9-3l-0.2,0c0.4,3.3,1,6.7,1.7,10l0,0c-2.3-2.6-6.4-2.4-8.6-5.2
					c0.7,6.7,3.4,11.4,4.1,18.1c-1.6-2.2-5.2-2.4-6.8-4.6c-0.6,6.5-1.7,13.2-6.9,15c1-4-1-8.9,0-12.9c-3.6,14.5-39.5,25.5-73.5,28.8
					l0-0.2c8.5-0.9,16.7-7,17.7-11.7c1-4.7-3.5-9.4-10.6-12s-16.5-3.2-24.8-1.9s-15.6,4.4-20.6,8.3h-0.1c-5-3.8-12.3-6.8-20.6-7.9
					c-8.3-1.2-17.7-0.5-24.8,2.3c-7.1,2.8-11.5,7.6-10.4,12.2c0.2,0.8,0.5,1.5,0.9,2.2c-11.9-3.2-23.1-7.2-32.6-11.8l0-0.1
					c-15.2-8-21.7-23.6-19.7-39.8c2-16.2,17.6-43.4,19.2-59.7c3.2-32.3-2.9-68.5-16.1-93.4l0.2-0.1c-5.5-6.5-10.5-13.3-15-20.5
					c-9.8-15.5-17.3-32.4-22.4-50h0c-16.9,0.3-28.6-4.8-38.3-14c0.7,3.2,1.4,6.4,2,9.6c-5.6-2.9-10.5-7.5-13.9-13
					c-1.1-1.7-2-3.6-2.8-5.5c-2.3,2.2-4.6,5.7-2.9,8.3C1.1,573.6-0.5,527.6,8.1,487.5c0.7-3.1,1.4-6.3,2.2-9.4l0,0
					c5.4-19.4,10.5-33.9,7.5-52c-2.8,4.6-5.5,9.2-8.3,13.9c0.9-15.7,8.3-30.8,19.7-40.2c-4.4,0.6-8.8,1.3-13.2,1.9
					c7.4-4.5,22.6-11.7,23.9-13.5l0,0c5.4-7.9,11.2-15.4,17.4-22.6C84.4,334.1,118.9,308.6,144.1,276L144.1,276z M158.1,171
					c3.3-7.8,7.9-15.1,12.6-22.2c6.4-9.5,13-19,17.3-29.6c4.3-10.6,6-22.7,2.2-33.4c-1.9-5.3-5.3-10.1-9.8-13.7l0,0
					c-23.9-1-31.4,4.8-40.1,12.8c-8.8,8-14.6,18.7-17.9,29.9c-4.2,14.1-4.2,30.3,4.3,42.5C133,166.4,147,172,158.1,171L158.1,171z
					 M166.7,863.5c-0.5-2.7-1.2-5.4-3-7.5c-2.3-2.6-6.5-4-10.2-2.4c-4.3,1.9-5.8,6.8-5.4,10.8c0.3,3.4,1.8,6.7,4.7,8.5
					c2.9,1.9,7.6,1.9,10.7-0.5c2.9-2.2,3.8-5.9,3.1-8.9L166.7,863.5z M339.8,270.7c61.4,2.3,71.7-47.9,62.4-93.6
					c-3.8-18.6-16.2-47.1-32.3-57.1c-15.1-9.4-37.2-13.3-52.1-2.2c-0.4,0.3-0.7,0.7-0.8,1.1h0c-1.9,1.1-3.7,2.2-5.3,3.2
					c-13.2,8.8-24.8,31-28.7,47.1C271.6,215.3,276.9,268.3,339.8,270.7z"/>
				<path style="fill:#6F7380;" d="M662.1,367.5c-6.5-2-12.4-6.1-15.5-12.1c-2.8-5.6-2.8-12-0.8-18c-10.1-7.7-12.7-21-9.5-31.9
					c0.7-2.4,1.7-4.7,2.9-6.9c4.2-7.8,11-14.1,18.7-18.6c3.2-1.9,6.3-3.3,9.4-4.5c6.5-2.4,13.6-3.7,24-5l0,0.1
					c2.6,0.3,5.1,0.8,7.7,1.3l0,0.2c0.6,10.3-2.1,23.3-7.6,32.1c6.4,1.1,13.4-2.6,16.1-8.6c-3.2,14.8-3.7,30.2-1.5,45.2
					c3.7-5.1,7.3-10.1,11-15.2c-4.3,10.2-4.1,21.7-3.3,32.7c0.8,10.5,2.2,21.1,0.7,31.6c-12.8,3.6-26.3,4.1-37.5,1.5
					c-5.3-1.2-10.7-3.3-14.3-7.4c-3.6-4.1-4.5-11.2-0.5-16.2L662.1,367.5z"/>
				<path style="fill:#6F7380;" d="M691.4,270.5c-10.3,1.3-17.4,2.6-24,5l0-0.1c-2.7-9.4-4-24.4-0.8-33.5c3.2-9.1,10.2-16.9,19-19.6
					c8.8-2.6,19.3,0.5,24.7,8.5c5.2,7.6,2.7,19.5,2.5,28.9c-0.1,5.5-0.2,10.8-0.3,16.3c-4.4-1.7-8.9-3.1-13.5-4.1
					C696.5,271.3,694,270.9,691.4,270.5L691.4,270.5z"/>
				<path style="fill:#DAE5E1;" d="M334.5,353.6c1.9-3.1,4.8-6.4,6.7-9.5c-0.1,2.5-0.2,4.9-0.3,7.4c4.7-4.8,11.5-7.7,18.4-7.9
					c-2.6,1.5-4.6,3.8-5.7,6.4c1.1-0.2,2.2-0.4,3.3-0.7l0,0.2c64.4,4.5,132.2,38.1,169,86.9c36.8,48.8,48.2,113,30.2,170
					c-10.2,32.3-30,62.8-59.5,82.8c-33.9,23-95.9,35-119.3,33.5c-46-3-304.4-72.7-246-228.2C168,396.9,271.9,356.2,313.5,351
					c-0.7-1.9-1.9-3.7-3.4-5.2c2.2,1.3,4.3,2.6,6.5,3.9c-0.7-4.9,0.1-10,2.4-14.5C326.3,339.1,332.7,345.8,334.5,353.6z"/>
				<path style="fill:#DAE5E1;" d="M555,117.6c3.6,13.8,3,29.3-5.9,40.8c-6.7,8.5-21,13.3-31.9,11.8c-3-7.6-7.3-14.9-11.7-21.9
					c-6-9.5-12.3-18.9-16.1-29.3c-3.9-10.4-5.1-22.1-0.8-32.3c2.3-5.6,6.6-10.5,11.9-13.8l0.2,0.3c15.8,0.1,29.4,6.8,37.8,14.9
					C546.8,96.1,552.2,106.7,555,117.6z"/>
				<path style="fill:#FFFFFF;" d="M460,153.6c4.3,7.6,4,17.4-0.2,25c-2.5,4.6-6.6,8.5-11.6,10c-8.7,2.7-18.5-2.7-22.9-10.7
					c-4.3-8-4-17.8-1.4-26.5c3.1-4.8,8.3-8.3,14-9.1C446.7,141.3,455.7,146.1,460,153.6z"/>
				<path style="fill:#31343B;" d="M402.2,177.1c9.3,45.6-1,95.9-62.4,93.6c-62.9-2.4-68.1-55.4-56.8-101.4
					c3.9-16.1,15.5-38.3,28.7-47.1c1.6-1.1,3.4-2.2,5.3-3.2c-0.5,1.8,1.5,4.3,3.7,3.5c0.8-0.3,1.7-0.6,2.5-0.8
					c-50.8,21.1-52.3,128.6,4.4,141.6c101.1,23.2,87.8-169.9-4.4-141.6c6.5-2.7,13.8-4,21.8-3.5c1.5,0.1,1.9-1.9,0.7-2.5
					c-8.8-5.1-20-1.5-28.8,3.3c0.1-0.4,0.4-0.8,0.8-1.1c14.9-11.1,37-7.3,52.1,2.2C386,130,398.4,158.5,402.2,177.1z"/>
				<path style="fill:#31343B;" d="M345.8,115.6c1.1,0.7,0.8,2.6-0.7,2.5c-8.1-0.5-15.4,0.8-21.8,3.5c-0.8,0.3-1.7,0.5-2.5,0.8
					c-2.2,0.8-4.2-1.7-3.7-3.5h0C325.7,114.2,337,110.5,345.8,115.6z"/>
				<path style="fill:#6F7380;" d="M323.2,121.6c92.2-28.3,105.5,164.8,4.4,141.6C270.8,250.3,272.4,142.7,323.2,121.6z"/>
				<path style="fill:#6F7380;" d="M284.2,865.7c-0.3,0.3-0.5,0.5-0.8,0.8c0,0,0,0,0,0c-2.4,2-6,2.9-9.4,1.6c-4-1.5-6.8-5.9-6.8-9.7
					c0-3.8,2.2-7,5.1-9.3c3.4-2.6,8.9-4,13.1-1.1c3.7,2.5,4.9,7.2,3.9,10.8C288.5,861.7,286.3,863.7,284.2,865.7z"/>
				<path style="fill:#6F7380;" d="M269.3,879.6c7.1,2.6,11.5,7.4,10.6,12c-1,4.7-9.2,10.8-17.7,11.7l0,0.2
					c-5.8,0.6-11.6,0.9-17.1,1c-23.7,0.4-51.6-3.1-76.2-9.8c-0.5-0.7-0.8-1.4-0.9-2.2c-1-4.7,3.4-9.5,10.4-12.2
					c7.1-2.7,16.5-3.5,24.8-2.3c8.3,1.2,15.6,4.2,20.6,7.9h0.1c5-3.9,12.2-6.9,20.6-8.3S262.2,876.9,269.3,879.6z"/>
				<path style="fill:#FFFFFF;" d="M257.7,151.5c2.6,8.7,2.9,18.5-1.4,26.5c-4.3,8-14.2,13.4-22.9,10.7c-5-1.5-9-5.4-11.6-10
					c-4.3-7.6-4.5-17.5-0.2-25c4.3-7.6,13.3-12.4,22-11.2C249.4,143.2,254.6,146.7,257.7,151.5z"/>
				<path style="fill:#6F7380;" d="M247.5,853c-1.3,3.3-4.4,6.2-8.4,6.4c-4.3,0.3-8.5-2.7-10-6.4c-1.5-3.6-0.7-7.6,1.1-11
					c2.1-4,6.6-7.5,11.7-6.6c4.4,0.8,7.3,4.8,7.8,8.7C250,847.3,248.8,850.1,247.5,853L247.5,853z"/>
				<path style="fill:#6F7380;" d="M207.2,849.5c0.9,3.4,0.1,7.6-3,10.2c-3.4,2.8-8.5,2.8-11.9,0.8c-3.4-2-5.1-5.8-5.6-9.6
					c-0.6-4.5,0.9-10,5.5-12.3c4-1.9,8.8-0.4,11.4,2.5C205.8,843.4,206.6,846.5,207.2,849.5L207.2,849.5z"/>
				<path style="fill:#DAE5E1;" d="M190.2,85.7c3.9,10.8,2.1,22.8-2.2,33.4c-4.3,10.6-11,20.1-17.3,29.6
					c-4.7,7.1-9.3,14.4-12.6,22.2l-0.1,0c-11,1.1-25-4.5-31.3-13.7c-8.4-12.2-8.4-28.3-4.3-42.5c3.3-11.2,9.1-21.9,17.9-29.9
					c8.8-8,16.2-13.8,40.1-12.8l0,0C184.9,75.6,188.3,80.5,190.2,85.7z"/>
				<path style="fill:#6F7380;" d="M166.6,863.6c0.7,3-0.2,6.7-3.1,8.9c-3.1,2.4-7.8,2.4-10.7,0.5c-2.9-1.9-4.4-5.2-4.7-8.5
					c-0.4-4,1.2-8.9,5.4-10.8c3.7-1.6,7.9-0.2,10.2,2.4c1.9,2.1,2.5,4.8,3,7.5L166.6,863.6z"/>
				<path style="fill:#6F7380;" d="M104.9,669.3L104.9,669.3c-15,6.1-32.7,5-43.6-0.6c-12.5-6.4-20.8-19.7-24.8-33.6
					c-2.6-8.9-3.6-23.9-4.2-33.2l0,0c3.4,5.5,8.2,10.1,13.9,13c-0.7-3.2-1.4-6.4-2-9.6c9.7,9.2,21.4,14.3,38.3,14h0
					C87.6,637,95.1,653.9,104.9,669.3z"/>
			</g>
			<g>
				<path style="fill:none;stroke:#31343B;stroke-width:0.25;stroke-miterlimit:10;" d="M11.8,472.4c-0.5,1.9-1,3.9-1.5,5.8
					c-0.8,3.1-1.5,6.2-2.2,9.4c-8.5,40.1-7,86,18.7,117.2"/>
				<path style="fill:none;stroke:#31343B;stroke-width:0.25;stroke-miterlimit:10;" d="M144.1,276c-25.2,32.7-59.7,58.1-86.7,89.7
					c-6.2,7.2-12,14.7-17.4,22.6"/>
				<path style="fill:none;stroke:#31343B;stroke-width:0.25;stroke-miterlimit:10;" d="M26.8,604.8L26.8,604.8
					C26.8,604.7,26.7,604.7,26.8,604.8c-1.8-2.7,0.6-6.2,2.9-8.4c0.8,1.9,1.7,3.7,2.8,5.5c3.4,5.5,8.2,10.1,13.9,13
					c-0.7-3.2-1.4-6.4-2-9.6c9.7,9.2,21.4,14.3,38.3,14"/>
				<path style="fill:none;stroke:#31343B;stroke-width:0.25;stroke-miterlimit:10;" d="M32.4,601.9c0.5,9.4,1.6,24.3,4.2,33.2
					c4,13.9,12.3,27.1,24.8,33.6c10.9,5.6,28.6,6.8,43.6,0.6"/>
				<path style="fill:none;stroke:#31343B;stroke-width:0.25;stroke-miterlimit:10;" d="M143.3,330.2c-8.4,41.3-25.7,80-40.8,119.3
					S74.4,529.9,75.3,572c0.4,16,2.8,32,7.2,47.4c5,17.6,12.6,34.5,22.4,50c4.5,7.2,9.5,14,15,20.5c0.7,0.8,1.4,1.7,2.1,2.5
					c5,5.7,10.3,11.1,15.9,16.1"/>
				<path style="fill:none;stroke:#31343B;stroke-width:0.25;stroke-miterlimit:10;" d="M533.1,318.9c5.9,45.1,26.8,86.5,42.8,129.3
					c2.9,7.7,5.6,15.4,8,23.2c17,54.5,20.3,114.8,0.2,168.3c-2.2,5.8-4.7,11.6-7.5,17.2c-22.7,45.8-64.4,82.8-114.3,92.9"/>
				<path style="fill:none;stroke:#31343B;stroke-width:0.25;stroke-miterlimit:10;" d="M484.3,805.4c-0.1,18.8-4,38.6-11.5,56.3
					c0.2-3.6,0.3-7.2,0.5-10.8c-4.9,8.2-8.2,10.9-15.7,15c2.4-4.3,1.4-4.6,3.7-8.8c-35.4,8.7-75.6,6.7-108.9-3"/>
				<path style="fill:none;stroke:#31343B;stroke-width:0.25;stroke-miterlimit:10;" d="M314.2,353.4c-0.1-0.8-0.4-1.6-0.7-2.4
					c-0.7-1.9-1.9-3.7-3.4-5.2c2.2,1.3,4.3,2.6,6.5,3.9c-0.7-4.9,0.1-10,2.4-14.5c7.3,3.9,13.8,10.6,15.5,18.4c0,0,0,0.1,0,0.1"/>
				<path style="fill:none;stroke:#31343B;stroke-width:0.25;stroke-miterlimit:10;" d="M334.5,353.7
					C334.5,353.6,334.5,353.6,334.5,353.7c1.9-3.1,4.9-6.5,6.7-9.6c-0.1,2.5-0.2,4.9-0.3,7.4c4.7-4.8,11.5-7.7,18.4-7.9
					c-2.6,1.5-4.6,3.8-5.7,6.4c1.1-0.2,2.2-0.4,3.3-0.7c4.7-0.9,9.4-1.9,14.2-2.8"/>
				<path style="fill:none;stroke:#31343B;stroke-width:0.25;stroke-miterlimit:10;" d="M313.6,351C313.6,351,313.6,351,313.6,351
					c-41.7,5.2-145.6,45.9-182.3,143.5C72.9,650,331.2,719.7,377.3,722.7c23.4,1.5,85.4-10.5,119.3-33.5
					c29.5-20,49.3-50.5,59.5-82.8c18-57,6.6-121.2-30.2-170c-36.8-48.8-104.6-82.4-169-86.9"/>
				<path style="fill:none;stroke:#31343B;stroke-width:0.25;stroke-miterlimit:10;" d="M242.5,60.4c0,0-0.1,0-0.1,0
					c-26-2.6-53-23-79.5-24.8c-18.9-1.3-37.7,7-51.2,20.2C98,69,89.4,86.7,84.7,105c-6.2,24.5-5.2,52,8.6,73.1
					c11.3,17.3,33.8,28.6,53.8,26.7"/>
				<path style="fill:none;stroke:#31343B;stroke-width:0.25;stroke-miterlimit:10;" d="M431.8,60.2c0.7,0,1.4,0.1,2.1,0.1
					c28.5,0.3,53.3-22.6,82-24.6c18.9-1.3,37.7,7,51.2,20.2c13.6,13.2,22.2,30.8,26.9,49.2c6.2,24.5,5.2,52-8.6,73.1
					c-11.3,17.3-35.1,28.5-55.1,26.6"/>
				<path style="fill:none;stroke:#31343B;stroke-width:0.25;stroke-miterlimit:10;" d="M228.4,67.8c4.5-2.7,9.1-5.1,14-7.4
					c18.1-8.6,38.3-14.4,58-16.9c3.6-0.5,7.1-0.8,10.6-1.1"/>
				<path style="fill:none;stroke:#31343B;stroke-width:0.25;stroke-miterlimit:10;" d="M336.1,49.2c-8.7,2.7-19.2-0.5-24.6-6.4
					c-0.1-0.2-0.3-0.3-0.4-0.5c-0.3-0.4-0.6-0.8-0.9-1.1c-4.1-5.6-4.6-12.6-2.6-18.9c2.2-6.9,7.1-13.1,12.3-19
					c-3.8,5.2-0.8,12,4.9,16.1s13.4,5.9,20.9,7.7c7.4,1.7,15.2,3.5,21.1,7.4c2.5,1.7,4.6,3.9,5.9,6.3c1.7,3.1,2,6.6,0.1,9.6"/>
				<path style="fill:none;stroke:#31343B;stroke-width:0.25;stroke-miterlimit:10;" d="M310.1,41.3c-4.2-5-8.8-10-13-15
					c1.7,2.6,3.4,5.2,5.1,7.8c-5.8-0.1-11.5-0.2-17.3-0.2c5.3,3.4,10.1,6.3,15.4,9.6c0,0,0,0,0,0"/>
				<path style="fill:none;stroke:#31343B;stroke-width:0.25;stroke-miterlimit:10;" d="M443.6,65.6c-3.1-1.9-6.4-3.6-9.8-5.3
					C415,50.8,392.7,44,372.7,40.7c0,0-0.1,0-0.1,0"/>
				<path style="fill:none;stroke:#31343B;stroke-width:0.25;stroke-miterlimit:10;" d="M257.7,151.5c0,0,0-0.1,0-0.1"/>
				<path style="fill:none;stroke:#31343B;stroke-width:0.25;stroke-miterlimit:10;" d="M257.7,151.5c-3.1-4.8-8.3-8.3-14-9.1
					c-8.6-1.2-17.6,3.6-22,11.2c-4.3,7.6-4.1,17.4,0.2,25c2.6,4.6,6.6,8.5,11.6,10c8.7,2.7,18.5-2.7,22.9-10.7
					C260.6,170,260.3,160.2,257.7,151.5z"/>
				<path style="fill:none;stroke:#31343B;stroke-width:0.25;stroke-miterlimit:10;" d="M260.7,159.7c-0.3-3-1.3-5.8-2.9-8.3"/>
				<path style="fill:none;stroke:#31343B;stroke-width:0.25;stroke-miterlimit:10;" d="M520.7,187.1c2.7,6.2,5.9,12.1,9.5,17.6
					c5.9,9.1,12.8,17.1,20.6,23.7c-3.2,0.6-6.4,1.1-9.5,1.7c2.2,3.7,5.9,6.1,9.7,6.3c-5.7,4.1-11.5,8.2-17.2,12.3
					c2-0.7,3.9-1.4,5.9-2.1c-4.1,9.9-9.3,19.1-15.6,27.2c-15,19.5-35.4,33.1-57.2,37.1"/>
				<path style="fill:none;stroke:#31343B;stroke-width:0.25;stroke-miterlimit:10;" d="M424,151.5c0,0,0-0.1,0-0.1"/>
				<path style="fill:none;stroke:#31343B;stroke-width:0.25;stroke-miterlimit:10;" d="M424,151.5c3.1-4.8,8.3-8.3,14-9.1
					c8.6-1.2,17.6,3.6,22,11.2c4.3,7.6,4,17.4-0.2,25c-2.5,4.6-6.6,8.5-11.6,10c-8.7,2.7-18.5-2.7-22.9-10.7
					C421,170,421.3,160.2,424,151.5z"/>
				<path style="fill:none;stroke:#31343B;stroke-width:0.25;stroke-miterlimit:10;" d="M421,159.7c0.3-3,1.3-5.8,2.9-8.3"/>
				<path style="fill:none;stroke:#31343B;stroke-width:0.25;stroke-miterlimit:10;" d="M155.2,179.2c0.8-2.8,1.7-5.6,2.9-8.2
					c3.3-7.8,7.9-15.1,12.6-22.2c6.4-9.5,13-19,17.3-29.6c4.3-10.6,6-22.7,2.2-33.4c-1.9-5.3-5.3-10.1-9.8-13.7
					c-4.6-3.7-10.1-5.9-16-5.9"/>
				<path style="fill:none;stroke:#31343B;stroke-width:0.25;stroke-miterlimit:10;" d="M180.4,72.1c-23.9-1-31.4,4.8-40.1,12.8
					c-8.8,8-14.6,18.7-17.9,29.9c-4.2,14.1-4.2,30.3,4.3,42.5c6.3,9.2,20.3,14.7,31.3,13.7"/>
				<path style="fill:none;stroke:#31343B;stroke-width:0.25;stroke-miterlimit:10;" d="M519.8,178.2c-0.7-2.8-1.5-5.5-2.6-8.1
					c-3-7.6-7.3-14.9-11.7-21.9c-6-9.5-12.3-18.9-16.1-29.3c-3.9-10.4-5.1-22.1-0.8-32.3c2.3-5.6,6.6-10.5,11.9-13.8
					c4.4-2.7,9.4-4.2,14.6-3.9"/>
				<path style="fill:none;stroke:#31343B;stroke-width:0.25;stroke-miterlimit:10;" d="M500.6,73.1c15.8,0.1,29.4,6.8,37.8,14.9
					c8.4,8.1,13.8,18.7,16.7,29.6c3.6,13.8,3,29.3-5.9,40.8c-6.7,8.5-21,13.3-31.9,11.8c0,0,0,0,0,0"/>
				<path style="fill:none;stroke:#31343B;stroke-width:0.25;stroke-miterlimit:10;" d="M429.1,195.6c10.1-6.7,23.9-7.4,34.6-1.9"/>
				<path style="fill:none;stroke:#31343B;stroke-width:0.25;stroke-miterlimit:10;" d="M147.8,198.8c0,2-0.3,4-0.7,6
					c-2.4,12-11.2,23.3-22.4,25.4"/>
				<path style="fill:none;stroke:#31343B;stroke-width:0.25;stroke-miterlimit:10;" d="M124.6,230.1c0,0,0.1,0.1,0.1,0.1
					c3.1,5.7,9.5,8.9,15.4,7.8c0.4-0.1,0.8-0.2,1.2-0.3"/>
				<path style="fill:none;stroke:#31343B;stroke-width:0.25;stroke-miterlimit:10;" d="M140.1,238.1c-2.5,5-6.3,10.5-10.2,14.3
					c2.4,0.5,4.8,0.3,7.1-0.6c-3.8,5-5.5,11.9-4.3,18.3c1.5-0.8,4.1-2.1,5.6-2.9"/>
				<path style="fill:none;stroke:#31343B;stroke-width:0.25;stroke-miterlimit:10;" d="M137.8,266.3c0.2,0.3,0.4,0.7,0.6,1
					c1.7,3,3.7,5.9,5.8,8.6c15.3,19.8,41.3,33.6,69.1,36.2"/>
				<path style="fill:none;stroke:#31343B;stroke-width:0.25;stroke-miterlimit:10;" d="M524.1,273.9c23.9,3.3,47.2,12.2,70.7,18.2
					c14.1,3.6,29.8,6.4,44.5,6.4"/>
				<path style="fill:none;stroke:#31343B;stroke-width:0.25;stroke-miterlimit:10;" d="M576,448.1c27,19,64.4,30.5,97.2,26.1
					c32.8-4.4,63.7-22.8,81.9-50.4c18.2-27.6,22.8-64.1,10.6-94.8c-9.5-23.9-29.3-43.5-53.1-53c-4.4-1.7-8.9-3.1-13.5-4.1
					c-2.5-0.6-5.1-1-7.7-1.3"/>
				<path style="fill:none;stroke:#31343B;stroke-width:0.25;stroke-miterlimit:10;" d="M691.4,270.5
					C691.4,270.5,691.4,270.5,691.4,270.5L691.4,270.5c-10.4,1.3-17.5,2.6-24,5c-3.1,1.2-6.2,2.6-9.4,4.5
					c-7.7,4.4-14.6,10.8-18.7,18.6c-1.2,2.2-2.2,4.5-2.9,6.9c-3.2,10.9-0.6,24.2,9.5,31.9c0,0,0,0,0,0"/>
				<path style="fill:none;stroke:#31343B;stroke-width:0.25;stroke-miterlimit:10;" d="M685.6,307.9c-11.1,3.8-22.5,7.8-31,15.8
					c-3.9,3.7-7.1,8.6-8.8,13.7c-2,6-2,12.4,0.8,18c3.1,6,8.9,10.1,15.5,12.1c2.6,0.8,5.2,1.3,7.9,1.5c9.4,0.6,18.7-1.9,27.7-4.5"/>
				<path style="fill:none;stroke:#31343B;stroke-width:0.25;stroke-miterlimit:10;" d="M662,367.7c-4,5-3.1,12.1,0.5,16.2
					c3.6,4.1,9,6.1,14.3,7.4c11.2,2.6,24.6,2.1,37.5-1.5h0"/>
				<path style="fill:none;stroke:#31343B;stroke-width:0.25;stroke-miterlimit:10;" d="M699,272c0.6,10.3-2.1,23.3-7.6,32.1
					c6.4,1.1,13.4-2.6,16.1-8.6c-3.2,14.8-3.7,30.2-1.5,45.2c3.7-5.1,7.3-10.1,11-15.2c-4.3,10.2-4.1,21.7-3.3,32.7
					c0.8,10.5,2.2,21.1,0.7,31.6c-0.1,0.5-0.2,1-0.3,1.5c-1.9,10.9-8,21.8-18.1,26.2"/>
				<path style="fill:none;stroke:#31343B;stroke-width:0.25;stroke-miterlimit:10;" d="M667.4,275.4c-2.7-9.4-4-24.4-0.8-33.5
					c3.2-9.1,10.2-16.9,19-19.6c8.8-2.6,19.3,0.5,24.7,8.5c5.2,7.6,2.7,19.5,2.5,28.9c-0.1,5.5-0.2,10.8-0.3,16.3v0"/>
				<path style="fill:none;stroke:#31343B;stroke-width:0.25;stroke-miterlimit:10;" d="M352.4,746.6c-0.7,23.6-3,47.8-2.2,71.4
					c0.4,12.1,0.4,24.2,2.1,36.2c0.4,3.3,1,6.7,1.7,10"/>
				<path style="fill:none;stroke:#31343B;stroke-width:0.25;stroke-miterlimit:10;" d="M354.3,864.5c-0.1-0.1-0.1-0.2-0.3-0.3
					c-2.3-2.6-6.4-2.4-8.6-5.2c0.7,6.7,3.4,11.4,4.1,18.1c-1.6-2.2-5.2-2.4-6.8-4.6c-0.6,6.5-1.7,13.2-6.9,15c1-4-1-8.9,0-12.9
					c-3.6,14.5-39.5,25.5-73.5,28.8c-5.8,0.6-11.6,0.9-17.1,1c-23.7,0.4-51.6-3.1-76.2-9.8c-11.9-3.2-23.1-7.2-32.6-11.8
					c-0.1,0-0.1-0.1-0.2-0.1"/>
				<path style="fill:none;stroke:#31343B;stroke-width:0.25;stroke-miterlimit:10;" d="M576.8,656.7c0,0.1-0.1,0.2-0.1,0.3
					c-20.4,43.1-41,86.6-70.4,123.6c-6.8,8.6-14.2,16.9-22.1,24.6c-4.3,4.3-8.8,8.4-13.4,12.3"/>
				<path style="fill:none;stroke:#31343B;stroke-width:0.25;stroke-miterlimit:10;" d="M262.2,903.3c8.5-0.9,16.7-7,17.7-11.7
					c1-4.7-3.5-9.4-10.6-12s-16.5-3.2-24.8-1.9s-15.6,4.4-20.6,8.3"/>
				<path style="fill:none;stroke:#31343B;stroke-width:0.25;stroke-miterlimit:10;" d="M169,894.8c0,0-0.1-0.1-0.1-0.1
					c-0.5-0.7-0.8-1.4-0.9-2.2c-1-4.7,3.4-9.5,10.4-12.2c7.1-2.7,16.5-3.5,24.8-2.3c8.3,1.2,15.6,4.2,20.6,7.9"/>
				<path style="fill:none;stroke:#31343B;stroke-width:0.25;stroke-miterlimit:10;" d="M283.3,866.4c-0.3,0.2-0.5,0.5-0.8,0.7"/>
				<path style="fill:none;stroke:#31343B;stroke-width:0.25;stroke-miterlimit:10;" d="M288.5,856.9c-0.9,3.2-2,6.4-4.3,8.8
					c0,0-0.1,0.1-0.1,0.1c-0.2,0.2-0.4,0.4-0.7,0.6c0,0,0,0,0,0c-2.4,2-6,2.9-9.4,1.6c-4-1.5-6.8-5.9-6.8-9.7c0-3.8,2.2-7,5.1-9.3
					c3.4-2.6,8.9-4,13.1-1.1c3.7,2.5,4.9,7.2,3.9,10.8c-0.8,2.9-2.9,4.8-5.1,6.8c-0.3,0.3-0.5,0.5-0.8,0.8"/>
				<path style="fill:none;stroke:#31343B;stroke-width:0.25;stroke-miterlimit:10;" d="M248.2,842.6c0.4,3.5,0.6,7.1-0.6,10.4
					c-1.3,3.3-4.4,6.2-8.4,6.4c-4.3,0.3-8.5-2.7-10-6.4c-1.5-3.6-0.7-7.6,1.1-11c2.1-4,6.6-7.5,11.7-6.6c4.4,0.8,7.3,4.8,7.8,8.7
					c0.4,3.2-0.8,6-2.1,8.9c-0.3,0.6-0.5,1.3-0.8,1.9"/>
				<path style="fill:none;stroke:#31343B;stroke-width:0.25;stroke-miterlimit:10;" d="M201.6,840.7c2.4,2.6,4.8,5.4,5.7,8.8
					c0.9,3.4,0.1,7.6-3,10.2c-3.4,2.8-8.5,2.8-11.9,0.8c-3.4-2-5.1-5.8-5.6-9.6c-0.6-4.5,0.9-10,5.5-12.3c4-1.9,8.8-0.4,11.4,2.5
					c2.1,2.3,2.9,5.4,3.6,8.4c0.2,0.7,0.3,1.5,0.5,2.2"/>
				<path style="fill:none;stroke:#31343B;stroke-width:0.25;stroke-miterlimit:10;" d="M161.8,855.7c2.1,2.3,4.1,4.8,4.8,7.9
					c0.7,3-0.2,6.7-3.1,8.9c-3.1,2.4-7.8,2.4-10.7,0.5c-2.9-1.9-4.4-5.2-4.7-8.5c-0.4-4,1.2-8.9,5.4-10.8c3.7-1.6,7.9-0.2,10.2,2.4
					c1.9,2.1,2.5,4.8,3,7.5c0.1,0.6,0.3,1.2,0.4,1.9"/>
				<path style="fill:none;stroke:#31343B;stroke-width:0.25;stroke-miterlimit:10;" d="M119.8,689.9c13.2,24.8,19.3,61,16.1,93.4
					c-1.6,16.3-17.2,43.5-19.2,59.7c-2,16.2,4.5,31.7,19.7,39.8"/>
				<path style="fill:none;stroke:#31343B;stroke-width:0.25;stroke-miterlimit:10;" d="M40.1,388c0,0.1,0,0.1-0.1,0.2
					c-1.3,1.8-16.5,9-23.9,13.5c4.4-0.6,8.8-1.3,13.2-1.9c-11.4,9.4-18.8,24.5-19.7,40.2c2.8-4.6,5.5-9.2,8.3-13.9
					c2.9,18.1-2.2,32.6-7.5,52"/>
			</g>
		</g>
	</g>
	<g id="shaders">
		<path style="fill:#4E5159;" d="M398.4,205.2c3.7-11.9,3.1-25.6,1-37.3c-0.3-1.7-3.1-1.3-3,0.4c0.4,14.6,3.1,29.4-4.4,42.8
			c-6.3,11.2-20.8,19.7-32.8,22.6c-24.5,5.9-54.2-0.5-66.7-25.7c-7.5-15.2-4.5-32.1-3.2-48.2c0.1-1.2-1.8-1.4-2.1-0.3
			c-2.9,12-5.2,25.4-3,37.9c-0.6,0.2-1.1,0.6-1.2,1.5c-0.7,6.8,0.9,14,2.8,20.5c1.8,6.3,4.4,12.3,7.7,18c6,10.3,14.6,19.3,25.5,24.2
			c22.5,10.2,54.1,4.7,68.3-16.7c3.6-5.4,6.3-11.6,8.2-17.8c1.1-3.3,1.8-6.7,2.7-10.1c0.8-3.3,1.8-6.5,2-9.9
			C400.4,205.9,399.3,205.2,398.4,205.2z"/>
		<path style="fill:#4E5159;" d="M710.5,236.2c-0.5-0.9-2-0.3-1.7,0.7c2.2,6.9,2,14.6-1.7,20.9c-3.9,6.7-11.1,10.4-18.8,10.3
			c-7.8-0.1-15-4.2-18.7-11.2c-3.5-6.8-3.6-15.1,0.2-21.8c0.7-1.2-1.1-2.3-1.9-1.1c-4.2,7-4.5,15.8-1.3,23c-0.1,0.2-0.2,0.3-0.2,0.6
			c0.2,1.7,0.4,3.5,0.6,5.2c-0.9-0.1-1.8,0.4-1.9,1.3c-0.1,0.2-0.2,0.4-0.2,0.7c0,1.9,0.2,4,1.3,5.5c0.1,0.3,0.2,0.6,0.2,0.9
			c0.3,1.1,1.2,1.3,2,1.1c0.5,0.9,2,0.9,2.5,0c0.4-0.1,0.9-0.3,1.3-0.5c0.1-0.1,0.2-0.2,0.3-0.2c0.9,0.2,1.8,0,2.4-0.6
			c1.1,0.5,2.1,1,3.2,1.5c1.5,0.6,2.5-1.6,1.5-2.6c-0.3-0.3-0.5-0.5-0.8-0.7c5.4,2.2,11.4,2.4,16.8,0.9c0,0.7,0.6,1.3,1.4,1
			c1.1-0.4,2.2-0.7,3.2-1c0.1,0.3,0.2,0.5,0.5,0.7c1.6,1.3,3.8,2.6,5.8,2.1c0.1,0,0.2,0,0.2,0.1c0.9,0.2,1.6-0.4,1.9-1.2
			c0.7,0,1.3-0.3,1.4-1.2c0.5-2.9,0.5-5.7,0-8.5c0-0.4,0-0.9-0.1-1.4c0-0.5-0.2-0.8-0.5-1.1c0.5-0.8,0.9-1.6,1.3-2.5
			C714,250.5,714.4,242.6,710.5,236.2z M669.5,262.4c0-0.2-0.1-0.4-0.1-0.6c0.1,0.2,0.3,0.4,0.4,0.5
			C669.7,262.3,669.6,262.3,669.5,262.4z"/>
		<path style="fill:#4E5159;" d="M705.4,392.4c1.7-0.5,3.5-1,5.2-1.7c0.5-0.2,1.1-0.4,1.6-0.6c0.2-1.9,0.7-3.7,1.2-5.5
			c0.2-1.5,0.4-3.1,0.6-4.6c0.1-0.8-0.9-1.2-1.5-1c0.2-2.4,0.3-4.8,0.2-7.2c0-3.2-0.2-6.3-0.6-9.4c1.1-2.1,0.8-5.2,0.7-7.4
			c-0.2-3-0.8-6.1-2.2-8.8c1.6-2.2,3.2-4.4,4.3-6.8c0.8-1.7-1.2-3.5-2.7-2.1c-0.7,0.7-1.3,1.4-1.9,2.1c-0.2,0-0.4,0-0.7,0
			c-0.5-0.4-1.2-0.5-1.8-0.3c-0.6-0.2-1.4-0.1-1.9,0.3c-0.4,0.3-0.7,0.7-1,1.1c-0.1-0.5-0.2-1.1-0.4-1.6c-0.7-3.7-1.1-7.4-1.4-11.2
			c-0.2-3.5-0.3-7-0.2-10.5c0.1-3.3,0.8-6.9,0.1-10.2c0-0.1,0-0.1-0.1-0.1c1.2-1.2,2.1-2.6,2.7-4.2c0.3-0.9-0.7-1.9-1.6-1.6
			c-3,1.2-5.5,3.3-8.6,4.4c-0.3,0.1-0.7,0.2-1,0.3c-0.1-0.1-0.2-0.2-0.3-0.3c-0.3-0.4-0.8-0.4-1.3-0.3c0.3-0.4,0.5-1,0.6-1.4
			c0.7-1.4,1.3-2.8,1.8-4.2c1.1-2.9,2-5.9,2.6-9c1.1-5.9,1.2-11.9-0.2-17.8c-0.2-1-1.3-1.1-2-0.6c0-0.3-0.1-0.5-0.1-0.8
			c-0.2-1.6-2.4-1-2.6,0.3c-0.7,6.4-1.1,12.5-2.9,18.7c-1.8,6.1-4.7,11.6-7.9,17c-5.4,0.1-10.6,1.2-15.6,3.3
			c-5.1,2.2-9.3,6.4-14.5,8.4c-5.3,2.1-10.2-1.2-11.7-6.4c-1.8-6,1.3-12.4,4-17.7c0.4-0.8-0.7-1.8-1.3-1c-4.1,4.8-7.3,10.9-6.4,17.4
			c0.2,1.4,0.6,2.9,1.3,4.2c-0.4,0.3-0.6,0.8-0.4,1.4c1.3,4.4,3.1,8.6,4.7,12.8c0.1,0.3,0.3,0.7,0.4,1c0.2,0.6,0.6,0.8,1.1,0.9
			c0.6,1.4,2.9,1.5,3.4-0.2c0.2-1,0.5-1.9,0.7-2.9c0.2,0,0.5-0.1,0.7-0.2c0.3-0.2,0.5-0.3,0.8-0.5c0.5-0.3,0.7-0.9,0.6-1.4
			c0.2-0.4,0.4-0.7,0.7-1.1c0.1-0.1,0.1-0.1,0.2-0.2c0.4-0.4,0.6-0.8,0.6-1.2c0.1-0.4,0-0.9-0.3-1.2c3.9-0.9,7.2-3.8,10.5-6.1
			c0.1,0,0.1-0.1,0.2-0.1c-2.9,2.3-5.3,5.2-7.2,8.3c0,0,0,0-0.1,0.1c-0.6,0.6-1.2,1.3-1.8,2c-0.4-0.3-1-0.4-1.5,0.1
			c-5.5,5.8-8,14.4-5.4,22.1c2,5.7,6.4,10.7,12,13c0.2,0.3,0.5,0.6,0.7,0.9c0.6,0.8,1.6,0.7,2.3,0.2c0.5,0.3,1.1,0.6,1.6,0.8
			c0.8,1.2,2.5,1.9,4,1.4c0.4-0.1,0.7-0.3,0.9-0.6c3.6,1.6,7.6,2.4,11.6,1.9c0.9-0.1,1.3-1.6,0.2-1.8c-11.1-1.9-21.6-8.6-24.7-20
			c-3-11.1,2.3-23.9,12.2-29.7c0.9-0.5,0.4-1.7-0.4-1.8c4.8-2.5,10.1-4,15.4-4.5c0.1,1.1,0.8,2.1,2,2.3c4.1,0.7,9.8,0.3,14.3-1.7
			c-0.7,2.5-0.9,5.2-1.2,7.6c-0.4,4.1-0.4,8.2-0.1,12.4c0.6,7.7,2,15.8,5.2,22.9c0.7,1.6,3,1.3,3.7,0c0.5-0.8,1-1.5,1.5-2.2
			c1.1,6.9,1.4,14,1.1,21c-0.2,4.2-0.6,8.4-1.3,12.5c-0.2,0.9-0.4,1.8-0.6,2.7c-5.3,0.9-10.5,1.7-16,1.5c-6.5-0.2-12.4-1.1-18.1-4.1
			c-0.1-0.1-0.9-0.7-0.9-0.8c-2-2.3-2.7-6-0.3-8.2c1.9-1.8,4.9-2.2,7.4-2.8c6.5-1.6,13.5-2.9,19.7-5.5c0.7-0.3,0.8-1.6-0.2-1.6
			c-4.1,0.3-8.1,1.4-12,2.2c-3.6,0.8-7.4,1.5-11,2.5c-0.2-0.2-0.5-0.3-0.9-0.3c-1.1,0-2.2,0.1-3.3,0.3c0-0.1-0.1-0.1-0.2-0.2
			c-1.8-1.6-4.2-1.5-5.9-0.3c-0.7-0.9-2.3-1.2-2.9,0.1c-0.6,1.3-0.9,2.6-0.9,3.8c-1,4.2,1,9,5.1,10.8c0.3,0.1,0.5,0.2,0.8,0.2
			c0.4,0.4,0.8,0.8,1.3,1.1c0.3,0.2,0.7,0.3,1,0.3c3.7,4.2,10.2,6,15.3,7c7,1.4,14.3,1,21.1-1.3C705.4,392,705.4,392.2,705.4,392.4z
			"/>
		<path style="fill:#4E5159;" d="M99.8,669.6c0.8-0.5,1.3-1.6,0.8-2.7c-1.2-2.7-2.5-5.4-3.9-8.1c0.3-0.3,0.5-0.6,0.8-1
			c0.8-1.1-0.7-2.2-1.7-1.7c-0.1,0.1-0.3,0.1-0.4,0.2c-0.6-1-1.1-2.1-1.7-3.1c-0.8-3.9-1.9-7.7-3.3-11.5c0,0-0.1-0.1-0.1-0.1
			c-0.8-1.2-1.5-2.4-2-3.7c-0.6-1.2-1.2-2.4-1.7-3.6c-0.7-1.8-1-2.9-1.4-4.4c-0.1-0.3-0.2-0.7-0.3-1c-0.3-0.5-0.8-0.8-1.4-0.8
			c0.7-2.1-0.2-4.6-2.6-5.4c-0.4-0.2-0.4-1.4-0.8-1.4c-0.8-1.2-2.7-0.2-3.8,0.2c-0.2-0.5-0.4-0.9-0.9-1.1c-2.8-1.8-6.6-1.8-9.7-2.7
			c-3.4-0.9-6.7-2.4-9.7-4.3c-1-0.7-2.1-0.4-2.9,0.2c-0.8,0.1-0.5,0-0.7-0.8c-0.8-3.2-3.4,0.7-0.8,3.7c-5.7-1.8-11-4.5-15.7-8.2
			c-2.6-2-6.2,1.3-3.7,3.7c0.5,0.5,0.9,0.9,1.4,1.4c0,0,0,0.1,0,0.1c0.7,2.1,2.6,4,4.1,5.7c1.9,2,3.9,3.9,6,5.7
			c0.7,0.6,1.8,1.7,3.1,2.6c2.2,12.7,6.1,26.1,17.3,33.7c7,4.7,17.2,6,25.2,2.7c2.6,3.2,5.6,6.8,9.6,8.1c1,0.3,1.5-0.8,1.2-1.6
			C100.1,670.1,100,669.8,99.8,669.6z"/>
		<path style="fill:#A6BDBB;" d="M402.2,175.1c-0.4-1.4-2.8-1.2-2.6,0.4c1.2,10.1,2.9,20.2,3.4,30.4c0.5,9.3-0.4,18.3-3,27.2
			c-2.3,7.8-6.4,15.5-12.1,21.4c-5.6,5.8-12.8,9.5-20.4,11.9c-7.7,2.4-15.7,3.3-23.7,3.4c-8.7,0.1-17.6-0.7-26-3
			c-16.2-4.5-28.1-16.4-33.7-32.2c-7.3-20.5-3.2-42.8,0.8-63.5c0.3-1.6-1.9-2.2-2.4-0.7c-6.8,19.3-10.8,40.3-5.9,60.6
			c4.1,17.4,14.7,32.9,31.5,40c9.2,3.9,19.1,5.3,29,5.8c8.9,0.4,18-0.1,26.7-2c17.8-3.9,32.5-15.1,39.3-32.2
			C411.4,221,407.6,196.9,402.2,175.1z"/>
		<path style="fill:#A6BDBB;" d="M235.8,308.8c0,0-0.1-0.1-0.1-0.1c-3.4-4.4-8.3-6.3-13.7-6.7c-2-0.2-2.5,2.3-1.5,3.6
			c0.2,0.2,0.4,0.5,0.6,0.7c-0.5-0.2-1.1-0.3-1.6-0.5c-4.5-1.6-8.6-4.2-12-7.6c-2.3-2.4-6.4,0.7-4.6,3.6c0.1,0.2,0.2,0.4,0.3,0.5
			c-12.4-3.2-24.2-8.6-34.5-16.4c-6.1-4.5-11.8-9.9-16.5-15.9c-4.4-5.6-7.6-14.7-1.1-20.1c2-1.6-0.2-5.4-2.6-4.4
			c-0.3,0.1-0.6,0.2-0.9,0.4c1.9-4.3,3.8-8.6,5.8-12.9c0.9-2-0.6-4-2.7-3.6c-1.2,0.2-2.5,0.5-3.7,0.7c3.9-9.4,5.3-20.1,3-30
			c-0.3-1.2-1.8-1.4-2.7-0.8c-0.5-0.4-1.1-0.7-1.9-0.8c-16.8-1.3-32.5-8.9-44-21.3c-11.7-12.6-18.1-29.8-18-46.9
			c0-1.6-2.3-1.5-2.5,0c-2.8,29.2,13.9,57.2,40.9,68.7c7.5,3.2,15.5,5.2,23.6,5.6c0.6,0,1.1-0.1,1.5-0.3c0.1,2.2,0,4.4-0.1,6.6
			c-0.8-0.1-1.6,0.3-1.8,1.1c-1.4,8-6.2,15.3-14.4,17.6c-1.3,0.4-2.5,2-2,3.5c1.7,4.1,5.1,4.1,8.9,4.9c1.7,0.4,2.6,1.3,2.2,3.2
			c-0.5,2.4-3.1,4.1-5,5.4c-2.2,1.5-1.7,5.6,1.5,5.4c0.3,0,0.6,0,0.9-0.1c-1,4.5-2,9.1-3.1,13.6c-0.7,3.2,3.8,5.4,5.4,2.3
			c0.2-0.3,0.3-0.6,0.5-0.9c2.1,6.9,7.3,13,12.6,18.2c-1-0.7-2-1.3-2.9-2c-1-0.7-2.1-0.2-2.7,0.7c-0.1-0.2-0.3-0.4-0.4-0.5
			c-0.2-0.3-0.5-0.7-0.7-1c-0.7-1-2.5-1.6-3.4-0.4c-0.9,1.2-1.8,2.4-2.7,3.5c-0.5,0.7-0.4,1.6,0.1,2.3c-1.4-0.2-2.8,1.6-1.5,2.8
			c11.9,11,28.3,17.5,43.9,21.3c15.4,3.7,31.8,5.1,47.4,2.2c1.6-0.1,3.2-0.3,4.8-0.6C236.7,312.9,237,310.3,235.8,308.8z
			 M156.4,293.2c-0.1-0.2-0.3-0.4-0.4-0.7c1.6,1.2,3.3,2.3,4.9,3.5C159.4,295.2,157.8,294.2,156.4,293.2z M169,302.3
			c0.4,0.2,0.9,0.4,1.3,0.6c-0.6-0.2-1.3-0.5-1.9-0.7C168.6,302.3,168.8,302.3,169,302.3z M174.3,304c0,0,0.1,0,0.1,0.1
			c0,0.1,0.1,0.3,0.2,0.4c-0.3-0.1-0.7-0.2-1-0.3C173.9,304.2,174.1,304.1,174.3,304z M193.8,309.5c0.2-0.3,0.3-0.6,0.3-0.9
			c1.3-0.2,2.6-0.4,3.9-0.7c0.1,0,0.2-0.1,0.3-0.1c3.5,1,7,1.8,10.6,2.4c0.6,0.1,1.3,0,2-0.2c0.1,0.2,0.2,0.3,0.4,0.4
			c1,0.5,2.1,0.9,3.3,1.3C207.6,311.3,200.7,310.7,193.8,309.5z"/>
		<path style="fill:#A6BDBB;" d="M597,126c-0.3-1.4-2.3-1-2.4,0.3c-0.5,7.1-0.9,14-3,20.9c-2.1,6.7-5.3,13.1-9.5,18.7
			c-8.3,11.4-21,19.3-34.7,22.6c-7.8,1.9-15.5,1.9-23.5,0.9c-0.3,0-0.6,0-0.8,0c-0.1-0.2-0.2-0.4-0.2-0.6c-0.4-1.1-2.3-1.1-2.2,0.3
			c0.1,0.8,0.1,1.6,0.3,2.5c-0.3,1.2-0.1,2.5,0.7,3.4c1.2,4.9,3.3,9.7,5.5,13.9c2.4,4.5,5.2,8.8,8.5,12.7c-1.8-0.2-3.6-0.5-5.4-0.7
			c-1.8-0.2-2.8,2.1-2,3.5c1.1,1.9,2.7,4.4,2.5,6.7c-0.1,1-1.1,3.4-2.5,2.7c-1.7-0.9-4.6,0.2-4.3,2.5c2,15-4.1,30.2-13.7,41.5
			c-10,11.8-23.8,19.5-38.4,24.3c0.5-4-4-5.2-7-3.3c-1.9,1.2-3.6,3.1-5.4,4.6c-1,0.9-1.9,1.7-2.9,2.6c-0.5,0.1-1,0.2-1.5,0.3
			c0.2-0.6,0.4-1.3,0.4-2.1c0-1.6-2-3-3.4-2c-3.2,2.3-6.6,4.5-9.9,6.8c-0.6,0.2-1,0.5-1.4,1c-1.2,0.9-2.4,1.8-3.5,2.7
			c-1.3,1.1,0.4,2.9,1.7,2.3c0.2-0.1,0.3-0.2,0.5-0.3c0,0.4,0.3,0.8,0.8,1c13.4,3.5,28.6,1.6,41.7-2.1c13.8-3.9,26.7-10.5,37.9-19.5
			c6.3-5,12.1-10.6,16.1-17.6c0.9-1.6-1.3-3.4-2.6-2c-0.7,0.7-1.4,1.4-2.1,2.1c-0.3-0.9-1.4-1.7-2.4-1c-0.9,0.6-1.8,1.3-2.6,1.9
			c-0.8-0.4-1.8-0.5-2.7,0.2c-5.7,4.6-11.3,9.2-17,13.8c-0.9,0.7-1,1.7-0.6,2.5c-0.3,0.4-0.5,0.8-0.6,1.2c-5.2,3-10.6,5.7-16.1,8.3
			c-0.3,0-0.5,0.1-0.8,0.2c-1.6,0.7-3.1,1.4-4.6,2.1c-0.5,0.2-0.7,0.8-0.7,1.3c-0.1,0.4-0.1,0.9,0.1,1.3c-6.4,2.1-13,3.5-19.6,4.3
			c-1.9,0.2-3.9,0.4-5.8,0.5c3.1-0.7,6.2-1.6,9.2-2.5c1.6,0.9,3.5,1.1,5.3,0.4c1.7-0.7,2.8-1.9,3.6-3.3c6.2-2.3,12.3-5,18-8.2
			c10.9-6.3,20.3-14.9,26.9-25.4c0.1,1.6,2.2,2.9,3.4,1.4c1.4-1.7,2.3-3.8,3.3-5.8c1.6-1.5,2.5-3.6,3.5-5.5c1.2-2.2,2.2-4.5,3.2-6.8
			c1-2.4,2-4.8,2.9-7.3c0.5-1,1-2,1.5-3c1-0.6,1.8-1.5,2.3-2.6c0.5-1.2,0.8-2.4,0.9-3.6c0.6-0.1,1.2-0.2,1.8-0.3
			c0.9-0.1,1.6-0.5,2-1c2-1.2,0.9-4.5-1.5-4.7c-1.1-0.1-2.1-0.3-3.2-0.4c-0.2,0-0.3,0-0.4,0c-0.4-0.9-0.9-1.7-1.4-2.6
			c0.3,0,0.6,0,0.9-0.1c2.3-0.1,3.5-3.3,1.2-4.5c-0.8-0.4-1.6-0.6-2.3-0.7c0-0.1-0.1-0.1-0.1-0.2c0.9,0.1,1.7,0.2,2.6,0.3
			c2,0.2,2.9-2.6,1.6-3.8c-4.8-4.7-8.9-9.9-12.3-15.7c-0.4-0.6-0.7-1.2-1-1.9c0.1,0,0.3,0.1,0.4,0.1c3.2,0.3,6.4-0.6,9.5-1.4
			c3-0.8,6-1.7,8.9-2.8c5.9-2.1,11.7-4.8,17.2-7.9c9.8-5.6,21.7-13.5,21.8-26c3.2-4.9,5.7-10.3,7.5-16
			C597.4,143.4,598.8,134.2,597,126z M528.1,202c-0.3-0.7-0.6-1.3-0.9-2c0.3,0.6,0.7,1.1,1.1,1.6C528.2,201.8,528.1,201.9,528.1,202
			z"/>
		<path style="fill:#A6BDBB;" d="M453.4,235.4c-3.1-9.8-17-14.3-25.6-8.9c-0.3,0-0.7-0.1-1-0.1c-3.3-0.4-3.8,4.3-1.6,5.8
			c3.2,2.2,6.4,4.3,9.7,6.5c2.7,1.8,5.5,4.1,8.5,5.4C449.5,246.6,455.5,241.9,453.4,235.4z M446.6,238.5c-1-0.2-2.1-0.8-3.1-1.5
			c0.3,0,0.5-0.1,0.7-0.2c0.2,0.2,0.3,0.3,0.5,0.5c1,0.9,2.2,0.8,3,0.3C447.9,238.2,447.7,238.7,446.6,238.5z"/>
		<path style="fill:#A6BDBB;" d="M176.2,65.9c-3.8-2-8.7-1-12.7-0.1c-4.2,0.9-8.4,2.1-12.4,3.8c-8,3.3-15.1,8.3-21,14.6
			c-12.2,12.9-17.9,30.3-15.7,47.9c1.2,9.6,4.7,19.3,10.8,26.8c0.8,1,2.3-0.3,1.7-1.3c-8.1-14.5-11.2-31-6.6-47.2
			c4.4-15.6,15.7-27.6,30.3-34.2c4-1.8,8.3-3.2,12.7-3.9c4.2-0.7,9,0,12.9-1.9C177.9,69.4,177.7,66.7,176.2,65.9z"/>
		<path style="fill:#A6BDBB;" d="M554.7,96.1c-7.6-17.7-24.4-33-44.9-29.6c-9.2,1.5-18.4,7.8-22.1,16.5c-0.6,1.5,1.4,2.8,2.2,1.3
			c4.1-7,11-11.5,19-12.5c8.5-1,17,2,23.9,6.8c14.1,9.9,21.7,28.5,22.8,45.2c0.7,10.3-0.7,20.5-3.9,30.4c-0.6,1.9,2.4,3.2,3.2,1.4
			C563.3,136.8,562.7,114.9,554.7,96.1z"/>
		<path style="fill:#A6BDBB;" d="M142.3,330.4c-6.3,20.3-14.5,39.8-23.8,58.9c-9.2,18.8-19.4,37.2-28.8,55.9
			c-1.4,2.8-2.8,5.5-4.1,8.3c-0.3-0.3-0.7-0.5-1-0.8c-2.8-2.3-5.7-4.6-8.6-6.8c-5.8-4.3-11.9-8.2-18.2-11.6
			c-6.1-3.3-12.5-6.3-19-8.8c-6.6-2.6-14.4-5.7-21.6-5.5c-2.5,0-3.6,3.5-1.3,4.8c5.9,3.3,13.1,4.8,19.4,7.3
			c6.7,2.6,13.2,5.6,19.4,9.1c6.1,3.4,11.9,7.1,17.5,11.2c2.9,2.1,5.7,4.3,8.4,6.6c0.6,0.5,1.1,1,1.6,1.4
			c-15.4,32.1-28.2,65.8-30.2,101.7c-0.6,11-0.2,22.1,1.5,33c0.8,5.6,2,11.1,3.6,16.5c0.4,1.2,0.7,2.3,1.2,3.4
			c0.5-0.1,1-0.1,1.6,0.2c0.8,0.4,1.6,0.8,2.4,1.1c0.9,0.3,1.7,0.7,2.6,1c-0.1-0.2-0.1-0.4-0.2-0.7c3.7,2.5,9.7,2.6,13.2,1.2
			c0.8-0.3,1.3-0.9,1.5-1.5c0.4-0.3,0.7-0.9,0.6-1.5c-2.2-14.8-4.4-29.5-4.8-44.5c-0.4-14.9,0.5-29.8,2.9-44.5
			c4.8-29.8,16.2-57.6,27.1-85.6c6.3-16.2,12.9-32.3,19-48.5c0.4-1,0.1-1.7-0.4-2.3c8.6-18.9,16.4-38.2,20.8-58.5
			C144.9,329.5,142.7,328.9,142.3,330.4z"/>
		<path style="fill:#A6BDBB;" d="M751.1,405.9c-4-8.4-11.1-14.9-17.5-21.5c-6.9-7.1-12.4-14.7-15.1-24.3
			c-3.1-10.8-3.2-23.1,0.6-33.6c0.4-1.1-0.8-1.2-1.4-0.1c-5,10.7-6.1,22.9-3.4,34.3c0.1,2.2,0.4,4.4,0.5,6.5c0.3,4.3,0.6,8.7,0.9,13
			c0.2,3.7,0.3,7.9-2.6,10.6c-2,1.8-4.6,2.7-7.3,3.3c0,0-0.1,0-0.1,0c0.1-0.3,0.2-0.5,0.2-0.8c-1.3,0.4-2.6,0.5-4,0.3
			c-0.1,0.1-0.1,0.2-0.2,0.4c-12-0.3-24.1-1-35.3-5.6c-1-0.4-1.9,0.3-2.1,1.2c-1.5-1.3-2.8-2.7-4-4.2c0.2-0.3,0.2-0.7,0.1-1
			c-0.3-0.9-0.5-1.7-0.8-2.5c0.4,0.1,0.7,0.1,1.1,0.2c-1.2-1.7-1.7-4.1-1.4-6.3c-0.4-0.2-0.9-0.4-1.3-0.7c0-0.8,0-1.6,0.1-2.4
			c0,0,0-0.1,0-0.1c0.1-0.9,0.3-1.8,0.4-2.7c0.2-0.8-0.2-1.5-0.7-1.8c-0.2-0.5-0.7-0.7-1.3-0.7c-1-1.8-2.7-3.1-4.9-2
			c-0.3,0.1-0.5,0.3-0.7,0.5c-0.2-0.8-0.4-1.5-0.5-2.3c-0.2-0.9-1.1-1.2-1.8-0.8c-1.9-3.7-3.4-7.5-4.5-11.5c0.2,0.1,0.4,0.2,0.5,0.4
			c-1-2.2-1.1-4.8-0.4-7.2c-0.4-0.4-0.8-0.7-1.2-1.1c0,0-0.1-0.1-0.1-0.1c-0.1-0.7-0.2-1.4-0.2-2.2c0.6-0.1,1-0.6,0.7-1.3
			c-1.8-4.5-4.2-8.7-6.3-13c-0.5-0.9-1.8-0.7-2.3,0c-0.8-5.8,0.2-12,2.5-17.3c0.6-1.4-1.3-2.6-2.1-1.2c-5.2,8.3-6.3,18.6-2.7,27.8
			c0.9,2.3,2,4.5,3.4,6.5c-1.7,8.1,0.7,17.4,4.6,24c2.4,4,5.5,7.4,9.2,10.2c3,8.4,9.1,16,16.3,20.8c5.8,4,12.7,6.2,19.7,6.9
			c3.2,0.3,6.6,0.4,9.9-0.1c-1.1,1.5-2.3,3-3.6,4.5c-4.8,5.3-10.4,9.8-16.6,13.3c-13.8,7.8-30.1,10.2-45.8,7.9
			c-17-2.5-32.2-10-45.1-20.6c-0.1-0.5-0.3-1-0.4-1.6c-1.3-5.6-1.9-11.4-1.9-17.1c0-11,1.9-21.9,5.6-32.3
			c3.4-9.6,8.2-18.7,13.7-27.2c6-9.3,13.7-16.6,20.6-25.1c0.5-0.6-0.1-1.6-0.9-1.1c-9.1,5.7-17,14.9-23.5,23.3
			c-6.7,8.6-12,18.2-15.7,28.5c-4,10.8-6.1,22.4-6.2,33.9c0,3.4,0,7.2,0.3,11.1c-8.1-8.1-15.1-17.5-20.8-27.4
			c-4.9-8.7-9-17.8-12.4-27.2c-3.4-9.2-5.6-18.8-8.6-28.1c-0.2-0.7-1.5-0.6-1.4,0.2c1.2,9,4,17.9,6.8,26.4c1.2,3.7,2.6,7.3,4,11
			c-0.7,0-1.4,0.7-1.3,1.6c0.8,4.6,2.5,9.1,4,13.6c1.4,4.2,2.8,8.3,4.3,12.4c3.1,8.7,6.3,17.5,9.4,26.2c2.9,7.9,5.5,16,8.7,23.8
			c1.8,4.4,5.1,11.1,9.9,13.6c1,1.7,2.6,3.2,3.9,4.4c2.2,1.9,4.5,3.6,7.1,5c5.8,3.1,12.2,4.9,18.7,6.2c0.1,0,0.2,0,0.3,0.1
			c0.1,0.2,0.3,0.4,0.6,0.5c10.2,4.7,21.5,6.8,32.6,7.9c2.3,0.2,4.5,0.4,6.8,0.5c-0.2,0-0.4,0.1-0.6,0.1c-1.5,0.3-1.4,2.6,0,2.9
			c7.6,1.6,16.1,0.4,23.7-0.8c8.1-1.2,16.1-3.3,23.8-6.1c14-5.1,27.2-12.6,38.5-22.4c4.9-4.3,9.1-8.9,12.8-14.1
			c-0.1,0.2-0.1,0.3-0.2,0.5c0-0.1,0.1-0.1,0.1-0.2c2.1-2.9,4.8-5.4,7.1-8.1C754.7,418,753.8,411.6,751.1,405.9z"/>
		<path style="fill:#A6BDBB;" d="M617.2,346.6c-0.2,0-0.5,0.1-0.7,0.1c-0.7,0.1-0.8,1.1,0,1.2c0.2,0,0.5,0.1,0.7,0.1
			c0.4,0,0.7-0.3,0.7-0.7C617.9,346.9,617.6,346.5,617.2,346.6z"/>
		<path style="fill:#A6BDBB;" d="M615.8,344.1c1.3-1.4-0.7-3.3-2-2c-2.5,2.2-4.9,4.2-7,6.7c-2.1,2.5-4,5.2-5.6,8.1
			c-3.2,5.7-5.3,12.1-6.3,18.6c-0.3,1.7,0.6,3,1.8,3.4c-0.3,0.8-0.6,1.7-0.8,2.6c-0.4,1.5,0.6,3,1.9,3.5c-0.9,2.8-1.2,5.6-0.3,8.4
			c0.5,1.5,2.3,1.6,3.1,0.4c2.8-3.7,3.4-8.2,5.2-12.4c1.8-4.2,4.2-8.3,7.2-11.8c2.2-2.7-1.5-6.5-3.9-3.9c-1,1.1-1.9,2.2-2.9,3.3
			c-0.7-0.8-1.9-1.2-3-0.4c-0.4,0.3-0.9,0.6-1.3,0.9c0.9-3.5,2.2-6.9,3.8-10.2C608.2,354.1,611.7,348.5,615.8,344.1z"/>
		<path style="fill:#DAE5E1;" d="M189.5,90c-1.4-4-3.5-7.8-6-11.2c-2.4-3.2-5.3-7.4-9.1-9c-1-0.4-1.8,0-2.3,0.8
			c-1.9-0.2-4.2,1.5-4,3.5c1.1,9,8,16.2,9.5,25.1c1.3,7.9-0.9,16.9-3.8,24.2c-3.2,8-8.1,15.1-12.2,22.6c-4,7.4-7.7,15.2-9.1,23.5
			c-0.6,3.4,4.6,4.8,5.2,1.4c0.1-0.9,0.3-1.8,0.5-2.6c2.9-4,5.2-8.9,7.5-13.2c2.4-4.4,4.8-8.9,7.1-13.3c1.7-3.2,3.5-6.4,5.2-9.6
			c1.9-2.8,3.6-5.7,5.2-8.6c1.2-2.2,2.2-4.4,3-6.7c0.2-0.5,0.5-0.9,0.7-1.4C191.1,107.3,192.5,98.8,189.5,90z"/>
		<path style="fill:#DAE5E1;" d="M513,144.9c-4.1-7.9-9.2-18-11.2-26.6c-1.9-8.2-3.1-14.8-2-23.4c0.5-3.6,1.7-7.1,3.3-10.3
			c1.6-3.3,4.1-6.2,5.4-9.7c0.7-1.8-1.1-4.1-3-4c-6.5,0.5-11.1,6.5-13.7,12.5c-1.4,2.7-2.5,5.6-3.3,8.2c-2.3,7.6-2.6,15.7-0.8,23.4
			c1.9,8.5,6.1,16.2,10.5,23.6c4.9,8.2,10.1,16.1,15.1,24.2c0.7,1.2,1.9,1.5,3,1.3c0.2,1.3,0.2,2.6,0.2,3.9c-0.2,3,4.4,2.9,4.6,0
			C521.8,159.4,516.8,152.3,513,144.9z"/>
		<path style="fill:#DAE5E1;" d="M310.9,45.8c-3.1-0.9-6.9-0.1-10.1,0.2c-3.1,0.3-6.3,0.6-9.4,1.1c-6.6,0.9-13.2,2.1-19.7,3.7
			c-11.6,2.9-23.4,6.4-34.1,11.8c-0.2-0.5-0.5-1-1.1-1.3c-4-2-8.4-2.6-12.6-3.9c-4.2-1.3-8.2-2.9-12.1-4.7
			c-8.2-3.8-16.5-7.6-24.9-11.1c-15.5-6.3-32.1-7.7-48.4-3.3c-8.7,2.4-16.7,6.2-23.4,12.3c-1.2,1.1,0.4,3.1,1.8,2.3
			c6.7-3.9,13.9-7.5,21.3-9.6c7.5-2.2,15.4-2.9,23.2-2.5c8.1,0.5,16,2.8,23.3,6.1c8,3.7,15.2,8.7,23.2,12.5c4.4,2.1,8.9,4,13.5,5.4
			c4.6,1.4,9.8,2.7,14.5,1.2c0.4-0.1,0.8-0.4,1.1-0.7c11.9-3.5,23.5-7.3,35.7-9.7c6.2-1.2,12.5-2.3,18.8-3.1c3.3-0.4,6.6-0.8,9.8-1
			c3-0.2,6.8,0.2,9.6-1C313,49.6,313.4,46.5,310.9,45.8z"/>
		<path style="fill:#DAE5E1;" d="M374.3,43.5c-0.5-2.8-2.5-4.6-4.5-6.4c-2.1-1.8-4.2-3.5-6.5-5c-0.7-0.5-1.4-0.9-2.1-1.4
			c-2.4-0.7-4.9-1.3-7.3-1.9c-5.5-1.5-11.1-2.6-16.5-4.2c-4-1.2-7.4-2.9-10.7-5.2c-0.8-0.4-1.5-0.9-2.2-1.4c-0.5-0.4-1-0.9-1.4-1.3
			c-2.2-1.9-4-4-4.9-6.5c-0.3,0.1-0.6,0.4-0.8,0.7c-2.7,4.9,1.5,10.8,5.5,13.4c5.3,3.5,12,3.8,17.9,5.3c5.6,1.4,11,3.7,15.9,6.8
			c2.5,1.5,4.9,3.2,7.2,5.2c2.2,1.9,4.1,4.3,7.1,5C373.2,47,374.6,45.3,374.3,43.5z"/>
		<path style="fill:#DAE5E1;" d="M588.9,89.4c-5.8-20.4-23-38.3-42.5-46c-10.9-4.3-22.4-5.4-34.1-4.5c-11.9,0.9-23.2,4.6-34.2,9
			c-6,2.4-12,5-18.1,7.4c-6.3,2.5-12.8,4.5-19.1,7.1c-0.1,0-0.1,0.1-0.1,0.1c-0.7-0.4-1.4-0.8-2.1-1.1c-2.7-1.4-5.4-2.7-8.1-3.9
			c-5.6-2.5-11.3-4.7-17.1-6.5c-11.6-3.7-23.4-5.8-35.6-6.4c-2-0.1-2.5,3.2-0.5,3.6c11.5,1.8,23,4.4,34.1,8.1
			c5.5,1.8,10.8,3.9,16.1,6.3c2.7,1.3,5.4,2.6,8.1,4c2.5,1.3,5.2,2.9,8.1,3.4c2.1,0.3,3.4-1.8,2-3.5c0,0-0.1-0.1-0.1-0.1
			c9.6-1.7,18.9-6.2,27.9-9.9c10.3-4.2,20.7-8.4,31.7-10.4c11.2-2,22.1-0.7,32.9,2.4c9.9,2.9,19.9,8,27.8,14.7
			c9,7.6,15.3,16.8,20.4,27.3C587.1,91.7,589.3,90.8,588.9,89.4z"/>
		<path style="fill:#A6BDBB;" d="M426.6,857c-14.5-1.6-30.4-3.9-43.9-9.8c-13.8-6-19.1-17.6-18.1-32.2c0.1-0.8,0.1-1.5,0.2-2.3
			c0.3-2.1,0.6-4.2,0.9-6.2c2.1-11.1,6.1-21.9,6.3-33.3c5.1-1.1,10.2-2.4,15.3-3.9c6-1.8,14-5.4,19.2-9.2c0.2-0.2-0.3-0.8-0.2-2.1
			c-9.8,1.1-20,0.8-29.9-1.8c-7.5-2-14.7-5.2-21.1-9.6c-0.1,0.5-0.1,0.9-0.2,1.4c-0.1,0.6-0.5,1-0.9,1.1c0,0-0.1,0.1-0.1,0.2
			c0.3,0.2,0.7,0.5,1,0.7c-0.1,0.1-0.2,0.3-0.2,0.5c-0.8,3.7-4.1,14.6,2,15.5c4.2,0.6,9.7-1.1,13.8-1.5c4.2-0.5,9-0.4,13.2-1.6
			c0.4,0.1,0.9,0.1,1.3,0.2c0.7,0.1,1.1-0.3,1.2-0.9c2.6,0.3,5.3,0.5,7.9,0.4c-2.4,0.8-4.8,1.7-7.2,2.3c-2.3,0.6-4.6,1.2-6.9,1.7
			c-8.7-0.2-18.1,1.5-26.6,2.9c-0.1,0-0.2,0.1-0.3,0.1c0,2.2-2.4,40.3-2.5,41.6c-0.4,8.5,0.1,27.1,0,27.7c-0.2,1.9,0.9,15.4,1,15.4
			c3.2,1.2,73.6,9,75.2,9.2c0,0,0.1-0.1,0.1-0.1c1.3-0.5,8.6-4.2,10.9-5.3C434.1,857.7,430.4,857.4,426.6,857z"/>
		<path style="fill:#A6BDBB;" d="M554.6,696.2c-0.2,0.1-0.3,0.2-0.5,0.3c-0.1,0.1-0.1,0.2-0.2,0.3c-0.5,0.6-1,1.1-1.6,1.7
			c0.4-0.5,0.8-1.1,1.2-1.6c-5.5,4-11.7,10.1-16.7,14.8c-6.5,6.1-11.8,12.1-20.3,15.2c-4.8,4.2-11.1,5.4-15.8,9.7
			c-4.2,1.6-7.2,3.2-11.5,5.5c-7.7,4.1-18,6-26.7,7.1c-1.5,0.2-1.6,2.3,0,2.4c16.2,0.9,44.1-10.9,63.5-21.4
			c-5.4,15-12.5,29.3-20.7,43c-5.1,8.4-10.6,16.4-16.7,24.1c-5,6.3-10.8,12.1-15.9,18.4c-1.3-0.6-3.1,0.8-2.8,2.5
			c0.1,0.3,0.1,0.6,0.2,0.9c-0.1,0.1-0.1,0.2-0.2,0.2c-0.7,0.9-0.2,2.1,0.7,2.7c0.9,5.5,1.5,10.9,1,16.6c-0.6,5.9-3.4,11.7-3.7,17.6
			c0.1-0.1,0.2-0.1,0.3-0.2c2.9-2.1,5.6-4.5,8.8-6c1-3.8,1.3-8,1.4-11.3c0.1-2.2,0-4.5-0.3-6.8c0.7,0.1,1.6-0.2,1.8-1
			c0.4-1.8,0.4-3.7,0.4-5.7c0.7-2,1.5-4.1,2.2-6.2c0.4-1.3-0.8-3.1-2.3-3c-0.1,0-0.3,0.1-0.4,0.1c4.9-4.8,9.2-10.3,13.3-15.5
			c6.1-7.8,11.9-16,16.9-24.6c0.3-0.6,0.7-1.2,1-1.7c5.2-5.6,9.4-12.3,12.9-19.5c0.4-0.2,0.8-0.6,1.1-1.1
			c5.2-10.3,10.6-20.5,16.1-30.6c0.3-0.6,0.3-1.2,0-1.7c1.6-1.1,2.9-2,3.9-2.9c1.6-4.7,4.7-8.4,7.2-12.6c2.1-3.6,3.5-7.5,5.3-11.2
			C556.6,695.1,555.6,695.6,554.6,696.2z"/>
		<path style="fill:#A6BDBB;" d="M352.1,857.6c-0.5-0.9-1-1.7-1.7-2.5c-0.1-0.8-0.3-1.7-0.4-2.6c0-0.1,0-0.1,0-0.2
			c0-13.3,0.1-26.7,0.1-40c0-1.8-1.3-2.6-2.6-2.5c0.2-3,0.4-5.9,0.7-8.9c1.3-17.2,2.8-34.4,3.2-51.6c0-1.2-1.9-1.5-2.1-0.3
			c-2.6,16.9-4,33.9-5.7,50.9c-1.4,14.3-2.8,28.5-4.1,42.8c-1.5-1.1-4-0.5-4.1,1.9c-0.1,2.9-0.3,5.7-0.5,8.6c-2.1-0.7-4.9,1.8-3.3,4
			c1.8,2.7,1.7,6.3-1.3,8.1c-1.8-1.7-3.5-3.3-5.3-4.9c-5.4-4.9-11.1-9.4-17.1-13.6c-12.8-8.9-27-15.8-41.9-20.6
			c-31.3-10-67.3-9.9-98.1,2.3c-6.3,1.3-12.8,4.5-18.5,7.7c-0.3-0.6-1.1-1-1.9-0.6c-6,3.1-11.3,7.2-16.9,10.9
			c-3.3,2.2-6.9,4.1-10.3,0.8c-2.2-2.2-3.3-5.4-5.3-7.8c-0.8-0.9-2.3-0.1-2.3,0.9c0,4.7,2.7,9.9,6.8,12.3c-0.2,0.4-0.4,0.8-0.5,1.3
			c-0.3,1.4,0,3.5,1.1,4.6c-0.3,0.4-0.5,0.8-0.7,1.2c-0.8,1.6,0.8,3.2,2.4,2.4c0.2-0.1,0.3-0.2,0.5-0.3c-0.4,9.9,9.7,19.9,17.4,24.3
			c13.4,7.6,30.2,10.5,45.2,13.2c29,5.1,60.4,7,89.6,1.4c4.8,0.4,9.6-1.2,14.2-2.6c5.8-1.8,11.5-3.9,17.1-6.2
			c5.1-2.1,10-4.4,14.9-6.8c3.6-1.8,9.4-3.7,11.4-7.5c1.2,1.3,2.5,2.6,3.8,3.8c2.5,2.3,6.7-0.7,4.8-3.7c-0.7-1.2-1.6-2.3-2.4-3.4
			c0.2-0.1,0.3-0.3,0.5-0.4c1.1,0.6,2.4,0.3,3.3-0.4c0.5,0.2,1,0.6,1.5,1.1c1.8,1.9,4.5-0.9,2.8-2.8c-0.8-1-1.6-2-2.2-3
			c1,0,2-0.4,2.7-1.3c1.4-1.9,1.8-4.3,1.2-6.4c0.5,0.2,1.1,0.1,1.4-0.3C351.1,861.3,352.9,859.3,352.1,857.6z M123.1,855
			c0-0.4,0.2-0.7,0.4-0.9c0.1,0,0.3,0,0.4,0.1C123.7,854.4,123.4,854.7,123.1,855z M166,866.8c0,1.3-0.2,2.5-0.8,3.7
			c-2.9,5.6-10.5,4.4-13.8,0.1c-0.9-0.1-1.8-0.6-2.2-1.7c-1.2-3.5-0.6-7.4,1.4-10.3c-0.4-0.7-0.4-1.5,0-2.3c1.1-2.4,4-3.4,6.5-3.3
			c2.4,0.2,4.3,1.5,5.6,3.5c1.9,1,3.3,3.4,3.7,5.1C166.8,863.4,166.6,865.2,166,866.8z M236.8,837.5c0.9-0.5,1.9-0.8,3.1-0.8
			c0.1,0,0.3,0,0.4,0c3.2-1.5,6.6-0.4,8.5,2.9c1.6,2.9,1.1,6,0,8.9c-1.1,2.9-3.3,6.7-6.1,8.3c-0.2,0.5-0.5,0.9-1,1.2
			c-6.3,3.8-11.6-1.5-12.4-7.8C228.8,845.8,231.7,838.1,236.8,837.5z M188.6,846.9c1.4-4.8,6-10.2,11.4-7.5c0.9,0.4,1.3,1.2,1.3,1.9
			c0.5,0.2,1,0.4,1.5,0.7c5.4,3.3,5,13.2,1,17.4c-3.2,3.4-7.1,2.9-9.9,0.6C189,857.6,186.9,852.4,188.6,846.9z M279.4,890.1
			c-0.4,4.9-6.2,7.8-10.1,9.5c-7.3,3.1-15.6,3.5-23.5,3.5c-8.9,0-18.1,0.2-27-0.7c-9-0.9-17.8-2.6-26.7-4.3
			c-7.1-1.3-15.5-1.1-22-4.3c-0.4-0.2-0.7-0.5-0.9-0.8c-0.9-0.9-1.4-2.4-0.3-3.7c6.4-8,16.8-11.8,26.8-11.5
			c5.4,0.1,11.5,0.7,16.4,3.1c3.4,1.6,8.2,7,12.3,6.5c0.2-0.1,0.3-0.2,0.6-0.3c14.5-5.5,28.3-12.6,44-7.1
			C273.2,881.6,279.8,884.5,279.4,890.1z M288.5,860.4c-2.5,5.3-10,9.7-15.8,7.9c-6.2-1.9-6-8.8-3.6-13.6c2.9-5.6,7.7-7.4,13.7-7.5
			c1.6,0,2.4,1.2,2.4,2.4c1.3,0.6,2.6,1.3,3.4,2.6C290.1,854.7,289.7,857.9,288.5,860.4z"/>
		<path style="fill:#A6BDBB;" d="M256.9,776.7c-8.6-4.5-19.8-5.5-29.3-6.6c-10.9-1.2-21.8-1.5-32.7-0.9c-10.2,0.6-20.4,2.1-30.4,4.5
			c-9.2,2.2-19.6,4.7-28.1,9.5c5.8-11.9,7-26.3,6.8-39.3c-0.1-6.6-0.7-13.3-1.9-19.8c-1-5.2-2.1-11-4.3-16.1
			c0.9,0.7,1.7,1.5,2.6,2.2c0.1-1.5,1.4-1.4,1.8-2.8c-10.2-11.1-19.8-25.4-27.8-39c22.5,5.4,99.1,15.7,141.2,19.4
			c-1.4-0.9-2.6-2-3.8-3.1c-3.3-1.8-6.6-3.7-9.8-5.7c-10.5-0.8-21.1-1.6-31.6-3.1c-34-4.8-67.7-9.2-100.8-16.1
			c-5.9-11-10.8-20.9-14.1-31c-9.5-28.9-11.2-59-6.8-89c4.6-31.5,14.6-62,24.8-92.1c6-17.8,12.1-35.5,17.9-53.3
			c2.9-8.9,5.8-17.9,8.6-26.8c2.8-9,6.4-17.8,8.1-27c0.1-0.7-0.9-1.3-1.3-0.5c-3.9,7.4-6.2,15.4-9.3,23.2c-3.2,8-6.3,16-9.3,24
			c-6,16.1-11.8,32.2-17.6,48.3c-11.1,30.9-22.6,62-28.7,94.4c-5.8,30.8-6,62.6,2.5,92.9c7.3,25.7,20.1,49.8,37.7,69.8
			c0.7,0.4,1.4,0.9,2,1.4c2,1.6,3.5,3.5,5,5.5c-0.2,2.3-0.2,4.6,0,6.9c-0.1,0.2-0.1,0.4-0.1,0.6c0.2,2.1,0.8,4.2,1.5,6.3
			c0.6,1.9,1.2,3.8,2,5.6c0.5,1.1,1.5,1.5,2.5,1.3c0.2,1.2,0.5,2.3,0.6,3.5c1,6.6,1.6,13.2,1.7,19.9c0.2,13.1-2.6,25.6-4.1,38.5
			c-0.1,1.2,0.9,2,2,2c-0.1,0.1-0.2,0.1-0.3,0.2c-1.4,0.9-0.5,3.2,1.2,2.8c9.7-2.2,19-6.4,28.8-8.7c10.4-2.5,21-4.2,31.7-4.9
			c10-0.7,20.1-0.5,30.1,0.5c5.4,0.5,10.7,1.4,16.1,2.3c4.8,0.9,9.5,2.3,14.3,2.6C257.5,779.3,258,777.3,256.9,776.7z"/>
		<path style="fill:#C5D6D5;" d="M245.9,679.6c2.7,3.1,6.2,4.6,10.3,6.3c2.3,0.9,4.6,1.8,7,2.7c3.5,0.2,7,0.4,10.5,0.5
			c61.7,2.6,139,5.3,199.7-5.7c13.6-2.5,27.2-5.3,40.7-8.4c0.7-0.7,1.3-1.5,2-2.2c2.3-2.6,5-5.2,6.8-8.2
			C470.5,681.6,289.4,682.8,245.9,679.6z"/>
		<path style="fill:#A6BDBB;" d="M590.7,519.5c-5.9-32-16.1-63-26.5-93.7c-10.5-30.8-21.4-61.6-30-93c-1.1-3.9-2.1-7.7-3.1-11.6
			c-0.6-2.2-3.6-1.2-3.3,0.9c5.1,31.7,15.5,62.3,25.7,92.7c10.1,30.2,20.3,60.4,26.7,91.7c6.4,31.1,9.2,63.4,4.5,94.9
			c-2.6,17.3-7.5,34-14.4,50c-15.3,4.6-30.7,8.9-46.3,12.8c-1.8,3.5-4.8,6.3-7.4,9.3c-0.3,0.4-0.7,0.8-1,1.1
			c16.9-4,33.7-8.5,50.2-13.7c-2.2,4.4-4.5,8.8-6.9,13c-7.2,12.5-16,24.6-25.8,35.2c-1.2,1.3-2.4,2.6-3.7,3.8
			c3.9-2.6,7.5-5.6,10.7-9.2c4.5-5.1,8.7-9.9,14.7-13.2c2.4-1.3,4.7-3.3,7-5.1c14.3-21.6,24.5-45.7,29.7-71.1
			C598.1,582.9,596.4,550.8,590.7,519.5z"/>
		<path style="fill:#C5D6D5;" d="M497.5,634.6c-17.1,2-34,4.3-51.2,5.5c-17.2,1.3-34.3,1.1-51.5,1.2c-34.4,0.2-68.7-1.2-102.9-5.5
			c-20.1-2.5-40.1-5.5-59.9-10c-0.9-0.2-1.3,1.2-0.4,1.4c33.9,8.5,68.1,15.5,103,18.5c17.5,1.5,35,2.6,52.5,2.6
			c17.6,0,35-1.9,52.5-3.5c19.4-1.8,39.1-4.2,58.1-8.4C498.8,636.2,498.6,634.5,497.5,634.6z"/>
		<path style="fill:#C5D6D5;" d="M507.5,120.9c-3.2-7.8-6-15.9-6.3-24.4c-0.3-8.4,1.9-15.7,5.7-23.1c0.8-1.6-1-4.1-2.8-2.8
			c-3.5,2.6-6,6-7.7,9.8c-4.8,2.8-6.3,11.6-6.9,16.5c-0.9,7-0.4,14.2,1.3,21.1c1.8,7.2,4.9,14.2,8.5,20.8
			c3.6,6.6,7.9,14.1,13.4,19.3c0.1,0.1,0.2,0.2,0.4,0.3c0.6,3.2,1.1,6.5,1.3,9.9c0.3,3.2,5.6,4.5,6.1,0.8
			C523,152.2,513.6,135.9,507.5,120.9z"/>
		<path style="fill:#C5D6D5;" d="M187.4,87.4c-1.1-3.4-2.6-6.5-4.7-9.4c-2.4-3.3-4.3-4.2-7.9-5.6c-0.6-0.2-1.1-0.1-1.6,0.1
			c-2-1.4-4,0.9-3.7,2.8c0.6,4.1,2.6,7.9,3.8,11.8c1.1,3.7,1.9,7.4,2.2,11.2c0.6,7.9-0.4,16.2-3.3,23.7c-6,15.2-21.6,29.2-18.7,46.9
			c0.6,3.5,5.6,2.4,5.8-0.8c0.3-5,1.4-9.4,3-13.6c0.8,0,1.5-0.3,2.2-1.1c10.5-13.1,22-27.4,24.6-44.6
			C190,101.7,189.6,94.2,187.4,87.4z"/>
		<path style="opacity:0.6;fill:#979CAD;" d="M381.3,138.4c-3.8-6.9-11-11.2-17.8-15c-14.7-8.1-32.1-8.2-47.7-2.7
			c-8.3,2.9-5,17.1,3.8,15.2c11.4-2.4,23.6-0.4,33.6,5.9c4.3,2.7,7.9,6.3,11.4,10c2,2.1,10.3,9,13.1,9.9
			C384,163,388.8,152,381.3,138.4z"/>
	</g>
	<g id="lines_1_">
		<g>
			<g>
				<path style="fill:#31343B;" d="M8.3,471.4C-3.3,515-6.9,570,25.6,605.9c1.3,1.4,3.7-0.5,2.6-2C0.9,566,3.5,516.3,15.2,473.3
					C16.5,468.8,9.5,466.9,8.3,471.4L8.3,471.4z"/>
			</g>
		</g>
		<g>
			<g>
				<path style="fill:#31343B;" d="M142.1,274.4c-32.9,39.4-75.4,69.7-104.5,112.4c-2,3,2.8,5.7,4.8,2.8
					c15.2-21.5,33.7-40.1,52.8-58.3c17.8-17,36.3-33.8,50.8-53.9C147.7,275.2,143.9,272.3,142.1,274.4L142.1,274.4z"/>
			</g>
		</g>
		<g>
			<g>
				<path style="fill:#31343B;" d="M29.3,605.1c-0.6-2.4,0.4-5.3,2.1-6.9c-1.4-0.4-2.7-0.7-4.1-1.1c2.9,8.6,9.8,15.8,17.7,20.1
					c2.1,1.1,4.3-0.7,3.8-2.9c-0.7-3.2-1.5-6.3-2.4-9.5c-1.2,0.7-2.5,1.5-3.7,2.2c5.4,4.4,10.3,8.4,16.9,11.1c6.6,2.7,13.6,4,20.7,4
					c3.5,0,3.5-5.4,0-5.4c-12-0.1-25.9-4.1-34.5-12.9c-1.7-1.8-4,0.1-3.7,2.2c0.5,3.2,1,6.5,1.7,9.7c1.3-1,2.6-2,3.8-2.9
					c-7.6-4.2-11.9-10-15.8-17.5c-0.9-1.7-3.3-1.5-4.2,0c-2.5,3.7-1.9,7.3,0.8,10.5C28.7,606.1,29.4,605.6,29.3,605.1L29.3,605.1z"
					/>
			</g>
		</g>
		<g>
			<g>
				<path style="fill:#31343B;" d="M28.5,604c1,21.6,4.8,43.7,21.1,59.3c13.6,13,35.8,16,53.2,9.4c3-1.1,1.7-5.9-1.3-4.8
					c-15.9,5.9-37.4,3.7-49.2-9.3C38.9,643.6,37.7,623,36.5,604C36.1,598.9,28.2,598.8,28.5,604L28.5,604z"/>
			</g>
		</g>
		<g>
			<g>
				<path style="fill:#31343B;" d="M47.1,611.4c0.5,8.3,2.7,16.7,4.6,24.8c1.5,6.3,3.3,13.2,8,17.9c8.7,9,23.9,5.9,34.8,3.5
					c3.9-0.9,2.3-6.9-1.7-6c-9.5,2-23.7,5.1-30.1-4.3c-3.2-4.8-4.6-10.9-6.3-16.3c-2-6.6-3.6-13.5-6.1-20
					C49.7,609.4,47,609.4,47.1,611.4L47.1,611.4z"/>
			</g>
		</g>
		<g>
			<g>
				<path style="fill:#31343B;" d="M141.4,329.6c-12.7,55.2-40,105.4-56.5,159.4c-8.1,26.2-13.6,53.5-13.3,81.1
					c0.3,24.9,5.6,49.6,15.3,72.5c10.9,26,27.5,49.6,48.5,68.4c3.4,3.1,8.5-2,5.1-5.1c-36.9-33.7-59.7-81.2-61.5-131.4
					c-2-55,20.2-106.7,39.6-157c10.9-28.3,21.1-56.8,26.6-86.8C145.7,328.2,142,327.1,141.4,329.6L141.4,329.6z"/>
			</g>
		</g>
		<g>
			<g>
				<path style="fill:#31343B;" d="M531.2,318.9c2.5,34,15.9,66.5,28.5,97.7c12.9,32.1,25.4,64.1,31,98.4
					c10.7,64.6-1.5,133.8-46.7,183.2c-22.2,24.3-50.4,41.4-82.2,49.8c-2.4,0.6-1.3,4,1,3.6c58.3-8.8,104.7-57.7,124.8-111
					c12.6-33.4,16.1-69.9,12.8-105.3c-3.3-35.9-13.7-70-27-103.3c-7.3-18.4-15.1-36.7-22-55.3c-7.1-19.1-12.6-38.4-16.6-58.4
					C534.5,316.3,531,316.7,531.2,318.9L531.2,318.9z"/>
			</g>
		</g>
		<g>
			<g>
				<path style="fill:#31343B;" d="M352,770.4c18.4-1.7,36.5-4.4,54.2-10c1.6-0.5,0.9-2.8-0.7-2.4c-17.6,3.7-35.5,6.5-53.5,6.7
					C348.3,764.7,348.4,770.7,352,770.4L352,770.4z"/>
			</g>
		</g>
		<g>
			<g>
				<path style="fill:#31343B;" d="M357.5,767.7c0.3-0.3,0.5-0.7,0.8-1c0.5-0.7-0.3-1.5-0.9-0.9c-0.3,0.3-0.7,0.5-1,0.8
					C355.6,767.2,356.8,768.5,357.5,767.7L357.5,767.7z"/>
			</g>
		</g>
		<g>
			<g>
				<path style="fill:#31343B;" d="M356.9,769.7c3.2,0,3.2-5,0-5C353.7,764.6,353.7,769.7,356.9,769.7L356.9,769.7z"/>
			</g>
		</g>
		<g>
			<g>
				<path style="fill:#31343B;" d="M480.6,805.7c-0.4,18.5-4,37.9-11.2,55c2.3,0.3,4.7,0.6,7,1c0.2-3.6,0.4-7.2,0.6-10.7
					c0.2-3.8-5-4.8-6.8-1.9c-3.7,6-7.9,9.5-13.9,13c1.5,1.5,3,3,4.6,4.6c1.3-2.6,2-5.3,3.4-7.8c1.5-2.7-1-5.5-3.8-5
					c-34.2,7-68.9,6.7-102.5-3.3c-5.7-1.7-8.2,7.4-2.5,9c34.7,9.6,71.9,10.5,106.7,0.8c-1.3-1.7-2.5-3.3-3.8-5
					c-1.3,2.6-2,5.3-3.4,7.8c-1.7,3,1.6,6.1,4.6,4.6c7.4-3.9,12.5-7.8,16.9-15.1c-2.3-0.6-4.6-1.2-6.8-1.9
					c-0.1,3.6-0.3,7.2-0.4,10.7c-0.2,4.3,5.6,4.5,7,1c3.8-9.4,7-18.4,8.9-28.4c1.8-9.4,2.7-19,2.7-28.5
					C487.9,801,480.7,801,480.6,805.7L480.6,805.7z"/>
			</g>
		</g>
		<g>
			<g>
				<path style="fill:#31343B;" d="M226.6,627.4c33.9,12.3,69.6,20.2,105.5,23.9c35.8,3.7,71.2,2.3,106.9-2.7
					c20.6-2.9,40.9-7,61-12.6c1.1-0.3,0.6-1.9-0.5-1.7c-69.7,15.5-143.1,17-213.5,4.7c-19.8-3.5-39.5-8.2-58.8-13.6
					C225.9,625.2,225.4,627,226.6,627.4L226.6,627.4z"/>
			</g>
		</g>
		<g>
			<g>
				<path style="fill:#31343B;" d="M315.4,353.1c-0.4-3.2-1.8-5.6-3.6-8.2c-0.9,0.9-1.8,1.8-2.6,2.6c2,1.5,4.2,2.8,6.3,4.2
					c1.4,0.9,3.6-0.3,3.4-2c-0.5-4.7,0.1-9,2.1-13.3c-1.1,0.3-2.2,0.6-3.2,0.8c3.7,2,7,4.6,9.4,8.1c2.1,3,2.7,6.7,4.8,9.5
					c0.8,1.1,3.1,1.3,3.3-0.4c1.4-8.5-8.5-17.5-15.1-21.3c-1-0.6-2.7-0.3-3.2,0.8c-2.3,5.1-3.3,10.2-2.6,15.7c1.1-0.7,2.3-1.3,3.4-2
					c-2.2-1.2-4.4-2.5-6.7-3.6c-1.8-0.9-4.2,1.6-2.3,3c2.2,1.8,3.4,3.9,4.3,6.5C313.6,355.2,315.6,354.6,315.4,353.1L315.4,353.1z"
					/>
			</g>
		</g>
		<g>
			<g>
				<path style="fill:#31343B;" d="M336.9,354.2c2.1-3,4-6.1,5.9-9.1c-1.1-0.5-2.3-1-3.4-1.4c-0.5,2.6-0.6,5.2-0.7,7.8
					c-0.1,2,2.5,2.8,3.8,1.6c4.7-4.4,10.4-6.8,16.8-7.1c-0.4-1.4-0.8-2.9-1.2-4.3c-2.9,1.9-5,4.2-6.6,7.3c-1,1.9,0.6,3.8,2.6,3.4
					c5.9-1.2,12-2,17.6-4.5c1.3-0.6,0.6-2.5-0.7-2.5c-6.1-0.2-12.2,1.4-18.1,2.6c0.9,1.1,1.8,2.3,2.6,3.4c1.2-2.4,2.6-4.1,4.9-5.6
					c1.8-1.2,1.3-4.5-1.2-4.3c-7.7,0.4-14.4,3.3-20,8.6c1.3,0.5,2.5,1.1,3.8,1.6c0.1-2.5,0.2-4.9-0.1-7.3c-0.2-1.7-2.4-2.7-3.5-0.9
					c-1.8,3.1-3.7,6.2-5.4,9.4C333.3,354.4,335.8,355.8,336.9,354.2L336.9,354.2z"/>
			</g>
		</g>
		<g>
			<g>
				<path style="fill:#31343B;" d="M312.3,348.5c-32.6,3.7-64.5,18.2-91.9,35.6c-39,24.8-71.2,59.9-89,102.9
					c-13.1,31.7-15.3,66.1-1,97.8c13.3,29.4,37.8,52.5,64,70.6c27.7,19.2,58.6,33.8,90.2,45.6c24.7,9.2,50.2,16.9,76.2,21.6
					c31.7,5.7,64.7-1.7,94.8-12c23.8-8.1,45.6-19.5,63.4-37.5c19-19.2,32.5-43.5,40.1-69.3c15.9-53.6,6-113.5-24.8-160
					c-30-45.2-78.8-76.5-130.8-90.3c-13.1-3.5-26.4-5.4-40-5.6c-3.7-0.1-3.4,5,0,5.5c27,3.6,54,9.2,79,20.4
					c24.2,10.9,46.3,26,65,44.9c38.9,39.2,59.3,94.3,54.4,149.4c-4.8,53.4-34.3,105.6-83.7,129.2c-21.5,10.3-45.1,16.7-68.6,20.6
					c-12.9,2.2-26,3.7-38.9,1.8c-22.3-3.2-44.4-9.7-65.7-16.7c-30.2-10-59.8-22.5-87.3-38.6c-27.2-15.9-53.5-35.8-71.6-62
					c-17.9-25.9-24.9-56.7-18.1-87.6c9.6-43.3,38.4-81.4,72.4-108.7c27.9-22.4,61.1-39.6,95.7-48.8c5.6-1.5,11.2-2.7,16.9-3.5
					C315.9,353.3,315.3,348.2,312.3,348.5L312.3,348.5z"/>
			</g>
		</g>
		<g>
			<path style="fill:#31343B;" d="M345.8,115.6c-10.7-6.3-25.1,0.6-34.1,6.6c-13.2,8.8-24.8,31-28.7,47.1
				c-11.3,46-6.1,99.1,56.8,101.4c61.4,2.3,71.6-48,62.4-93.6c-3.8-18.6-16.2-47.1-32.3-57.1c-15.1-9.4-37.2-13.2-52.1-2.1
				c-2.3,1.7,0.2,5.5,2.9,4.6c94.5-32.7,109,164.2,6.9,140.8c-64-14.7-53.8-149.6,17.5-145.1C346.5,118.2,346.9,116.3,345.8,115.6
				L345.8,115.6z"/>
		</g>
		<g>
			<g>
				<path style="fill:#31343B;" d="M238.7,57.5c-23.7-2.9-43.3-18.7-66.4-23.7c-22.5-4.8-45.3,3.1-62,18.6
					C93.7,67.8,83.8,89.9,79.6,112c-4.1,21.9-2.6,45.7,8.9,65.2c11.3,19.2,35.2,34.6,58.1,30.6c3.5-0.6,2.5-6-0.8-6
					c-20.1-0.3-38.8-8.8-49.9-26.1c-11.6-18.2-13.4-41-9.6-61.8c3.8-20.5,12.5-40.9,27.6-55.6c15.8-15.4,38-22.9,59.8-17.6
					c22.4,5.4,41.7,19.5,65,21.9C241.9,62.8,241.9,57.9,238.7,57.5L238.7,57.5z"/>
			</g>
		</g>
		<g>
			<g>
				<path style="fill:#31343B;" d="M431.8,62c21,1.6,39-8.9,58-16.4c9.9-3.9,20.2-7,30.9-6.8c11.3,0.3,22.3,4,31.9,9.9
					c18.8,11.7,30.6,31.6,36.7,52.5c6.2,21,7.3,44.9-1.7,65.3c-9.9,22.4-30.8,34.9-54.8,35.3c-3.3,0-4.3,5.4-0.8,6
					c20.9,3.6,42.8-8.9,54.8-25.4c13.8-18.9,16.4-43.8,13-66.3c-3.5-23-13.3-46.2-30.2-62.5c-16.8-16.3-40.4-24.7-63.6-19.6
					c-25.4,5.6-47.3,24.3-74,24.5C429.4,58.4,429.5,61.8,431.8,62L431.8,62z"/>
			</g>
		</g>
		<g>
			<g>
				<path style="fill:#31343B;" d="M228.8,69.3c6.2-1,12.3-5.7,18.1-8.2c6.5-2.8,13.2-5.2,20.1-7.2c12.9-3.8,28-7.8,41.5-6.7
					c6,0.5,5.4-10.1-1.2-8.5c-7.1,1.7-14.5,2.1-21.6,3.6c-7.2,1.5-14.3,3.6-21.2,6c-6.3,2.2-12.6,4.7-18.6,7.6
					c-5.9,2.8-14.4,5.8-18.5,10.9C226.3,68,227.2,69.6,228.8,69.3L228.8,69.3z"/>
			</g>
		</g>
		<g>
			<g>
				<path style="fill:#31343B;" d="M336.1,48.6c-5.6-0.7-10.6,0.3-16-2.1c-4.8-2.2-8.8-6.2-10.3-11.4c-3.4-11.4,5.3-21.7,12.5-29.5
					c-1.7-1.3-3.4-2.6-5.1-4c-8,12.2,6.6,22,16.8,24.8c7.7,2.1,15.6,2.9,23.3,5.3c7.7,2.4,18.9,8.5,14.9,18.4
					c-0.3,0.8,0.9,1.2,1.4,0.6c7.1-10.8-7.9-19.5-16.2-22.4c-7.3-2.5-14.9-3.7-22-6.6c-6-2.5-17.4-8.8-12.5-16.8
					c1.9-3.1-2.7-6.8-5.1-4c-8.6,10.1-18.1,23.7-11.8,37.4c2.5,5.6,7.3,9.3,12.9,11.4c5,1.9,13,3.4,17.7-0.1
					C336.8,49.4,336.7,48.7,336.1,48.6L336.1,48.6z"/>
			</g>
		</g>
		<g>
			<g>
				<path style="fill:#31343B;" d="M311,40.6c-3.7-5.6-8.1-10.7-12.3-15.9c-1.6-2-4.8,0.6-3.5,2.7c1.6,2.7,3.3,5.2,5,7.9
					c0.7-1.2,1.4-2.4,2.1-3.6c-5.8-0.1-11.5-0.2-17.3-0.3c-2.5,0-3.3,3.3-1.2,4.6c5.2,3.1,10.8,8.2,16.7,9.6
					c1.7,0.4,2.6-1.5,1.6-2.8c-3.8-4.7-10.8-7.7-15.8-11.1c-0.4,1.5-0.8,3.1-1.2,4.6c5.8,0.1,11.5,0.1,17.3,0.2
					c1.7,0,3.1-2.1,2.1-3.6c-1.7-2.6-3.5-5.2-5.3-7.7c-1.2,0.9-2.4,1.8-3.5,2.7c4.3,4.9,8.5,10,13.2,14.5
					C309.9,43.5,312,42,311,40.6L311,40.6z"/>
			</g>
		</g>
		<g>
			<g>
				<path style="fill:#31343B;" d="M373.6,41.5c-0.3-3.2,0-5.8,2-8.4c-1.2-0.3-2.3-0.6-3.5-0.9c0.4,3.4,0.9,6.8,1.4,10.2
					c0.3,1.7,2.4,1.7,3.4,0.9c6.3-4.9,12.5-4.8,19.9-6.1c1.7-0.3,1.2-2.5,0-3c-7.5-2.9-16.9,1.5-22.8,6.1c1.1,0.3,2.3,0.6,3.4,0.9
					c-0.5-3.2-1.1-6.4-1.7-9.6c-0.3-1.7-2.6-1.6-3.4-0.4c-2.3,3.2-3.1,6.9-1.7,10.7C371.2,43.4,373.7,43.4,373.6,41.5L373.6,41.5z"
					/>
			</g>
		</g>
		<g>
			<g>
				<path style="fill:#31343B;" d="M444.8,64.4c-4.7-4.8-11.1-7.9-17-10.8c-5.9-2.9-12-5.5-18.1-7.8c-6.5-2.4-13-4.5-19.7-6.3
					c-3.8-1-13.5-5.2-15.7,0.3c-2.3,5.6,5.6,6.5,9.1,7c6.8,1.1,13.5,2.7,20.2,4.6c7.2,2.1,14.2,4.7,21.1,7.6
					c6.2,2.7,12.2,6.3,18.7,8.1C444.8,67.7,446,65.6,444.8,64.4L444.8,64.4z"/>
			</g>
		</g>
		<g>
			<g>
				<path style="fill:#31343B;" d="M335,278.7c38.7,13.5,83.1-7.3,103.5-41.3c2.9-4.9-4.8-9.4-7.7-4.5c-8.7,15-21.4,27.5-36.8,35.6
					c-17.9,9.4-38.7,10.5-58.4,7.8C334.1,276.2,333.4,278.2,335,278.7L335,278.7z"/>
			</g>
		</g>
		<g>
			<g>
				<path style="fill:#31343B;" d="M263,159.7c0.3-14.4-15.9-23.3-28.7-19.6c-14.6,4.3-21.9,20.2-17.4,34.4
					c4.2,13.2,17.8,21.6,30.8,14.8c14.1-7.3,16.5-24.7,11.2-38.3c-0.6-1.5-2.8-1-2.4,0.7c2.1,11,2.2,24.5-7.8,31.7
					c-10.3,7.4-21.9,1.5-25.7-9.7c-3.6-10.6,0.7-23,11.6-27.1c11.2-4.2,20.8,3.2,23.8,13.8C259.1,162.9,263,162.4,263,159.7
					L263,159.7z"/>
			</g>
		</g>
		<g>
			<g>
				<path style="fill:#31343B;" d="M519.2,187.5c5.4,16.2,15.6,32.6,28.9,43.6c0.6-2.1,1.1-4.2,1.7-6.4c-3.2,0.6-6.3,1.2-9.5,2
					c-2,0.5-3.5,3.4-2.1,5.2c3.3,4.4,7.2,7,12.8,7.4c-0.5-1.8-1-3.6-1.5-5.4c-5.7,4.1-11.5,8.2-17.2,12.3c-2.5,1.8-1.1,6.4,2.2,5.3
					c2-0.7,3.9-1.4,5.9-2c-1.2-1.2-2.4-2.4-3.5-3.5c-10.8,31.2-39.3,54.7-70.3,63.7c-1.5,0.4-1.3,3,0.4,2.8
					c16.3-1.7,31.3-9.6,43.6-20.1c14.3-12.3,23.4-27.5,31.6-44.1c1-2.1-0.7-5.1-3.2-4.2c-2,0.7-3.9,1.4-5.9,2
					c0.7,1.8,1.5,3.5,2.2,5.3c5.7-4.1,11.5-8.1,17.3-12.2c1.8-1.3,2-4.9-0.7-5.3c-3.4-0.6-5.6-2.3-7.4-5.2c-1,1.8-2,3.6-3.1,5.3
					c3.5-0.4,7-1,10.6-1.6c2.8-0.5,3.7-4.6,1.7-6.4c-6-5.5-11.7-11.2-17-17.4c-5.8-6.8-10.1-14.3-14.5-22
					C521.1,184.9,518.7,185.9,519.2,187.5L519.2,187.5z"/>
			</g>
		</g>
		<g>
			<g>
				<path style="fill:#31343B;" d="M280.3,123.1c1.2-8.6-14.9-11.9-21.2-12.5c-9.5-0.8-18.6,2-26.1,7.8c-1.2,0.9,0.3,2.6,1.5,2
					c7.5-3.7,16.2-4.8,24.4-3c3.8,0.9,7.5,2.3,11,4.2c2.8,1.6,5.1,4.4,8.5,3.3C279.3,124.7,280.2,124,280.3,123.1L280.3,123.1z"/>
			</g>
		</g>
		<g>
			<path style="fill:#31343B;" d="M238.6,156.1c-8.3,1.4-14,11.3-11.1,19.2c2.9,7.9,13.7,11.7,20.9,7.3c7.2-4.3,8.9-15.6,3.3-21.9
				c-3.3-3.7-8.8-5.5-13.6-4.2c-4.8,1.3-8.7,5.8-9,10.8"/>
			<g>
				<path style="fill:#31343B;" d="M238.3,155c-9.7,2-16.3,13-11.8,22.3c4.3,8.8,17.1,12,24.8,5.7c7.8-6.5,7.9-19.6-0.2-25.8
					c-8.5-6.5-24.1-2.2-23,10.1c0.1,1.2,1.8,1.5,2.2,0.3c3.2-9,15.2-13.5,21.1-3.9c3.3,5.4,1.6,13.8-3.9,17.2
					c-6,3.7-14.8,0.8-17.9-5.3c-3.7-7.3,1.9-16.6,9.4-18.4C240.3,156.8,239.7,154.7,238.3,155L238.3,155z"/>
			</g>
		</g>
		<g>
			<g>
				<path style="fill:#31343B;" d="M423.3,160.4c3-10.3,12.1-17.7,23.2-14c11.3,3.8,16,16.4,12.3,27.3
					c-3.7,10.7-14.6,16.9-24.8,10.4c-10.8-6.9-10.8-21-8.7-32.3c0.3-1.6-1.9-2.2-2.4-0.7c-5.3,13.6-2.9,31,11.2,38.3
					c13,6.7,26.7-1.7,30.8-14.8c4.5-14.2-2.8-30.1-17.4-34.4c-12.8-3.8-29,5.2-28.7,19.6C418.7,162.4,422.6,162.9,423.3,160.4
					L423.3,160.4z"/>
			</g>
		</g>
		<g>
			<g>
				<path style="fill:#31343B;" d="M403.2,125c3.4,1.2,5.7-1.7,8.5-3.3c3.4-1.9,7.1-3.4,11-4.2c8.2-1.8,16.9-0.8,24.4,3
					c1.2,0.6,2.7-1.1,1.5-2c-7.5-5.8-16.6-8.6-26.1-7.8c-6.2,0.5-22.4,3.8-21.2,12.5C401.5,124,402.4,124.7,403.2,125L403.2,125z"/>
			</g>
		</g>
		<g>
			<path style="fill:#31343B;" d="M443.1,156.1c8.3,1.4,14,11.3,11.1,19.2s-13.7,11.7-20.9,7.3c-7.2-4.3-8.9-15.6-3.3-21.9
				c3.3-3.7,8.8-5.5,13.6-4.2c4.8,1.3,8.7,5.8,9,10.8"/>
			<g>
				<path style="fill:#31343B;" d="M442.8,157.1c7.5,1.8,13,11,9.4,18.4c-3,6.2-12,9-17.9,5.3c-5.5-3.5-7.1-11.7-3.9-17.2
					c5.7-9.7,17.9-5.1,21.1,3.9c0.4,1.2,2.1,1,2.2-0.3c1.1-12.3-14.5-16.6-23-10.1c-8.1,6.2-8,19.3-0.2,25.8
					c7.6,6.3,20.5,3.2,24.8-5.7c4.5-9.3-2.1-20.3-11.8-22.3C442,154.7,441.4,156.8,442.8,157.1L442.8,157.1z"/>
			</g>
		</g>
		<g>
			<g>
				<path style="fill:#31343B;" d="M156.4,179.5c5-13.1,12.3-24.2,20.4-35.6c7.4-10.5,14.9-21.9,17.9-34.5
					c2.6-11.2,1.8-23.7-5.1-33.2c-5.5-7.6-15.9-14.4-25.8-12.2c-2.3,0.5-2.1,3.9,0,4.5c4.9,1.3,8.9,2.3,13,5.5
					c3.8,3,6.9,6.8,8.9,11.1c4.9,10.5,3.1,23.6-1,34.1c-8,20.8-26.3,37.4-30.7,59.7C153.7,180.5,155.9,181,156.4,179.5L156.4,179.5z
					"/>
			</g>
		</g>
		<g>
			<g>
				<path style="fill:#31343B;" d="M173.5,70.5c-12.6-4.5-28.3,4.4-37,12.9c-10,9.6-16.6,23.1-19.1,36.6c-2.5,13.2-1,27.5,7.1,38.6
					c7.2,9.9,19.3,15.6,31.6,14.3c2.1-0.2,2.2-3.5,0-3.4c-11.6,0.4-23.3-5.8-28.8-16.2c-5.5-10.4-4.9-23.3-2.1-34.4
					c2.8-11,7.9-21.5,16-29.6c4.2-4.2,9.1-7.7,14.5-10.1c5.8-2.6,11.8-3.3,17.8-5.2C175.3,73.4,175.2,71.1,173.5,70.5L173.5,70.5z"
					/>
			</g>
		</g>
		<g>
			<g>
				<path style="fill:#31343B;" d="M520.9,177.9c-3.6-21.9-21.3-38.4-28.4-59c-3.6-10.3-5-22.9,0.5-32.8c2.2-4,5.3-7.4,9-10
					c4.3-3,8.6-3.9,13.6-5c2.2-0.5,2.1-3.9,0-4.4c-9.2-2.4-19.7,3.2-25.5,10.1c-7.5,8.9-9.1,20.9-7,32c2.3,12.3,9.3,23.5,16.1,33.8
					c7.7,11.5,14.8,22.7,19.4,35.9C519.1,180,521.2,179.4,520.9,177.9L520.9,177.9z"/>
			</g>
		</g>
		<g>
			<g>
				<path style="fill:#31343B;" d="M505.7,76.1c5.3,1.9,10.9,2.8,16.1,5.2c5.4,2.5,10.3,5.8,14.5,10c8.3,8.2,13.3,19.1,15.9,30.4
					c2.4,10.7,2.3,23.2-3.5,32.8c-6.1,9.9-18,15.1-29.5,14.3c-1.9-0.1-2.3,3-0.4,3.3c12,1.8,24.3-2.5,32.1-11.9
					c8.6-10.2,10.9-23.8,9-36.8c-2-13.6-8.1-26.9-17.7-36.7c-8.5-8.7-23.8-17.8-36.5-13.9C503.9,73.2,504.1,75.5,505.7,76.1
					L505.7,76.1z"/>
			</g>
		</g>
		<g>
			<g>
				<path style="fill:#31343B;" d="M467.7,300.2c-3.3,3.1-7.1,5.6-11,7.9c-3.3,1.9-7.5,3-10.1,5.8c-0.7,0.8-0.5,2.4,0.7,2.6
					c8.5,1.5,17.9-8,22.9-13.8C471.6,301,469.4,298.7,467.7,300.2L467.7,300.2z"/>
			</g>
		</g>
		<g>
			<g>
				<path style="fill:#31343B;" d="M449.6,306.3c-4.8,2.8-9.5,5.4-13.6,9.2c-1.4,1.3,0.4,3.2,1.9,2.5c4.9-2.3,9-5.6,13.4-8.8
					C452.9,307.9,451.5,305.2,449.6,306.3L449.6,306.3z"/>
			</g>
		</g>
		<g>
			<g>
				<path style="fill:#31343B;" d="M209.9,307.2c4.9,4.9,14.1,9.5,21.1,7.5c1.5-0.4,2-2.7,0.5-3.4c-2.9-1.4-6-1.9-9-2.9
					c-3.5-1.2-6.5-3-9.7-4.8C210.4,302.2,207.9,305.3,209.9,307.2L209.9,307.2z"/>
			</g>
		</g>
		<g>
			<g>
				<path style="fill:#31343B;" d="M228.9,310.2c1.5,1,3.1,2.1,4.9,2.4c1.3,0.2,2.7-1.1,1.8-2.4c-1.1-1.7-2.8-2.8-4.5-3.9
					c-1-0.7-2.5-0.2-3.1,0.8C227.4,308.2,227.9,309.5,228.9,310.2L228.9,310.2z"/>
			</g>
		</g>
		<path id="XMLID_2_" style="fill:#F7F9FF;stroke:#31343B;stroke-width:0.5498;stroke-miterlimit:10;" d="M439.5,164
			c-0.1,0.9-0.1,1.9,0.2,2.8c0.3,0.9,1,1.8,2,2.1c1,0.4,2.3,0.2,3.2-0.3c0.9-0.5,1.6-1.4,2.2-2.2c1-1.6,1.7-3.5,1.5-5.4
			c-0.2-1.4-2.2-3.2-3.8-3.5c-1.3-0.3-2.5,0.5-3.3,1.5C440.3,160.6,439.7,162.2,439.5,164z"/>
		<path id="XMLID_1_" style="fill:#F7F9FF;stroke:#31343B;stroke-width:0.6176;stroke-miterlimit:10;" d="M240.3,163.9
			c-0.1,1.1-0.2,2.2,0.2,3.2s1.1,2,2.2,2.4c1.2,0.4,2.5,0.2,3.6-0.4c1.1-0.6,1.8-1.5,2.5-2.5c1.1-1.8,1.9-4,1.7-6.1
			c-0.2-1.6-2.5-3.6-4.2-3.9c-1.4-0.3-2.8,0.6-3.6,1.7C241.2,160,240.5,161.9,240.3,163.9z"/>
		<g>
			<g>
				<path style="fill:#31343B;" d="M429.6,196.5c5.7-3,11.6-4.9,18.1-4.6c5.6,0.2,10.5,3.1,16,3.4c1.5,0.1,2-1.7,1.1-2.7
					c-4.2-4.7-12-4.8-17.9-4.4c-6.5,0.5-13.1,2.5-18.4,6.5C427.5,195.5,428.4,197.1,429.6,196.5L429.6,196.5z"/>
			</g>
		</g>
		<g>
			<g>
				<path style="fill:#31343B;" d="M427.8,230.2c4.2,0.4,7.9,2.9,11.1,5.4c2.7,2.1,5,5.6,8.3,6.5c2.4,0.6,4.6-1.2,4.7-3.6
					c0.1-4.9-5.7-9.1-9.9-10.6c-4.9-1.8-9.5-1.4-14.6-0.7C425.6,227.5,426.2,230,427.8,230.2L427.8,230.2z"/>
			</g>
		</g>
		<g>
			<g>
				<path style="fill:#31343B;" d="M146.5,198.5c-1.3,6.6-2.8,12.8-7.1,18.1c-4.2,5.3-9.5,6.9-15.1,10.2c-3.9,2.3-1.1,7.5,2.9,6.9
					c6.9-1,12.7-7.9,16.2-13.5c3.9-6.2,6.6-13.9,5.7-21.3C148.9,197.5,146.8,196.8,146.5,198.5L146.5,198.5z"/>
			</g>
		</g>
		<g>
			<g>
				<path style="fill:#31343B;" d="M121.9,231.7c2.9,6.7,13.8,12.3,20.2,6.8c0.6-0.5,0.3-1.7-0.5-1.9c-2.7-0.6-5.5-0.6-7.9-2
					c-2.6-1.5-4.7-3.7-6.4-6.1C124.9,225.3,120.4,228.1,121.9,231.7L121.9,231.7z"/>
			</g>
		</g>
		<g>
			<g>
				<path style="fill:#31343B;" d="M138.5,238.1c-3.7,4.2-7,8.1-11.3,11.7c-2.5,2.1-0.4,6.4,2.6,6.3c2.8,0,5.3-0.4,7.9-1.5
					c-1.1-1.4-2.2-2.8-3.3-4.2c-3.8,6.4-5.3,12.4-5,19.8c0.1,2.5,2.7,4,4.9,2.8c2-1.1,3.2-2.4,4.6-4.2c0.9-1.2-0.3-3.2-1.7-3
					c-2.3,0.2-4,0.6-6.1,1.6c1.6,0.6,3.2,1.3,4.8,1.9c-1.4-5.1-0.3-11.3,3.2-15.4c1.9-2.2,0.1-5.4-2.8-4.8c-1.8,0.5-3.6,0.4-5.4-0.3
					c0.5,2.1,1.1,4.1,1.6,6.2c3.7-4.5,7-9.9,8.4-15.6C141.3,238.2,139.5,237,138.5,238.1L138.5,238.1z"/>
			</g>
		</g>
		<g>
			<g>
				<path style="fill:#31343B;" d="M136.1,265.9c-0.9,5.9,6.7,13.4,10.4,17.4c5.5,5.9,11.9,11.1,18.8,15.4
					c14.3,8.9,31.1,14,47.9,14.6c1.3,0,1.6-2,0.3-2.2c-15.7-2.6-30.7-7.8-44.2-16.4c-6.5-4.1-12.4-8.9-17.7-14.5
					c-2.5-2.6-4.7-5.3-6.9-8.2c-1.8-2.4-3.3-6-6.1-7.2C137.8,264.4,136.3,264.6,136.1,265.9L136.1,265.9z"/>
			</g>
		</g>
		<g>
			<g>
				<g>
					<path style="fill:#31343B;" d="M525.6,277.5c37.9,6.3,74.1,22.8,113,23c2.6,0,2.6-4,0-4.1c-19.9-0.4-39.2-5.1-58.1-11
						c-17.9-5.6-35.2-12.2-54-14.5C522.7,270.3,521.8,276.8,525.6,277.5L525.6,277.5z"/>
				</g>
			</g>
			<g>
				<g>
					<path style="fill:#31343B;" d="M577.3,452.3c21.7,18,52.1,26.6,80,26.2c26.8-0.3,53-9.6,74.2-26
						c42.4-32.6,57.9-95.6,27.5-141.6c-7.5-11.3-17.3-21-28.6-28.5c-12.1-7.9-24.8-12.1-39-13.5c-1.7-0.2-2.1,2.8-0.4,3.1
						c22.9,3.9,44.5,16.9,58.9,34.9c15.9,19.8,22.2,45.5,19.3,70.6c-6.1,52-51.4,90.7-102.7,94.2c-14.8,1-29.6-0.8-43.9-4.8
						c-15-4.2-28.4-11.4-41.8-19.1C578.1,446.3,574.8,450.2,577.3,452.3L577.3,452.3z"/>
				</g>
			</g>
			<g>
				<g>
					<path style="fill:#31343B;" d="M690.4,268.2c-10.3-0.5-21.5,3.2-30.7,7.6c-8.5,4.1-16.1,10.2-21.4,18.1
						c-4.9,7.4-7.4,16.3-6.4,25.1c0.9,7.4,4.4,17.5,12.3,19.8c2,0.6,3.3-1.6,2.5-3.2c-1.6-3.4-4.2-6.1-5.7-9.5
						c-1.5-3.3-2.4-7-2.5-10.6c-0.3-7.7,2.5-15,7.2-21c4.8-6.3,11.4-11,18.4-14.5c8.5-4.2,17.9-5.4,26.6-9
						C692.2,270.3,692.1,268.3,690.4,268.2L690.4,268.2z"/>
				</g>
			</g>
			<g>
				<g>
					<path style="fill:#31343B;" d="M685.2,306.4c-11.9,3.1-23.6,6.3-32.8,15c-7.6,7.2-12.5,18.2-10.7,28.7
						c1.8,10.3,10.2,17.5,19.9,20.4c12.3,3.7,25.8,0.7,37.1-4.7c1.4-0.7,0.8-3.3-0.8-3.1c-10.5,1.1-21.3,4.7-31.8,2.4
						c-9.1-2-17.5-8.2-18.2-18c-1.4-21.1,22.8-31.2,38.6-38C688,308.5,686.8,306,685.2,306.4L685.2,306.4z"/>
				</g>
			</g>
			<g>
				<g>
					<path style="fill:#31343B;" d="M660,367.6c-8.1,9.3,0.5,20.4,9.8,24.3c12.2,5,30.1,6.5,42.1,0.4c1.7-0.8,0.9-3.6-1-3.5
						c-10.8,0.4-20.7,2.3-31.5,0.2c-8.6-1.7-22.4-8-16.5-19.1C663.8,368.1,661.4,366,660,367.6L660,367.6z"/>
				</g>
			</g>
			<g>
				<g>
					<path style="fill:#31343B;" d="M697.2,272c-0.1,10.7-2.6,21.5-8.1,30.8c-1.1,1.9,0.4,3.8,2.3,4c7.6,0.9,14.8-3.1,18.4-9.9
						c-1.6-0.7-3.2-1.4-4.8-2c-3.2,15.3-4,31.1-1.6,46.6c0.4,2.5,3.8,2.3,4.9,0.6c3.6-5.1,7.1-10.3,10.8-15.3
						c-1.5-0.6-3-1.3-4.5-1.9c-6.6,15.7-3.4,32.5-2.8,49c0.6,15.5-2.5,33.1-17,41.8c-2.1,1.2-0.7,4.9,1.7,4
						c14.8-5.3,20.6-20.3,21.4-35.1c1.1-19.5-5.9-39.4,1.3-58.4c1.1-2.8-3-4-4.5-1.9c-3.6,5.1-7.4,10.1-11.2,15.1
						c1.7,0.5,3.3,0.9,5,1.4c-1.8-15-1.7-29.7,1.3-44.5c0.6-2.8-3.4-4.8-4.8-2c-2.7,5.3-7.9,7.9-13.8,7.3c0.8,1.3,1.5,2.7,2.3,4
						c5.9-9.8,8.1-22.1,7-33.5C700.6,269.8,697.2,269.7,697.2,272L697.2,272z"/>
				</g>
			</g>
			<g>
				<g>
					<path style="fill:#31343B;" d="M615.8,343.2c-9.6,6.5-17.8,16.5-19.8,28.2c-0.3,1.9,1.6,4,3.5,2.7c1.3-0.9,1.9-1.7,2.1-3.2
						c0.2-1.3-1.4-2.2-2.2-0.9c0.2,0.1,0.4,0.2,0.5,0.4c0.2,0.8,0.4,1.6,0.6,2.3c3.4-10.4,8.2-19.5,17-26.2
						C619.5,345,617.8,341.8,615.8,343.2L615.8,343.2z"/>
				</g>
			</g>
			<g>
				<g>
					<path style="fill:#31343B;" d="M610.1,361.3c-2.7,2.3-5.1,4.9-7.3,7.7c-1.8,2.4-4.4,5.5-3.6,8.6c0.3,1,1.4,1.3,2.2,0.9
						c2.5-1.3,3.3-4.7,4.8-7c1.8-2.9,3.9-5.4,6.3-7.8C614.3,362.2,611.9,359.9,610.1,361.3L610.1,361.3z"/>
				</g>
			</g>
			<g>
				<g>
					<path style="fill:#31343B;" d="M604.7,374.3c-1.9,4.6-4.3,9.3-5.1,14.3c-0.3,1.6,1.7,2.5,2.6,1.1c2.9-4.3,4.4-9.5,6.3-14.3
						C609.4,373,605.7,372,604.7,374.3L604.7,374.3z"/>
				</g>
			</g>
			<g>
				<g>
					<path style="fill:#31343B;" d="M668.4,274c-3.7-17.3-0.7-47.8,22.7-48.6c10.8-0.4,18.2,7.2,18.7,17.7
						c0.4,10.1-0.6,20.4-0.4,30.5c0.1,4,6,4,6.2,0c0.4-6.6,0.6-13.2,1.2-19.8c0.6-6.3,1.3-12.8-0.4-19
						c-3.1-11.4-15.3-18.4-26.7-17.2c-11.5,1.2-21,10.3-25.1,20.8c-4.5,11.5-2.7,25,1,36.5C666.1,276.6,668.8,275.9,668.4,274
						L668.4,274z"/>
				</g>
			</g>
		</g>
		<g>
			<g>
				<path style="fill:#31343B;" d="M349.1,746.6c-0.5,20-2,39.9-1.8,59.9c0.2,19.4,0.6,39.2,5.3,58.1c0.5,1.9,3.2,1.1,2.8-0.8
					c-3.3-19.2-3-39.8-2.6-59.2c0.5-19.3,2.1-38.6,2.8-58C355.8,742.4,349.2,742.4,349.1,746.6L349.1,746.6z"/>
			</g>
		</g>
		<g>
			<g>
				<path style="fill:#31343B;" d="M355.3,863.4c-2.3-2.7-5.9-3.4-8.2-6.1c-1.3-1.5-4.2-0.4-4.1,1.7c0.5,6.2,2.9,12,3.5,18.1
					c1.7-0.7,3.3-1.4,5-2.1c-1.9-2.1-4.8-2.7-6.6-4.8c-1.5-1.6-5-1-5.3,1.4c-0.5,3.6-0.8,10.7-4.8,12.4c1.5,1.5,2.9,2.9,4.4,4.4
					c0.8-4.3-0.6-8.6,0.1-12.8c0.8-4.6-5.8-6.7-7.2-2c-2.3,7.9-13.3,12.2-20.1,14.8c-12.2,4.7-25,7.2-37.8,9.5
					c-28.8,5.2-59.1,3.2-87.8-1.8c-16-2.8-32.1-7-47.1-13.1c-3-1.2-4.9,3.6-2.2,5.2c27.3,15.4,60.8,19.2,91.7,19.9
					c29.1,0.7,59.8-1.6,87-12.8c9-3.8,20.6-9.3,23.4-19.6c-2.4-0.7-4.8-1.3-7.2-2c-0.7,4.4,0.8,8.6,0.2,12.9c-0.5,3.2,2.3,5.4,5.2,4
					c6.9-3.2,7.8-11.3,8.3-18c-1.8,0.7-3.6,1.5-5.4,2.2c2.1,2,5,2.5,7,4.4c2.2,2.2,5.3-0.1,4.9-2.8c-1-6.1-3.4-11.9-4.6-18
					c-1.3,0.8-2.7,1.6-4,2.3c2.8,2.5,6.6,2.5,9.5,4.8C354.7,866.8,356.6,864.9,355.3,863.4L355.3,863.4z"/>
			</g>
		</g>
		<g>
			<g>
				<path style="fill:#31343B;" d="M313.2,849.6c-2.8-4.5-8.5-7.8-12.8-10.7c-5.2-3.5-10.7-6.7-16.4-9.4c-11-5.4-22.6-9.5-34.6-11.9
					c-24.1-4.8-49.7-3.8-73.1,3.8c-12.8,4.2-25.7,10.3-36.1,19.1c-1.6,1.4,0.4,3.7,2.2,2.8c13.7-6.8,27.3-13.2,42.2-16.9
					c14.4-3.5,29.1-5.1,43.9-4.3c14.8,0.7,29.5,3.7,43.6,8.5c7.4,2.5,14.5,5.7,21.4,9.5c6.1,3.3,12.1,8.7,18.6,10.9
					C312.9,851.3,313.6,850.3,313.2,849.6L313.2,849.6z"/>
			</g>
		</g>
		<g>
			<g>
				<path style="fill:#31343B;" d="M575.7,656.1c-15.2,28.5-28.7,57.8-45.9,85.3c-17,27.3-37.1,52.6-61.9,73.3
					c-3.9,3.2,1.7,8.9,5.6,5.6c24.5-21.3,44.2-47.4,60.8-75.2c16.7-28.1,31.1-57.9,43.6-88C578.4,655.8,576.4,654.9,575.7,656.1
					L575.7,656.1z"/>
			</g>
		</g>
		<g>
			<g>
				<path style="fill:#31343B;" d="M271.7,782c-21.8-8.9-46.9-14.4-70.5-13.2c-23.3,1.2-46.1,7.8-66.3,19.6
					c-4.3,2.5-0.5,9.1,3.9,6.7c40.3-22.4,89-26.9,132.3-11C272.4,784.5,272.9,782.5,271.7,782L271.7,782z"/>
			</g>
		</g>
		<g>
			<g>
				<path style="fill:#31343B;" d="M446.1,812.9c-10.6,3.1-20.9,5.6-32.1,5.3c-5.3-0.1-10.6-0.8-15.7-2.1c-4.2-1.1-9-4.3-13.2-2
					c-1.3,0.7-1.5,2.2-0.9,3.5c2,4.6,8.8,4.5,13.2,5.2c5.8,0.8,11.6,1.3,17.5,1.1c11.1-0.3,22.8-2.4,32.6-7.5
					C449.4,815.4,448.1,812.3,446.1,812.9L446.1,812.9z"/>
			</g>
		</g>
		<g>
			<g>
				<g>
					<path style="fill:#31343B;" d="M263.6,902.4c6.3-0.7,14.7-2.3,17.5-9c2.6-6.1-2.7-11.5-7.7-14.2c-14.9-8.1-38.9-6.6-52.1,4.1
						c-3.3,2.7,1,8.4,4.6,6c10.9-7.3,23.5-11.3,36.8-9.2c5.1,0.8,15.8,3.7,15.6,10.5c-0.2,6.1-10.1,9.2-14.8,9.9
						C262.3,900.6,262.5,902.6,263.6,902.4L263.6,902.4z"/>
				</g>
			</g>
			<g>
				<g>
					<path style="fill:#31343B;" d="M184.6,901.1c-4.8-0.7-14.7-3.6-15-9.7c-0.3-6.8,10.3-9.8,15.4-10.8c13.2-2.4,25.9,1.4,36.8,8.6
						c3.5,2.3,8-3.3,4.6-6c-13.4-10.5-37.4-11.6-52.2-3.3c-4.9,2.8-10.1,8.1-7.7,14.1c2.7,6.8,11.4,8.4,17.7,9
						C185.4,903.2,185.7,901.3,184.6,901.1L184.6,901.1z"/>
				</g>
			</g>
		</g>
		<g>
			<g>
				<path style="fill:#31343B;" d="M287.1,856.5c-2,5.8-7.7,14.2-14.6,8.2c-4.4-3.8-3.2-9.9,1.2-13.1c3.9-2.9,10.5-3.3,12.6,2
					c2,5-2.3,9.4-4.9,13.3c-0.9,1.3,0.9,3,2.2,2.2c7.3-4.6,11.9-13.2,6-20.9c-5.7-7.5-16.7-5.1-21.9,1.7c-5,6.4-3.5,15.9,4,19.7
					c3.5,1.8,7.8,1.6,11.2-0.4c4.3-2.6,5.8-7.2,7-11.8C290.4,855.4,287.7,854.7,287.1,856.5L287.1,856.5z"/>
			</g>
		</g>
		<g>
			<g>
				<path style="fill:#31343B;" d="M246.7,842.6c0.3,5,0.3,11.1-4.7,13.8c-7.6,4-12.7-5.5-9.8-11.7c2-4.3,7.6-8.7,12.2-4.9
					c4.4,3.7,2.1,10.3,1.2,15.1c-0.3,1.8,2,2.9,3,1.3c5-7.6,5.8-18.6-3.9-22.9c-8.5-3.8-16.8,4-18.5,11.9
					c-1.8,8.4,4.3,17.6,13.6,16.4c9.9-1.2,11-11.4,9.9-19.3C249.4,840.5,246.6,840.9,246.7,842.6L246.7,842.6z"/>
			</g>
		</g>
		<g>
			<g>
				<path style="fill:#31343B;" d="M200.5,841.8c3.6,4.3,8.5,12.6,1.6,16.7c-5.9,3.5-11.8-1.6-12.5-7.6c-0.6-4.9,2.1-11.2,8.1-10.1
					c5.3,1,7.1,7.4,9.1,11.6c0.7,1.5,3.1,0.8,3.1-0.8c-0.3-8.9-5.8-18.2-16-16.6c-9.4,1.5-12.1,12.5-8.9,20.3
					c3.2,7.9,13.1,12.1,20.3,6.3c8.1-6.5,3-16.1-2.7-22C201.3,838.3,199.3,840.3,200.5,841.8L200.5,841.8z"/>
			</g>
		</g>
		<g>
			<g>
				<path style="fill:#31343B;" d="M160.9,856.6c3,3.7,6.5,9.6,2,13.8c-4.8,4.4-11.4,0.5-12.2-5.2c-0.6-4.4,1.6-10,6.9-9.6
					c5.3,0.5,6.7,6.5,8.5,10.5c0.6,1.4,2.8,0.6,2.7-0.7c0-8-4.8-16.2-13.9-14.9c-8.5,1.2-11.4,11-8.5,18.2
					c2.9,7.1,11.8,10.5,18.2,5.4c7.1-5.7,3.1-14-1.9-19.3C161.6,853.5,159.8,855.3,160.9,856.6L160.9,856.6z"/>
			</g>
		</g>
		<g>
			<g>
				<path style="fill:#31343B;" d="M117.8,692.2c11.7,27.9,16.7,56.5,14.1,86.7c-2,23.6-19.4,43.7-19.7,67.5
					c-0.2,12.8,6.1,29.2,18.7,34.7c2,0.9,4.7-1.7,2.6-3.4c-9.9-8.2-14.7-22.6-12.5-35.2c2-11.1,7.3-21.8,11.4-32.3
					c4.3-10.9,7.7-21.4,8.3-33.1c0.7-14.5-0.7-29.2-3.4-43.4c-2.9-15-7.4-30.2-15.7-43.2C120.4,688.7,116.9,689.9,117.8,692.2
					L117.8,692.2z"/>
			</g>
		</g>
		<g>
			<g>
				<path style="fill:#31343B;" d="M36.7,386.5c-7.2,4.5-14.7,8.6-22,12.9c-2.2,1.3-1.5,5.5,1.4,5.2c4.7-0.6,9.3-1.2,13.9-1.9
					c-0.9-1.6-1.9-3.2-2.8-4.8C14.3,408.4,7.2,423.5,6,440c-0.3,3.6,4.9,4.6,6.6,1.8c2.8-4.6,5.5-9.3,8.2-13.9
					c-2.1-0.3-4.2-0.5-6.3-0.8c1.4,8.7,0.4,17.5-1.5,26c-1.8,8-5.6,16.8-5.1,25.1c0.1,2.5,3.2,3.2,4.5,1.2
					c5.1-7.5,7.2-18.7,8.6-27.5c1.5-9,1.4-17.7,0.2-26.6c-0.4-3.1-4.9-3.1-6.3-0.8c-2.8,4.6-5.6,9.2-8.4,13.8
					c2.2,0.6,4.4,1.2,6.6,1.8c1-14.4,7.3-28.5,18.2-38.1c2.4-2.1-0.3-5.2-2.8-4.8c-4.4,0.7-8.8,1.3-13.1,2c0.7,1.7,1.4,3.4,2.1,5.1
					c7.2-4.5,14.5-8.9,21.6-13.7C41.5,388.8,39.3,384.9,36.7,386.5L36.7,386.5z"/>
			</g>
		</g>
	</g>
</g>
<g id="T-SHIRT">
	<g id="paint_1_">
		<g id="XMLID_13_">
			<g>
				<path style="fill:#557CF2;" d="M587.4,468.5c15.4,54.4,28.9,116.5,27.9,168.3l0,0.1c-128.9,59.5-415.1,49.6-553.8,10.6l0-0.1
					c-6.2-28.8-5.3-59.9-0.2-88.9c6-34.3,17.5-67.4,29.2-100.4L90,458c-13.9-12.6-49.8-34.9-71.2-39.6c-2.5-0.6-5.2-0.5-7.8-0.3
					c-2.4,0.2-4.9,1.4-5.6,3.7l-0.2-0.1c10.3-30.2,38.4-55.6,62.3-77.3c25.5-23.2,48.5-43.6,74.1-66.8l0.1,0.1
					c8.2,11.8,26.9,23,39.4,29.8c0,0,0.1,0,0.1,0c12.7,7,26,13.1,39.7,18.3c39.8,15,82.7,21.9,125.3,19.9
					c44.3-2.1,96-16.6,137.9-41.3c15.1-8.9,29-19.2,40.7-30.6l0.2,0.2c24.1,3.2,47.2,12,70.8,17.9c12.8,3.2,26.2,5.6,39.6,6.1
					C609.7,310,589,332.6,580,359.7c-11.6,34.7-5.1,77,20.4,102.9c23.3,23.7,65,25.8,88.3,10.1c-14.6,12.8-36,16.2-55.5,12
					c-6.2-1.3-12.2-3.6-18.1-5.8C605.6,475.3,596.8,472.1,587.4,468.5z"/>
				<path style="fill:#557CF2;" d="M483.7,304.1l0.2,0.3c-41.9,24.7-93.6,39.2-137.9,41.3c-42.6,2-85.5-4.9-125.3-19.9
					c-13.6-5.1-26.9-11.2-39.7-18.3c0,0-0.1,0-0.1,0C276.8,346.3,388.8,345,483.7,304.1z"/>
			</g>
			<g>
				<path style="fill:none;stroke:#31343B;stroke-width:0.2297;stroke-miterlimit:10;" d="M178.5,306.5c0.8,0.3,1.6,0.7,2.4,1
					c95.8,38.8,207.8,37.5,302.7-3.4"/>
				<path style="fill:none;stroke:#31343B;stroke-width:0.2297;stroke-miterlimit:10;" d="M141.6,277.7c8.2,11.8,26.9,23,39.4,29.8
					c0,0,0.1,0,0.1,0c12.7,7,26,13.1,39.7,18.3c39.8,15,82.7,21.9,125.3,19.9c44.3-2.1,96-16.6,137.9-41.3
					c15.1-8.9,29-19.2,40.7-30.6c0.7-0.6,1.3-1.3,1.9-1.9"/>
				<path style="fill:none;stroke:#31343B;stroke-width:0.2297;stroke-miterlimit:10;" d="M11.1,431.3c-1.7-1.1-7.1-4.8-5.7-9.4
					c0.7-2.2,3.2-3.5,5.6-3.7c2.6-0.2,5.3-0.2,7.8,0.3c21.4,4.7,57.3,27,71.2,39.6"/>
				<path style="fill:none;stroke:#31343B;stroke-width:0.2297;stroke-miterlimit:10;" d="M141.5,277.6
					C141.5,277.6,141.5,277.6,141.5,277.6C116,300.8,93,321.2,67.5,344.4c-23.8,21.7-51.9,47.1-62.3,77.3"/>
				<path style="fill:none;stroke:#31343B;stroke-width:0.2297;stroke-miterlimit:10;" d="M639,296.3c-1.3,0.5-2.6,1.1-3.8,1.7
					C609.7,310,589,332.6,580,359.7c-11.6,34.7-5.1,77,20.4,102.9c23.3,23.7,65,25.8,88.3,10.1c0.7-0.5,1.4-0.9,2-1.4"/>
				<path style="fill:none;stroke:#31343B;stroke-width:0.2297;stroke-miterlimit:10;" d="M692.2,469.4c-1.1,1.2-2.3,2.3-3.5,3.4
					c-14.6,12.8-36,16.2-55.5,12c-6.2-1.3-12.2-3.6-18.1-5.8c-9.5-3.6-18.2-6.8-27.7-10.4c-0.1,0-0.2-0.1-0.3-0.1"/>
				<path style="fill:none;stroke:#31343B;stroke-width:0.2297;stroke-miterlimit:10;" d="M524.8,274c24.1,3.2,47.2,12,70.8,17.9
					c12.8,3.2,26.2,5.6,39.6,6.1c1.5,0.1,2.9,0.1,4.4,0.1"/>
				<path style="fill:none;stroke:#31343B;stroke-width:0.2297;stroke-miterlimit:10;" d="M61,647.5c0.1,0,0.2,0.1,0.4,0.1
					c138.7,39,425,48.8,553.8-10.6"/>
				<path style="fill:none;stroke:#31343B;stroke-width:0.2297;stroke-miterlimit:10;" d="M548.2,341.9
					c9.2,29.5,18.5,58.9,27.7,88.3c3.8,12.1,7.7,25,11.4,38.3c15.4,54.4,28.9,116.5,27.9,168.3"/>
				<path style="fill:none;stroke:#31343B;stroke-width:0.2297;stroke-miterlimit:10;" d="M133.1,337.9
					c-13.8,38.8-27.5,77.6-41.3,116.5c-0.4,1.3-0.9,2.5-1.3,3.8c-11.7,32.9-23.2,66-29.2,100.4c-5.1,29.1-6,60.2,0.2,88.9"/>
			</g>
		</g>
	</g>
	<g id="shaders_1_">
		<path style="fill:#3B59B2;" d="M529.2,274.9c-0.2-1.3-1.8-2.3-2.9-1c-7.8,9.6-17.2,17.6-27.5,24.2c-0.5-0.8-1.7-1-2.2,0
			c-0.3,0.5-0.5,1-0.8,1.4c0,0,0,0,0,0c-0.2,0.3-0.5,0.6-0.7,1c-10.1,6.2-21,11.3-32.1,15.6c-25.6,10.2-52.5,17.2-79.8,21.1
			C328.4,345,272.2,339.7,220,322c-14.7-5-28.8-11.1-42.6-18c-7.8-3.9-15.3-8.2-22.8-12.6c-1.3-1.3-2.7-2.6-4.2-3.8
			c0-0.3-0.1-0.7-0.4-1c-2.7-2.7-5.3-5.4-8-8.2c-0.3-0.3-0.9-0.5-1.3-0.3c-2.1,0.6-2.7,2.4-2.2,3.8c-0.1-0.1-0.2-0.1-0.4-0.2
			c-1.7-1-3.9,1.5-2.2,2.8c14.5,11.3,31.3,20.2,48.5,27.8c4.3,4.1,9.6,7.6,14.5,10.8c6.4,4.3,13.2,8.1,20.1,11.5
			c13.1,6.5,27.2,11.3,41.5,14.6c1.2,0.3,1.7-1.6,0.5-1.9c-14.3-3.7-28-9-41.2-15.8c-6.1-3.1-12-6.6-17.8-10.3c-2-1.3-3.9-2.6-5.7-4
			c3.8,1.5,7.6,3,11.4,4.4c25.7,9.6,52.4,16.5,79.6,20c52.9,6.9,107.3,1.8,157.9-14.8c-0.5,0.3-0.9,0.6-1.4,0.8
			c-4.3,2.6-8.6,5.1-12.3,8.4c-0.7,0.6,0,2,1,1.6c4.7-1.8,8.8-4.4,13.1-7c4.2-2.6,8.7-5,12.4-8.3c0,0,0.1-0.1,0.1-0.1
			c0.1,0,0.1-0.1,0.2-0.1c11-4.1,22-9,32.3-14.8c-4,7.1-7.2,15.3-8,22.8c-0.1,1.3,1.9,1.8,2.4,0.7c2.1-4.6,3.3-9.5,5.2-14.2
			c0.8-1.9,1.6-3.7,2.4-5.6c1.9-2,3.2-4.8,4.4-7.5c5.7-3.6,11.2-7.5,16.4-11.8c-0.4,0.6-0.7,1.1-1.1,1.7
			c-4.2,6.7-8.7,13.7-11.4,21.1c-0.3,1,1,1.4,1.5,0.7c4.5-6.5,8.2-13.6,12.9-20c4.6-6.4,9.4-12.8,13.9-19.2
			C529.5,275.6,529.4,275.2,529.2,274.9z"/>
		<path style="fill:#2A3F80;" d="M678.9,475.9c-8.7,0.9-27.9,0-36.6-1.4c-9-1.5-24.2-5-32.9-7.9c-0.5-0.2-0.9,0.3-0.9,0.7
			c0.2,0.2,0.4,0.4,0.6,0.7c1.8,0.8,3.6,1.4,5.4,2.1c-0.1,0.4,0.1,0.9,0.5,1.2c7.7,5.8,19.1,8.6,28.5,9.6c5.6,0.6,12.1,0,18.2-0.7
			c-2.1,0.7-4.2,1.3-6.4,1.7c1.5,0.2,3,0.5,4.5,0.5c2.4,0.1,4.7,0,7.1-0.3c1.8-0.9,3.5-2,5.2-3.2c0.6-0.5,5.2-1.1,7-1.5
			C679.9,477.1,679.8,475.8,678.9,475.9z"/>
		<path style="fill:#3B59B2;" d="M593.8,469.6c4.8,2.9,10.8,4.7,16.1,6.7c16.4,6.3,36.4,13.8,53.7,7.3c-0.9,0-1.7,0-2.6,0
			c-3.7,0-7.4-1.2-11.2-0.8c-0.2,0-0.4-0.1-0.5-0.2c-2.4,0.1-4.9,0.1-7.5-0.2c-8.9-1.1-17.4-4.4-25.8-7.7c0.1-0.1,0.1-0.1,0.1-0.2
			c-1.7-0.8-3.3-1.8-4.8-3.1c-1.4-1.1-3-2.3-4.1-3.8c-1.2-0.7-2.4-1.3-3.6-2c-5.7-6.9-11.3-13.9-17.5-20.2c-0.2-0.2-0.5-0.3-0.8-0.3
			c-2.1-6.5-4.2-13.1-6.5-19.5c-0.2-0.7-0.8-0.9-1.4-0.9c-1.4-5.1-2.8-10.3-4.3-15.4c-0.4-5.3-0.7-10.5-0.4-15.8
			c0.1-2.6,0.5-5.1,0.9-7.6c0.7,0.3,1.8,0,1.9-0.8c1.7-8.7,2-17.4,4.6-25.9c2.7-9,6.7-17.6,12-25.5c4.7-7,10.7-13.2,17.1-18.7
			c3.2-2.8,6.7-5.3,10.2-7.7c3.4-2.2,7.2-4.1,10.2-6.9c1-1-0.1-2.4-1.3-2.2c-8,1.4-15.8,8-21.8,13.1c-6.9,5.9-12.8,12.9-17.8,20.4
			c-5.3,7.9-9.4,16.6-12.2,25.6c-0.9,3.1-1.8,6.3-2.5,9.6c-10.7-6-19-14.1-25-25.5c-0.3-0.5-1.1-0.2-1,0.3c-0.5-0.1-1.1,0.3-0.9,0.9
			c25.3,74.9,42.6,152.4,56.3,230.1c1.9,10.8,3.7,21.7,5.4,32.5c1.7,10.8,2.7,21.8,4.8,32.6c0.7-0.4,1.4-0.8,2.1-1.1
			c0.1-3.9,0.4-7.8,0.1-11.7c-0.3-4.6-0.9-9.1-1.1-13.6c-0.8-4.8-1.6-9.7-2.5-14.5c0.2-0.3,0.3-0.6,0.3-1
			c-0.1-6.1,0.2-11.9-0.7-17.9c-0.9-6.5-2-13.5-3-20c-2-13-5.6-25.9-8.1-38.7c-1.2-6-2.4-12-3.7-18c0.4,0,0.8-0.3,0.7-0.9
			c-1.6-6.4-3.5-12.7-5.6-19c0-0.1-0.1-0.3-0.1-0.4c-1.2-4.3-2.3-8.7-3.6-13.1c1.1,0.8,2.3,1.5,3.4,2.3
			C592.8,470.7,593.5,470.3,593.8,469.6z M550,345.7c0.4,0.7,0.8,1.4,1.2,2.1c-0.1,0.1-0.1,0.3-0.1,0.5c0.1,0.5,0.2,1.1,0.3,1.6
			C550.9,348.6,550.5,347.2,550,345.7z M568.1,407.2c-3.1-10.3-5.9-20.6-8.8-30.9c1.1,3.7,2.3,7.4,3.4,11.1
			c3.4,11.1,6.4,22.3,9.6,33.5C570.9,416.3,569.5,411.8,568.1,407.2z M580,445.1c-0.2-0.4-0.7-0.5-1-0.4c-1.6-5.9-3.3-11.8-5-17.7
			c0.5,1,1.7,1.1,2.6,0.7c2,7.9,4,16.1,6.5,24C582.2,449.4,581.2,447.2,580,445.1z M588.1,466c-0.4-1.2-0.7-2.5-1.1-3.7
			c0.6,1.2,1.2,2.3,2,3.2C588.6,465.5,588.3,465.7,588.1,466z"/>
		<path style="fill:#3B59B2;" d="M604.5,292.8c-7.9-0.2-17,4.5-22.1,10.3c-0.5,0.6,0,1.6,0.8,1.4c0.3-0.1,0.6-0.2,1-0.3
			c0.3-0.1,0.5-0.4,0.4-0.7c3.1-2.3,6.2-4.3,9.9-5.6c3.4-1.2,6.9-1.4,10.4-2C606.9,295.7,606.3,292.8,604.5,292.8z"/>
		<path style="fill:#3B59B2;" d="M621.5,297.8c-10.2-1-22.1,5.5-29.7,11.7c-8.1,6.6-16.3,16-18.4,26.3c-0.2,0.9,1.1,1.6,1.6,0.7
			c5.4-9.1,10.3-17.6,19.2-24c4-2.9,8.2-5.4,12.8-7.4c4.8-2.1,10-2.9,14.8-4.8C623.2,299.8,623,298,621.5,297.8z"/>
		<path style="fill:#3B59B2;" d="M132.3,338.5c0,0-0.1,0.1-0.1,0.1c-0.2,0.5-0.3,0.9-0.5,1.4c-8.4,11.2-15.8,23.5-23.1,35.4
			c-8,13-15.7,26.3-22.9,39.8c-4.9,9.1-9.6,18.3-14.1,27.6c-0.2,0.2-0.3,0.4-0.3,0.6c0,0.1-0.1,0.2-0.1,0.3c2,0.6,3.9,2.1,4.6,4
			c1.5,1.1,3,2,4.5,3.1c2.4,1.6,4.9,4,7.7,5.1c0.5,0.8,1.9,1,2.6,0.1c0,0,0,0,0,0c-1.9,5.2-3.8,10.4-5.7,15.6
			c-5,13.7-9.6,27.5-13.5,41.6c-7.7,28-13.1,56.8-13.6,85.8c-0.3,16.1,1.2,32.3,4.2,48.2c0.2,1,1.3,1.4,2.2,1.1c0,0.1,0,0.2,0,0.3
			c0.1,0,0.2,0,0.3,0c0,0,0.1,0,0.1,0c0.3,0.1,0.6,0.2,0.9,0.4c0,0,0,0,0,0c0.6,0.4,1.4,0.6,2,0.9c-0.9-0.5-0.1,0,0.4,0.1
			c0.3,0.1,0.6,0.2,0.9,0.3c-5-83.8,16.2-165.5,43.7-244.3c7.1-20.4,11.9-40.7,18.7-61c0-0.2,0-0.5,0-0.7
			C131.4,342.3,131.8,340.4,132.3,338.5z M101.3,431.4c-0.5-0.3-1.2-0.3-1.5,0.4c-0.6,1.2-1.2,2.5-1.7,3.8
			c5.2-14.1,10.4-28.3,15.5-42.5C109.6,405.8,105.6,418.6,101.3,431.4z"/>
		<path style="fill:#3B59B2;" d="M9.1,419.4c-0.8,0.4-1.5,1.1-1.9,1.9c-0.1,0.1-0.1,0.2-0.2,0.4c0,0.1,0,0.1-0.1,0.2c0,0,0,0,0,0.1
			c-0.4,1.3-0.3,2.7,0.5,4c0.7,0.9,2.1,0.6,2.2-0.6c0.1-1.4,0.5-2.8,0.9-4.2c0.2-0.2,0.3-0.5,0.2-0.8
			C11.1,419.3,9.7,418.8,9.1,419.4z"/>
	</g>
	<g id="lines">
		<g>
			<g>
				<path style="fill:#2A3F80;" d="M179.8,308.2c31.5,23,68.3,40.9,106.6,48.7c1.2,0.3,1.8-1.6,0.5-1.9
					c-38.3-9.9-74.1-25.2-106.2-48.5C179.8,305.8,178.8,307.5,179.8,308.2L179.8,308.2z"/>
			</g>
		</g>
		<g>
			<g>
				<path style="fill:#2A3F80;" d="M491.3,299.4c-30.1,21-61.8,39-95.7,53.1c-1.3,0.5-0.8,2.6,0.6,2.1
					c34.4-12.9,67.3-30.7,96.4-53.1C493.9,300.7,492.7,298.5,491.3,299.4L491.3,299.4z"/>
			</g>
		</g>
		<g>
			<g>
				<path style="fill:#2A3F80;" d="M484.8,330.9c4.7-10,10.5-19.5,17.1-28.3c6.9-9.3,15.4-16.8,22.9-25.6c1.2-1.4-0.4-4.1-2.2-2.8
					c-8.8,6.3-16,15.8-22.3,24.5c-7,9.6-12.8,20.1-17.8,30.9C481.8,331.1,484.1,332.4,484.8,330.9L484.8,330.9z"/>
			</g>
		</g>
		<g>
			<g>
				<path style="fill:#2A3F80;" d="M502.7,315.8c6-14.5,14.1-28.5,24.5-40.3c2.2-2.5-1.6-5.5-3.6-2.8c-9.9,13.1-17.8,26.9-23.2,42.4
					C499.8,316.6,502.1,317.2,502.7,315.8L502.7,315.8z"/>
			</g>
		</g>
		<g>
			<g>
				<path style="fill:#2A3F80;" d="M633,295.7c-23.7,2.2-50.6,16.6-60.6,39.2c-0.6,1.4,1.2,3.3,2.3,1.8c7.5-9.6,14.8-18.4,25.1-25.1
					c10.2-6.6,21.6-10.7,33.6-12.5C635.5,298.9,635,295.5,633,295.7L633,295.7z"/>
			</g>
		</g>
		<g>
			<g>
				<path style="fill:#2A3F80;" d="M623.3,296.4c-13.8-3.2-28.8-1.5-40.6,6.6c-1.1,0.8-0.2,2.4,1.1,1.8c12.3-5.4,25.3-7.8,38.6-5
					C624.6,300.3,625.6,296.9,623.3,296.4L623.3,296.4z"/>
			</g>
		</g>
		<g>
			<g>
				<path style="fill:#31343B;" d="M178.2,307.1c36.7,16.6,77.7,25.2,117.7,28.7c40.9,3.5,82.6,0.5,122.6-8.8
					c22.5-5.2,44.7-12.4,65.7-22.2c0.9-0.4,0.3-2-0.7-1.6c-38.1,15-77.5,25.5-118.3,29.3c-40.4,3.7-81.5,1.6-121.1-6.9
					c-22.4-4.8-43.8-11.9-65.2-19.8C178,305.6,177.5,306.8,178.2,307.1L178.2,307.1z"/>
			</g>
		</g>
		<g>
			<g>
				<path style="fill:#31343B;" d="M141.2,278.4c7.1,10.1,17.7,17.3,28.1,23.7c12.2,7.5,25,14,38.1,19.7
					c28.3,12.1,58.1,20.2,88.7,23.7c54.4,6.3,109.3-2.4,159.5-24.3c25.7-11.2,52.3-26.2,71.4-47.1c0.9-1-0.5-2.3-1.4-1.4
					c-18.6,16.9-38.6,31-61.3,41.8c-23.3,11.1-48.1,18.8-73.4,23.9c-55.9,11.3-114.4,6.2-168-13.2c-15.4-5.6-30.4-12.6-44.7-20.7
					c-12.7-7.2-26.5-15.2-35.4-27C142,276.7,140.5,277.5,141.2,278.4L141.2,278.4z"/>
			</g>
		</g>
		<g>
			<g>
				<path style="fill:#31343B;" d="M15.8,433.6c-2.2-1.9-4.6-3.8-6.5-6c-0.6-0.7-2.3-2.6-2.4-3.7c-0.2-1.9,1.7-3.8,3.4-4.2
					c2.9-0.7,6.4-0.2,9.3,0.4c8.7,2,17,6,24.9,10c15.7,8,31.1,17.5,44.4,29.1c1.7,1.4,4.1-0.9,2.4-2.4c-7.7-7.2-16.8-13.1-25.7-18.6
					c-10.1-6.2-20.7-12-31.7-16.5c-6.9-2.8-21.6-9.4-28.2-2.8c-5.8,5.8,4.4,13.7,9,16.2C15.5,435.6,16.6,434.4,15.8,433.6
					L15.8,433.6z"/>
			</g>
		</g>
		<g>
			<g>
				<path style="fill:#31343B;" d="M140.3,276.4c-28.1,23.5-55,48.4-82.2,73C36,369.4,11.8,391.6,2.8,420.9
					c-1.1,3.5,4.4,4.9,5.4,1.5C17,392.8,42.1,371,64.1,351c26.2-24,52.9-47.6,78.2-72.6C143.6,277.1,141.7,275.3,140.3,276.4
					L140.3,276.4z"/>
			</g>
		</g>
		<g>
			<g>
				<path style="fill:#31343B;" d="M638.6,294.9c-39.4,16.5-65.3,54.8-66.2,97.4c-0.8,40.4,20.9,82.4,63,90.9
					c18.5,3.7,41.5,2,56.3-10.9c1.2-1-0.3-3-1.7-2.2c-30.8,18.8-73.6,12-95.3-17.4c-23.3-31.5-23.9-77.5-4.5-111
					c11.3-19.5,28.8-34.9,49.5-44C641.2,296.9,640.1,294.3,638.6,294.9L638.6,294.9z"/>
			</g>
		</g>
		<g>
			<g>
				<path style="fill:#31343B;" d="M691.6,468.8c-12.6,12.4-29.8,17.5-47.2,16.4c-19.1-1.2-37-10.9-54.9-17
					c-1.6-0.6-2.2,1.9-0.7,2.5c9.7,4,19.7,7.2,29.5,10.7c9.4,3.4,19,5.9,29.1,6.1c16.8,0.4,33.9-4.9,45.4-17.5
					C693.5,469.2,692.3,468,691.6,468.8L691.6,468.8z"/>
			</g>
		</g>
		<g>
			<g>
				<path style="fill:#31343B;" d="M526,277.5c38.1,6.2,74.5,22.5,113.6,22.6c2.6,0,2.6-4,0-4.1c-20-0.4-39.3-5.1-58.4-10.8
					c-18.1-5.4-35.4-12-54.3-14.2C523.2,270.6,522.3,276.9,526,277.5L526,277.5z"/>
			</g>
		</g>
		<g>
			<g>
				<path style="fill:#31343B;" d="M60.6,649c68.5,17.4,139.2,28.2,209.7,33c79.6,5.5,160.2,3.9,238.9-10.1
					c36.6-6.5,73.6-16.2,106.8-33.5c1.8-1,0.2-3.6-1.6-2.7c-30,14.5-62.4,23.5-95,29.6c-37.6,7-75.7,10.2-113.9,11.1
					c-78.9,1.9-158-2.8-236.4-12C133,660,96.9,654.4,61.5,646C59.5,645.5,58.7,648.5,60.6,649L60.6,649z"/>
			</g>
		</g>
		<g>
			<g>
				<path style="fill:#31343B;" d="M547.2,342.2c9,38.4,22.7,75.6,34.6,113.1c11.7,36.6,21.3,74.1,26.5,112.2
					c3.1,22.7,5,45.4,4.4,68.3c-0.1,3.1,4.8,3.1,4.9,0c1-39.5-3.6-78.7-12.6-117.1c-8.9-37.9-22.4-74.1-34.4-111
					c-7.1-22-12.9-44.6-21.4-66.1C548.8,340.3,546.9,340.8,547.2,342.2L547.2,342.2z"/>
			</g>
		</g>
		<g>
			<g>
				<path style="fill:#31343B;" d="M132,337.7c-15.8,40.4-29.8,81.6-44.4,122.5c-13.8,38.6-27.4,78-31.7,118.9
					c-2.4,22.5-2.1,46,3.1,68.1c0.7,3,5.1,1.7,4.6-1.3C48.4,562.9,83.8,482.9,110.8,406c7.9-22.5,16-45.1,23.3-67.8
					C134.5,336.9,132.5,336.4,132,337.7L132,337.7z"/>
			</g>
		</g>
	</g>
	<g id="logo">
		<g>
			<g>
				<path style="fill:#FFFFFF;stroke:#2A3F80;stroke-width:2;stroke-miterlimit:10;" d="M517.3,451c-8.8-0.8-33.9-1.3-34.9,15.5
					c-0.3,4.4-2.9,47.3-2.9,47.3c0,1.8,1.5,3.4,3.3,3.5c2.4,0.2,4.7,0.3,7.1,0.5c2,0.1,3.7-1.3,3.8-3.3c0,0,2.9-42.9,2.9-42.9
					c0.2-2.9,0.8-8.4,14.9-7.4c1.7,0.1,2.6-0.3,3.8-1.5c1-1,2.1-2.2,4.6-5.6C521.9,454.4,519.8,451.2,517.3,451z"/>
				<path style="fill:#FFFFFF;stroke:#2A3F80;stroke-width:2;stroke-miterlimit:10;" d="M465.9,497.2c-1.2-1.3-3.6-2.1-5.8,0
					c-3.9,3.1-8.9,4.9-14.2,4.6c-6.6-0.3-12.4-3.6-16-8.5c8.6-1.8,29.7-7.2,38.1-13.2c7-5,10.7-12,4.5-21.5
					c-5.9-9-15.3-11.4-24-11.8c-0.2,0-0.3,0-0.5,0c-8.3-0.3-16,2.3-22.1,6.8c-4.1,3-7.4,6.8-9.8,11.3c-2.4,4.4-3.8,9.5-4,14.8
					c-0.5,18.9,14.4,34.7,33.2,35.6c5.4,0.3,14.4-1.1,22.8-7.1c1.1-1,2-1.8,2-1.8c1.2-1.3,1.3-3.2,0.1-4.6
					C468.7,500.3,467.3,498.7,465.9,497.2z M433.2,465c3.9-3.2,9.4-5.5,15-5.2c3.7,0.2,7.6,0.7,9.6,3.4c1.1,1.4,0.7,3.7-0.4,5.3
					c-4,5.4-26.9,9.9-31.6,10.5C426.3,473.4,429,468.4,433.2,465z"/>
				<path style="fill:#FFFFFF;stroke:#2A3F80;stroke-width:2;stroke-miterlimit:10;" d="M400.6,513.6c-2.2-0.1-4.4-0.1-6.6-0.2
					c-2.1-0.1-3.8-1.8-3.7-3.9c0.7-29.5,1.3-58.9,2-88.4c0-2.1,1.9-3.8,4.1-3.7c2.3,0.1,4.6,0.1,6.9,0.2c2.2,0.1,3.9,1.8,3.9,3.9
					c-0.8,29.5-1.7,58.9-2.5,88.4C404.4,512,402.7,513.7,400.6,513.6z"/>
				<path style="fill:#FFFFFF;stroke:#2A3F80;stroke-width:2;stroke-miterlimit:10;" d="M384.6,461c0.4-21.2-21.6-17.9-37.2-13.1
					c0-9.1,0.1-18.2,0.1-27.4c0-2.1-1.8-3.8-4-3.8c-2.3,0-4.6,0-7,0c-2.2,0-4,1.7-4,3.8c0.1,25.8,0.2,51.7,0.3,77.5
					c0,2.5,1.4,6.4,4.5,8c5.5,2.8,46.1,18.4,46.7-9.2C384.1,487.3,384.5,467.3,384.6,461z M369.6,490c0,3-1.2,5.7-3.7,7.4
					c-4.7,3.3-13.5-0.5-15.9-1.8c-1.4-0.8-2.7-1.9-2.7-3.5c0-9,0.1-18.1,0.1-27.1c0-1.6,1.3-2.7,2.7-3.5c2.5-1.4,11.5-5,16.2-1.6
					c2.5,1.8,3.6,4.5,3.6,7.5C369.8,472.8,369.6,489.2,369.6,490z"/>
				<path style="fill:#F26B7A;stroke:#85313B;stroke-width:2;stroke-miterlimit:10;" d="M211.6,479.4c-1.3,3.8-4.9,6.6-9.3,6.6
					c-4.5,0-8.4-3-9.5-7.3c-0.1-0.5-0.2-0.9-0.3-1.4c-0.1-1.3-1.1-2.3-2.4-2.4c-1.6-0.2-3.2-0.3-4.7-0.5c-1.9-0.2-3.6,1.3-3.4,3.2
					c0,0,0,0.1,0,0.1c0.8,11,10.4,19.3,21.6,18.6c8.7-0.5,15.9-6.4,18.3-14.3c0.5-1.8-0.7-3.6-2.6-3.9c-1.6-0.2-3.1-0.4-4.7-0.6
					C213.2,477.4,212,478.2,211.6,479.4z"/>
				<path style="fill:#FFFFFF;stroke:#2A3F80;stroke-width:2;stroke-miterlimit:10;" d="M300.1,446c-4.1,1.7-8.2,3.4-12.2,5.1
					c-5.8-9.9-19.4-4.3-19.8-4c-5.8,2.3-11.6,4.5-17.4,6.9c-1.5,0.5-3.1,2.4-3,4.9c0.7,17.3,1.4,34.7,2.1,52c0.1,2.1,1.9,3.8,4,3.7
					c2.2-0.1,4.4-0.2,6.7-0.2c2.1-0.1,3.8-1.8,3.7-4c-0.5-15.3-1-30.7-1.6-46c-0.1-1.6,1.2-2.8,2.6-3.6c2.4-1.5,7.5-4.5,10.7-2.3
					c2.6,1.7,3.8,4.4,3.9,7.4c0.4,14.7,0.8,29.3,1.2,44c0.1,2.1,1.8,3.8,3.9,3.7c2.2-0.1,4.4-0.1,6.7-0.2c2.1,0,3.8-1.8,3.7-3.9
					c-0.3-15.3-0.6-30.7-0.9-46c0-1.6,1.3-2.8,2.6-3.6c2.4-1.4,7.6-4.4,10.8-2.2c2.4,1.7,3.7,3.7,3.7,6.3
					c0.2,15.1,0.4,30.1,0.6,45.2c0,2.1,1.8,3.8,3.9,3.8c2.2,0,4.4,0,6.7-0.1c2.1,0,3.8-1.7,3.8-3.9c-0.1-15.3-0.2-30.7-0.3-46
					C326.1,453.9,317.7,439.8,300.1,446z"/>
				<path style="fill:#FFFFFF;stroke:#2A3F80;stroke-width:2;stroke-miterlimit:10;" d="M229.8,462.5c-1.8,0.7-2.7,2.6-2.3,4.4
					c0.4,1.8,0.7,3.6,0.8,5.5c0.7,15.9-10.3,29.3-24.7,30.2c-14.4,0.9-27-11.1-28.2-27c-0.4-5.8,0.8-11.3,3.2-16.1
					c0.8-1.6,0.5-3.5-0.9-4.6c-1.5-1.3-3.1-2.6-4.7-3.9c-1.9-1.6-4.9-1-6.1,1.2c-3.7,7.2-5.6,15.6-4.9,24.4
					c1.9,23.8,20.9,41.7,42.4,40.4c21.5-1.3,38.1-21.4,37.2-45.2c-0.1-3-0.5-5.9-1.2-8.7c-0.5-2.3-3.1-3.6-5.3-2.7
					C233.3,461,231.6,461.7,229.8,462.5z"/>
			</g>
		</g>
	</g>
</g>
</svg>
