<?xml version="1.0" encoding="utf-8"?>
<!-- Generator: Adobe Illustrator 22.1.0, SVG Export Plug-In . SVG Version: 6.00 Build 0)  -->
<svg version="1.1" id="Layer_1" xmlns="http://www.w3.org/2000/svg" xmlns:xlink="http://www.w3.org/1999/xlink" x="0px" y="0px"
	 viewBox="0 0 293.6 293.6" style="enable-background:new 0 0 293.6 293.6;" xml:space="preserve">
<style type="text/css">
	.st0{fill:#DF367C;}
	.st1{fill:#333333;}
</style>
<g>
	<g>
		<path class="st0" d="M156.2,100.9v19.4c8,2.8,14.3,9.1,17.1,17.1h19.4C189,119.1,174.5,104.6,156.2,100.9z"/>
		<path class="st0" d="M173.3,156.2c-3.9,10.9-14.2,18.8-26.5,18.8c-15.5,0-28.1-12.6-28.1-28.1c0-12.2,7.8-22.6,18.8-26.5v-19.4
			c-21.4,4.3-37.5,23.2-37.5,45.9c0,25.9,21,46.9,46.9,46.9c22.7,0,41.6-16.1,45.9-37.5L173.3,156.2L173.3,156.2L173.3,156.2z"/>
		<path class="st1" d="M291,143.8c-2.4-2.7-58.6-67.3-144.2-67.3S5,141,2.6,143.8l-2.6,3l2.6,3c2.4,2.7,58.6,67.3,144.2,67.3
			s141.8-64.5,144.2-67.3l2.6-3L291,143.8z M207.7,146.8c0,33.6-27.3,60.9-60.9,60.9s-60.9-27.3-60.9-60.9s27.3-60.9,60.9-60.9
			S207.7,113.2,207.7,146.8z M12.6,146.8c9.5-9.9,42.6-41.3,90.2-54.7c-16,12.9-26.3,32.6-26.3,54.7c0,22.1,10.3,41.8,26.2,54.7
			C55.2,188,22.1,156.7,12.6,146.8z M190.8,201.5c16-12.9,26.3-32.6,26.3-54.7c0-22.1-10.3-41.8-26.2-54.7
			c47.5,13.5,80.6,44.8,90.2,54.7C271.5,156.7,238.4,188.1,190.8,201.5z"/>
		<path class="st1" d="M146.8,57.7c39.5,0,78.1,12.3,114.6,36.5l5.2-7.8c-37.5-24.9-78.9-38.1-119.8-38.1
			c-32.6,0-64.9,8.1-95.9,24.1l4.3,8.3C84.9,65.5,115.7,57.7,146.8,57.7z"/>
		<path class="st1" d="M46,85.8l-4.7-8.1c-5,2.9-9.8,5.8-14.3,8.8l5.2,7.8C36.5,91.4,41.2,88.6,46,85.8z"/>
		<path class="st1" d="M146.8,235.9c-39.5,0-78.1-12.3-114.6-36.5l-5.2,7.8c37.5,24.9,78.9,38.1,119.8,38.1
			c32.6,0,64.9-8.1,95.9-24.1l-4.3-8.3C208.7,228.1,177.9,235.9,146.8,235.9z"/>
		<path class="st1" d="M247.6,207.8l4.7,8.1c5-2.9,9.8-5.8,14.3-8.8l-5.2-7.8C257.1,202.2,252.4,205,247.6,207.8z"/>
	</g>
</g>
</svg>
