<?xml version="1.0" encoding="utf-8"?>
<!-- Generator: Adobe Illustrator 22.1.0, SVG Export Plug-In . SVG Version: 6.00 Build 0)  -->
<svg version="1.1" id="Layer_1" xmlns="http://www.w3.org/2000/svg" xmlns:xlink="http://www.w3.org/1999/xlink" x="0px" y="0px"
	 viewBox="0 0 495 495" style="enable-background:new 0 0 495 495;" xml:space="preserve">
<style type="text/css">
	.st0{fill:#9B1C56;}
	.st1{fill:#DF367C;}
	.st2{fill:#FFFFFF;}
	.st3{fill:#005ECE;}
	.st4{fill:#2488FF;}
</style>
<g>
	<path class="st0" d="M367,313.4c12.7,0,23-10.3,23-23s-10.3-23-23-23h-37v45.9H367z"/>
	<path class="st0" d="M330,0v112c24.4,3.3,43.3,24.2,43.3,49.5s-18.9,46.3-43.3,49.5v16.4h37c34.7,0,63,28.2,63,63s-28.2,63-63,63
		h-37v94.7L495,495V46.9L330,0z"/>
	<path class="st1" d="M277.5,181.6h-67.1c-12.7,0-23,10.3-23,23s10.3,23,23,23H330v-16.4c-2.2,0.3-4.4,0.5-6.7,0.5
		C302.9,211.6,285.3,199.2,277.5,181.6z"/>
	<path class="st1" d="M330,267.5H210.4c-17.8,0-33.9-7.5-45.4-19.4v65.3h165V267.5z"/>
	<path class="st1" d="M210.4,141.6h67.1c7.7-17.6,25.4-30,45.8-30c2.3,0,4.5,0.2,6.7,0.5V0L165,46.9V161
		C176.5,149,192.6,141.6,210.4,141.6z"/>
	<polygon class="st1" points="165,353.4 165,495 330,448.1 330,353.4 	"/>
	<path class="st0" d="M160.8,353.4c-7.7,17.6-25.4,30-45.8,30c-27.6,0-50-22.4-50-50s22.4-50,50-50c20.5,0,38.1,12.4,45.8,30h4.2
		v-65.3c-10.9-11.3-17.6-26.7-17.6-43.6s6.7-32.2,17.6-43.6V46.9L0,0v448.1L165,495V353.4H160.8z"/>
	<path class="st2" d="M187.4,204.5c0-12.7,10.3-23,23-23h67.1c-2.7-6.1-4.2-12.9-4.2-20s1.5-13.9,4.2-20h-67.1
		c-17.8,0-33.9,7.5-45.4,19.4c-10.9,11.3-17.6,26.7-17.6,43.6s6.7,32.2,17.6,43.6c11.5,11.9,27.6,19.4,45.4,19.4H367
		c12.7,0,23,10.3,23,23s-10.3,23-23,23H160.8c2.7,6.1,4.2,12.9,4.2,20s-1.5,13.9-4.2,20H367c34.7,0,63-28.2,63-63s-28.2-63-63-63
		H210.4C197.7,227.5,187.4,217.2,187.4,204.5z"/>
	<path class="st3" d="M323.3,211.6c2.3,0,4.5-0.2,6.7-0.5c24.4-3.3,43.3-24.2,43.3-49.5S354.4,115.3,330,112
		c-2.2-0.3-4.4-0.5-6.7-0.5V211.6z"/>
	<path class="st4" d="M277.5,181.6c7.7,17.6,25.4,30,45.8,30v-100c-20.5,0-38.1,12.4-45.8,30c-2.7,6.1-4.2,12.9-4.2,20
		C273.3,168.7,274.8,175.4,277.5,181.6z"/>
	<path class="st3" d="M165,333.4c0-7.1-1.5-13.9-4.2-20c-7.7-17.6-25.4-30-45.8-30v100c20.5,0,38.1-12.4,45.8-30
		C163.5,347.3,165,340.5,165,333.4z"/>
	<path class="st3" d="M65,333.4c0,27.6,22.4,50,50,50v-100C87.5,283.4,65,305.9,65,333.4z"/>
</g>
</svg>
