<?xml version="1.0" encoding="utf-8"?>
<!-- Generator: Adobe Illustrator 22.1.0, SVG Export Plug-In . SVG Version: 6.00 Build 0)  -->
<svg version="1.1" id="Layer_1" xmlns="http://www.w3.org/2000/svg" xmlns:xlink="http://www.w3.org/1999/xlink" x="0px" y="0px"
	 viewBox="0 0 448 448" style="enable-background:new 0 0 448 448;" xml:space="preserve">
<style type="text/css">
	.st0{fill:#FEFFFE;}
</style>
<path class="st0" d="M224,109.1c-63.6,0-114.8,51.3-114.8,114.9S160.5,338.9,224,338.9S338.9,287.6,338.9,224S287.6,109.1,224,109.1
	z M224,298.7c-41.1,0-74.7-33.5-74.7-74.7s33.5-74.7,74.7-74.7s74.7,33.5,74.7,74.7S265.1,298.7,224,298.7L224,298.7z M370.4,104.4
	c0,14.9-12,26.8-26.8,26.8c-14.9,0-26.8-12-26.8-26.8s12-26.8,26.8-26.8C358.4,77.6,370.4,89.6,370.4,104.4z M446.4,131.6
	c-1.7-35.9-9.9-67.7-36.2-93.9c-26.2-26.2-58-34.4-93.8-36.2c-37-2.1-147.8-2.1-184.8,0C95.8,3.3,64,11.5,37.8,37.7
	s-34.4,58-36.2,93.9c-2.1,37-2.1,147.9,0,184.8c1.7,35.9,9.9,67.7,36.2,93.9c26.3,26.2,58,34.4,93.8,36.2c37,2.1,147.8,2.1,184.8,0
	c35.9-1.7,67.7-9.9,93.8-36.2c26.2-26.2,34.4-58,36.2-93.9C448.5,279.4,448.5,168.6,446.4,131.6L446.4,131.6z M398.7,356.1
	c-7.8,19.6-22.9,34.7-42.6,42.6c-29.5,11.7-99.4,9-132,9s-102.6,2.6-132-9c-19.6-7.8-34.7-22.9-42.6-42.6c-11.7-29.5-9-99.5-9-132.1
	s-2.6-102.7,9-132.1C57.2,72.4,72.3,57.3,92,49.4c29.5-11.7,99.4-9,132-9s102.6-2.6,132,9c19.6,7.8,34.7,22.9,42.6,42.6
	c11.7,29.5,9,99.5,9,132.1S410.3,326.7,398.7,356.1z"/>
</svg>
