<?xml version="1.0" encoding="utf-8"?>
<svg id="Layer_1" data-name="Layer 1" xmlns="http://www.w3.org/2000/svg" viewBox="0 0 1200 444.52">
  <defs>
    <style>.cls-1,.cls-6{fill:#231f20;}.cls-2{fill:#2f2c19;}.cls-3{fill:#423f2b;}.cls-4{fill:#6e5a24;}.cls-5{fill:#febc11;}.cls-6{font-size:63.37px;font-family:ArialNarrow, Arial;}</style>
  </defs>
  <title>logo_normal</title>
  <path class="cls-1" d="M335.36,403.92A55.55,55.55,0,0,1,301,375.11c-5.64-11.39-7.9-22.24-7.9-37.93,0-6.77-.22-12.36-.56-12.36s-5.86,2.47-12.18,5.37a153.4,153.4,0,0,1-22.78,8.28c-10.26,2.68-13.08,2.9-31,2.9-17.59,0-20.86-.32-30.56-2.79a122.53,122.53,0,0,1-56.38-31.71c-15.68-15.26-25.6-31.7-31.24-51.8l-2.82-10.32.23-69.85c.22-38.37.56-70.07.67-70.28s4.29.42,9,1.5c12.63,2.69,26.83,9.78,34.95,17.62l6.66,6.45,3-2.15c5.64-3.76,24-11.6,34.28-14.61,9.47-2.69,11.62-2.9,31.58-2.9,18.94-.11,22.55.21,30.67,2.36,44.2,11.61,76.68,42.56,88.52,84.36,2.82,10.21,2.71,3.33,2.37,125.74l-.34,82.43-3.61-.11A35,35,0,0,1,335.36,403.92ZM242.55,280.65c17.93-3.55,36.09-17.3,44.43-33.75,3.84-7.63,4.4-9.67,4.74-18.16.9-19.45-4.85-33.64-18.83-47-13.2-12.58-27.07-18.16-45.11-18.16-25,0-46.8,12.78-57.85,34.06-4.62,8.82-4.85,9.78-5.19,20.74-.33,8.6,0,13.12,1.47,17.84a64.81,64.81,0,0,0,45.11,43.53C219.1,281.94,233.87,282.37,242.55,280.65Z" style="fill: rgb(255, 255, 255); stroke: rgb(0, 0, 0);"/>
  <path class="cls-1" d="M398.17,305.9l.34-22.46,10.15.11c12.63.11,17.37,1.51,22.44,6.88,7.1,7.52,8,18.27,2.37,27.62-4.4,7-9.81,9.24-24,9.78l-11.5.43Zm22.67,17.41c8.46-2.9,12.4-8.59,12.4-18.05,0-4.84-.56-7-2.93-10.42-4.17-6-8.12-7.63-19.17-8l-9.25-.21-.33,17.73c-.12,9.67,0,18.27.22,19C402.57,325.25,415.2,325.14,420.84,323.31Z" style="stroke: rgb(0, 0, 0); fill: rgb(255, 255, 255);"/>
  <path class="cls-1" d="M491.77,325.79c-16.47-7.74-14.89-35.58,2.37-41.7,8.68-3.12,21.31-.22,27.06,6.23,9.7,11,5.3,31.06-7.89,36.22C507.67,328.8,497.41,328.47,491.77,325.79Zm20.86-2.8a19.72,19.72,0,0,0,6.88-6c2.48-3.65,3-5.58,3-11.39,0-12.89-7.89-20.09-21.08-19.23-7.9.53-11.73,2.9-15.23,9.45-5,9.14-2,21.28,6.32,26.55C497.29,325.36,506.77,325.68,512.63,323Z" style="stroke: rgb(0, 0, 0); fill: rgb(255, 255, 255);"/>
  <path class="cls-1" d="M624.83,305.8l.34-22.36,11.84.11c14,0,17.71,1.29,20.64,7.2,2.48,4.73,1.92,8.38-1.81,11.93l-2.59,2.47,3.16,2.69c5.07,4.51,5.52,11.5.9,15.9-3.16,3-9.47,4.3-21.76,4.3H624.61Zm25.71,17.62a11.38,11.38,0,0,0,5.53-4.19c1.58-2.58,1.58-3.22-.11-6.66-2.37-4.73-7.56-6.24-19.29-5.81l-8.12.33-.33,7.41c-.23,4.09-.12,8.06.22,8.92C629.23,325.25,644.91,325.25,650.54,323.42Zm1.92-21.71c5.75-3.87,3.5-12.46-4-14.5a47.14,47.14,0,0,0-12.06-.86l-7.9.32-.33,8.38-.34,8.28h11C646.94,303.33,650.77,302.9,652.46,301.71Z" style="stroke: rgb(0, 0, 0); fill: rgb(255, 255, 255);"/>
  <path class="cls-1" d="M704.9,305.8l.34-22.36h12.4c14.21,0,18.38,1.51,21.54,7.85,3.83,7.74-1,17.62-9.36,19.13l-3.72.64,8,8.49c6.43,6.77,7.56,8.49,5.76,8.49-1.47,0-5.42-3.22-10.6-8.59L721,310.74l-6.2.32-6.2.33-.34,8.38c-.22,6.45-.68,8.27-2,8.27S704.67,324.82,704.9,305.8Zm26.72.21c3.84-1.82,4.63-3.54,4.63-9.24,0-7.95-6.77-11.28-21.43-10.42l-6.2.32-.34,10.53-.34,10.42H718.2C725,307.62,729.59,307.09,731.62,306Z" style="stroke: rgb(0, 0, 0); fill: rgb(255, 255, 255);"/>
  <path class="cls-1" d="M779.1,327.51c0-1.51,19.62-42.13,21-43.53,1.13-1.07,1.92-1.18,2.82-.32s21.32,43,21.32,44.06c0,.22-.79.32-1.7.32s-2.93-2.36-4.51-5.37l-2.82-5.37H787.33L785,322.67c-1.35,3.22-3,5.37-4.06,5.37S779.1,327.83,779.1,327.51ZM812.93,313c0-1.72-10.6-24.72-11.39-24.72-.56,0-8.8,16.87-11.95,24.5-.46,1,2.25,1.29,11.39,1.29C808.31,314.07,812.93,313.64,812.93,313Z" style="stroke: rgb(0, 0, 0); fill: rgb(255, 255, 255);"/>
  <path class="cls-1" d="M871,326.54c-4.73-2-9.24-6.77-7.66-8.28.78-.75,2.25-.1,4.73,2.15,4.29,3.87,11,5.38,18,4.19,5.64-1,7.79-2.36,9.25-5.91,2.37-5.91-2.25-9.78-14.21-12.14C872,304.72,866,302.36,864.8,300a13.3,13.3,0,0,1-1.13-5.8c0-7.74,9.25-12.36,22-11.07,5.3.65,11.84,4.41,11.84,6.88,0,2.26-2.25,1.83-5.3-.86-2-1.83-4.39-2.47-9.69-2.79-6-.33-7.56,0-10.94,2.14-5.64,3.66-6.09,8.6-1,11.5,1.92,1.19,6.88,2.69,10.94,3.34,14.55,2.36,20,7.52,17.25,16.22-1,3.23-2.36,4.73-5.75,6.34C887.81,328.47,876.3,328.8,871,326.54Z" style="stroke: rgb(0, 0, 0); fill: rgb(255, 255, 255);"/>
  <path class="cls-1" d="M942.84,305.8c.22-16.55.67-22.25,1.8-22.68s1.35,4.62,1.35,22.25c0,19.56-.22,22.67-1.69,22.67S942.61,325.14,942.84,305.8Z" style="stroke: rgb(0, 0, 0); fill: rgb(255, 255, 255);"/>
  <path class="cls-1" d="M992.23,305.47c0-19.34.22-22.56,1.69-22.56s1.69,3,1.69,20.95v21h13c10.82,0,13,.32,13,1.61s-2.37,1.61-14.66,1.61H992.23Z" style="stroke: rgb(0, 0, 0); fill: rgb(255, 255, 255);"/>
  <path class="cls-1" d="M458.84,252.39l-3.95-3.77-6.2,2c-8.57,2.9-21.65,2.79-29.66,0-23.79-8.49-30.78-40.41-13-59.65,10.14-11.07,32.47-14,47.47-6.13,6.65,3.44,10.38,7.42,14.21,15.27,2.59,5.15,2.93,7.3,2.93,16.65,0,9-.45,11.72-2.71,16.45l-2.7,5.69,4.17,4L473.5,247l-4.85,4.52c-2.59,2.47-5.07,4.51-5.41,4.51A35.88,35.88,0,0,1,458.84,252.39Zm-17.48-12.58c9-2.36,16.35-12.79,16.35-23.1,0-14.62-9.24-24.08-23.45-24.08-15,0-23.91,8.81-23.91,23.65C410.35,233.69,424.33,244.22,441.36,239.81Z" style="stroke: rgb(0, 0, 0); fill: rgb(255, 255, 255);"/>
  <path class="cls-1" d="M507,252.81c-13.53-3.33-22.55-12.14-26.27-25.68-4.63-17.52,4.06-36.11,20.41-43.31,4.73-2,7.55-2.47,16.91-2.47,10.15,0,11.84.32,16.92,2.9a74.67,74.67,0,0,1,8.23,4.84l2.48,1.93-4.4,4.19-4.39,4.19-6-2.9c-14.44-6.77-30.67-1.5-36,11.72-3.16,7.84-.91,20.2,4.85,26.22,7.78,7.95,26.38,8.81,35,1.5,1.92-1.72,2.26-1.5,6.66,2.69l4.73,4.41-2.59,2.68C537.44,252,518.61,255.61,507,252.81Z" style="stroke: rgb(0, 0, 0); fill: rgb(255, 255, 255);"/>
  <path class="cls-1" d="M578,252.81c-17.37-4.19-27.86-19.45-26.39-38.47,1.69-21.6,17.48-34.6,40.37-33.31,14.77.86,24.13,6.66,31.12,19.45,2.71,4.94,3.05,6.77,3.16,16.33s-.34,11.5-3.27,17.52a34,34,0,0,1-17.37,16.55C599.8,253.35,584.8,254.43,578,252.81Zm17.25-11.92c13.31-2.69,20.63-16.23,16.91-31.06-5.07-20.21-34.05-23.43-44.31-5-3.39,6.13-3.39,18.6.11,25a22.48,22.48,0,0,0,14.43,11C588.52,242.18,588.75,242.18,595.29,240.89Z" style="stroke: rgb(0, 0, 0); fill: rgb(255, 255, 255);"/>
  <path class="cls-1" d="M637,216.81V181.89h16.35l11.51,15,11.39,15.15,11.5-15.15,11.61-15h15.45v69.85H701.29L701.06,227l-.33-24.82-11.28,14.51c-6.54,8.38-12.07,14.5-13.19,14.61s-6.32-5.8-13.2-14.72l-11.39-14.73v49.87H637Z" style="stroke: rgb(0, 0, 0); fill: rgb(255, 255, 255);"/>
  <path class="cls-1" d="M728.35,216.81v-35l8.12.32,8.12.32,11.17,14.51c6.09,7.95,11.39,14.29,11.84,14.08s5.63-6.77,11.5-14.51l10.82-14.08,8.12-.32,8.12-.32v70H792.63V227.56c0-13.43-.45-24.18-1-24.18s-6,6.34-12,14c-6.31,8.06-11.73,14-12.85,14s-6.32-5.91-12.41-14c-5.75-7.74-10.94-14-11.5-14s-1,10.85-1,24.18v24.18H728.35Z" style="stroke: rgb(0, 0, 0); fill: rgb(255, 255, 255);"/>
  <path class="cls-1" d="M819.69,216.81V181.89H875v12.89H833.23V210.9H872.7v11.82H833.23v16.12l20.63.22,20.53.32.33,6.23.34,6.13H819.69Z" style="stroke: rgb(0, 0, 0); fill: rgb(255, 255, 255);"/>
  <path class="cls-1" d="M885.1,216.81V181.89h19.51c22,0,28.42,1.18,34.17,6.23a28.73,28.73,0,0,1,5.63,6.77c2.6,4.73,2.71,16.33.12,21-2,3.76-9.14,10.1-11.28,10.1a6.81,6.81,0,0,0-2.93,1c-1.35.86.22,3,7.22,10.54,4.85,5.16,9.92,10.53,11.16,11.93l2.14,2.36-8.91-.11H933l-10-11.28-10-11.18H898.63v22.57H885.1Zm44.09-3.65c2.6-2.47,3.27-4.08,3.27-7.63s-.67-5.16-3.27-7.63c-3.27-3.12-3.38-3.12-16.91-3.12H898.63v21.5h13.65C925.81,216.28,925.92,216.28,929.19,213.16Z" style="stroke: rgb(0, 0, 0); fill: rgb(255, 255, 255);"/>
  <path class="cls-1" d="M955.58,248.84c1.13-1.72,6.43-9,11.84-16.44s10.15-14,10.6-14.73-4.06-7.84-10.94-17.19c-6.31-8.71-12-16.55-12.52-17.2-.56-1.07,1-1.39,7-1.39h7.66l6.66,9.45c3.72,5.16,7.89,11,9.47,12.9l2.71,3.55,9-13,9-12.89h15.67l-2,3c-1.12,1.62-6.76,9.35-12.51,17.31s-10.15,14.83-9.7,15.58,6,8.28,12.4,17,11.62,16.12,11.62,16.44-3.5.54-7.67.54h-7.78l-8.68-12.36c-4.74-6.77-9-12.36-9.48-12.36s-5,5.59-9.81,12.36l-8.79,12.36H953.66Z" style="stroke: rgb(0, 0, 0); fill: rgb(255, 255, 255);"/>
  <path class="cls-1" d="M122.23,88.49c-6.09-2.57-13.42-10.74-15.22-16.76-6.09-20.85,17.14-39.44,37.89-30.2,13.87,6.13,19.73,22.14,12.74,35.14-2.37,4.62-9,10.32-14.1,12.36C138.24,91.18,127.64,90.86,122.23,88.49Z"/>
  <g id="layer102">
    <path class="cls-2" d="M209.06,337c-9.81-1.29-18.83-4.08-34.39-10.42-22-9-48.38-34.28-57.74-55.35-1.24-2.68-2.93-6.34-3.72-8.17A36.66,36.66,0,0,1,111,256.9c-.45-1.72-1.24-2.8-1.69-2.47s-.56-.76-.22-2.37.11-2.58-.57-2.15-.9-.75-.56-2.68.11-3-.56-2.69-.79-1.07-.57-3.22,0-3.55-.45-3.23c-1,.54-.79-132.51.11-133.47.23-.22,4.29.42,9,1.5,13.41,2.79,26.83,9.78,36,18.7,9,8.7,9,8.7,11.73,17,1.8,5.59,2,10.21,1.57,47.39-.33,46-.33,46.75,7.45,60.83s23.68,26,40.37,30.09c8.12,2,21.42,2.26,30,.54,19.74-3.87,39.81-20.53,46.69-38.58,1.13-2.9,2.48-5.38,2.93-5.38s.9,18.81.9,41.81v41.81l-5.18,2.9A122.93,122.93,0,0,1,255.3,335c-1.24.32-4.51,1-7.33,1.5C243,337.61,215.94,337.82,209.06,337Z"/>
    <path class="cls-2" d="M292.17,232.4c0-1.51.23-2.05.57-1.29a5.52,5.52,0,0,1,0,2.68C292.4,234.44,292.17,233.9,292.17,232.4Z"/>
    <path class="cls-2" d="M122.23,88.49c-6.09-2.57-13.42-10.74-15.22-16.76-6.09-20.85,17.14-39.44,37.89-30.2,13.87,6.13,19.73,22.14,12.74,35.14-2.37,4.62-9,10.32-14.1,12.36C138.24,91.18,127.64,90.86,122.23,88.49Z"/>
  </g>
  <g id="layer103">
    <path class="cls-3" d="M205.68,336.21a132.83,132.83,0,0,1-55.26-24.82c-7.55-5.81-21.08-19.78-24.58-25.47-6.43-10.32-12.18-22.36-15.22-31.82-1.7-5.48-3.39-9.67-3.72-9.45s-.34-1.18-.12-3.33.12-3.55-.45-3.23c-.9.54-.79-132.51.11-133.47,1.24-1.19,19.06,4,27.41,7.95,9.92,4.73,22,14.72,25.37,21,5.86,10.75,5.75,9.46,5.41,54.71-.22,47.17-.11,47.82,7.56,61.79,7.78,14.19,23.68,26,40.37,30.09,8.12,2,21.42,2.26,30,.54,19.74-3.87,39.81-20.53,46.69-38.58,1.13-2.9,2.48-5.38,2.93-5.38s.9,18.81.9,41.81v41.81l-11.5,5.48c-17.25,8.16-30.22,11.07-51.08,11.5C219.55,337.5,210.75,337.18,205.68,336.21Z"/>
    <path class="cls-3" d="M292.17,232.4c0-1.51.23-2.05.57-1.29a5.52,5.52,0,0,1,0,2.68C292.4,234.44,292.17,233.9,292.17,232.4Z"/>
    <path class="cls-3" d="M122.23,88.49c-6.09-2.57-13.42-10.74-15.22-16.76-6.09-20.85,17.14-39.44,37.89-30.2,13.87,6.13,19.73,22.14,12.74,35.14-2.37,4.62-9,10.32-14.1,12.36C138.24,91.18,127.64,90.86,122.23,88.49Z"/>
  </g>
  <g id="layer104">
    <path class="cls-4" d="M210.75,337.07c-28-5.05-48.94-15.15-67.88-32.45A110.61,110.61,0,0,1,118,272.16c-4.29-8.49-9.14-22.35-10.38-29.55a52,52,0,0,0-1.35-5.92c-.68-1.82-.45-131.32.22-132,1.24-1.29,19,3.76,27.41,7.85,9.92,4.73,22,14.72,25.37,21,5.86,10.75,5.75,9.46,5.41,54.71-.22,47.17-.11,47.82,7.56,61.79,7.78,14.19,23.68,26,40.37,30.09,8.12,2,21.42,2.26,30,.54,19.74-3.87,39.81-20.53,46.69-38.58,1.13-2.9,2.48-5.38,2.93-5.38s.9,18.81.9,41.81v41.7l-9.24,4.4c-21.77,10.11-30.56,12.15-53.34,12.58C221.24,337.39,212.33,337.29,210.75,337.07Z"/>
    <path class="cls-4" d="M292,233.47c0-.75.33-1.07.79-.75a1.26,1.26,0,0,1,0,1.5C292.28,234.55,292,234.22,292,233.47Z"/>
    <path class="cls-4" d="M122.23,88.49c-6.09-2.57-13.42-10.74-15.22-16.76-6.09-20.85,17.14-39.44,37.89-30.2,13.87,6.13,19.73,22.14,12.74,35.14-2.37,4.62-9,10.32-14.1,12.36C138.24,91.18,127.64,90.86,122.23,88.49Z"/>
  </g>
  <g id="layer105">
    <path class="cls-5" d="M207.93,336c-46.46-7.85-82.43-37.83-96.75-80.5-5-14.72-5.41-21.6-5.3-87.59,0-34.49.34-63,.56-63.19,1.24-1.29,18.84,3.76,27.41,7.85,13.87,6.66,24,16.66,28.86,28.48,1.81,4.4,2,8.92,1.92,47.28-.11,47.29-.11,47.72,7.56,61.69,7.78,14.19,23.68,26,40.37,30.09,8.12,2,21.42,2.26,30,.54,19.74-3.87,39.81-20.53,46.69-38.58,1.13-2.9,2.48-5.38,2.93-5.38s.9,18.38.9,40.84c0,46.86,1,42.56-11.5,48.15C258.12,336.32,231.62,340,207.93,336Z" style="stroke: rgb(0, 0, 0);"/>
    <path class="cls-5" d="M122.23,88.49c-6.09-2.57-13.42-10.74-15.22-16.76-6.09-20.85,17.14-39.44,37.89-30.2,13.87,6.13,19.73,22.14,12.74,35.14-2.37,4.62-9,10.32-14.1,12.36C138.24,91.18,127.64,90.86,122.23,88.49Z" style="stroke: rgb(0, 0, 0);"/>
  </g>
  <text class="cls-6" transform="translate(1031.46 186.83) scale(1.29 1)" style="fill: rgb(255, 255, 255); stroke: rgb(0, 0, 0);">®</text>
</svg>