<!DOCTYPE svg PUBLIC "-//W3C//DTD SVG 20010904//EN" "http://www.w3.org/TR/2001/REC-SVG-20010904/DTD/svg10.dtd">
<svg version="1.0" xmlns="http://www.w3.org/2000/svg" width="880px" height="380px" viewBox="0 0 8800 3800" preserveAspectRatio="xMidYMid meet">
<g id="layer101" fill="#121617" stroke="none">
 <path d="M2395 3606 c-136 -43 -243 -137 -305 -268 -50 -106 -70 -207 -70 -353 0 -63 -2 -115 -5 -115 -3 0 -52 23 -108 50 -56 28 -147 62 -202 77 -91 25 -116 27 -275 27 -156 0 -185 -3 -271 -26 -193 -52 -359 -150 -500 -295 -139 -142 -227 -295 -277 -482 l-25 -96 2 -650 c2 -357 5 -652 6 -654 2 -2 38 4 80 14 112 25 238 91 310 164 l59 60 27 -20 c50 -35 213 -108 304 -136 84 -25 103 -27 280 -27 168 -1 200 2 272 22 392 108 680 396 785 785 25 95 24 31 21 1170 l-3 767 -32 -1 c-18 0 -51 -6 -73 -13z m-823 -1147 c159 -33 320 -161 394 -314 34 -71 39 -90 42 -169 8 -181 -43 -313 -167 -437 -117 -117 -240 -169 -400 -169 -222 0 -415 119 -513 317 -41 82 -43 91 -46 193 -3 80 0 122 13 166 57 197 208 350 400 405 69 20 200 24 277 8z"/>
 <path d="M2952 2694 l3 -209 90 1 c112 1 154 14 199 64 63 70 71 170 21 257 -39 65 -87 86 -213 91 l-102 4 2 -208z m201 162 c75 -27 110 -80 110 -168 0 -45 -5 -65 -26 -97 -37 -56 -72 -71 -170 -74 l-82 -2 -3 165 c-1 90 0 170 2 177 7 17 119 16 169 -1z"/>
 <path d="M3782 2879 c-146 -72 -132 -331 21 -388 77 -29 189 -2 240 58 86 102 47 289 -70 337 -50 21 -141 18 -191 -7z m185 -26 c19 -9 47 -34 61 -56 22 -34 27 -52 27 -106 0 -120 -70 -187 -187 -179 -70 5 -104 27 -135 88 -44 85 -18 198 56 247 42 28 126 31 178 6z"/>
 <path d="M4962 2693 l3 -208 105 1 c124 0 157 12 183 67 22 44 17 78 -16 111 l-23 23 28 25 c45 42 49 107 8 148 -28 28 -84 40 -193 40 l-97 0 2 -207z m228 164 c19 -7 41 -24 49 -39 14 -24 14 -30 -1 -62 -21 -44 -67 -58 -171 -54 l-72 3 -3 69 c-2 38 -1 75 2 83 7 17 146 17 196 0z m17 -202 c51 -36 31 -116 -35 -135 -20 -6 -68 -10 -107 -8 l-70 3 -3 78 -3 77 98 0 c71 0 105 -4 120 -15z"/>
 <path d="M5672 2693 l3 -208 110 0 c126 0 163 14 191 73 34 72 -9 164 -83 178 l-33 6 71 79 c57 63 67 79 51 79 -13 0 -48 -30 -94 -80 l-73 -81 -55 3 -55 3 -3 78 c-2 60 -6 77 -18 77 -12 0 -14 -30 -12 -207z m237 2 c34 -17 41 -33 41 -86 0 -74 -60 -105 -190 -97 l-55 3 -3 98 -3 97 91 0 c60 0 101 -5 119 -15z"/>
 <path d="M6330 2895 c0 -14 174 -392 186 -405 10 -10 17 -11 25 -3 9 9 189 400 189 410 0 2 -7 3 -15 3 -8 0 -26 -22 -40 -50 l-25 -50 -124 0 -123 0 -21 50 c-12 30 -27 50 -36 50 -9 0 -16 -2 -16 -5z m300 -135 c0 -16 -94 -230 -101 -230 -5 0 -78 157 -106 228 -4 9 20 12 101 12 65 0 106 -4 106 -10z"/>
 <path d="M7145 2886 c-42 -19 -82 -63 -68 -77 7 -7 20 -1 42 20 38 36 98 50 160 39 50 -9 69 -22 82 -55 21 -55 -20 -91 -126 -113 -81 -17 -134 -39 -145 -61 -6 -10 -10 -34 -10 -54 0 -72 82 -115 195 -103 47 6 105 41 105 64 0 21 -20 17 -47 -8 -18 -17 -39 -23 -86 -26 -53 -3 -67 0 -97 20 -50 34 -54 80 -9 107 17 11 61 25 97 31 129 22 177 70 153 151 -9 30 -21 44 -51 59 -46 24 -148 27 -195 6z"/>
 <path d="M7782 2693 c2 -154 6 -207 16 -211 9 -3 12 43 12 207 0 182 -2 211 -15 211 -13 0 -15 -27 -13 -207z"/>
 <path d="M8220 2690 c0 -180 2 -210 15 -210 13 0 15 28 15 195 l0 195 115 0 c96 0 115 3 115 15 0 13 -21 15 -130 15 l-130 0 0 -210z"/>
 <path d="M3490 2196 l-35 -35 -55 19 c-76 27 -192 26 -263 0 -211 -79 -273 -376 -115 -555 90 -103 288 -130 421 -57 59 32 92 69 126 142 23 48 26 68 26 155 0 84 -4 109 -24 153 l-24 53 37 37 36 38 -43 42 c-23 23 -45 42 -48 42 -2 0 -20 -16 -39 -34z m-155 -117 c80 -22 145 -119 145 -215 0 -136 -82 -224 -208 -224 -133 0 -212 82 -212 220 0 162 124 260 275 219z"/>
 <path d="M3917 2200 c-120 -31 -200 -113 -233 -239 -41 -163 36 -336 181 -403 42 -19 67 -23 150 -23 90 0 105 3 150 27 28 15 60 35 73 45 l22 18 -39 39 -39 39 -53 -27 c-128 -63 -272 -14 -319 109 -28 73 -8 188 43 244 69 74 234 82 310 14 17 -16 20 -14 59 25 l42 41 -23 25 c-54 58 -221 92 -324 66z"/>
 <path d="M4547 2200 c-154 -39 -247 -181 -234 -358 15 -201 155 -322 358 -310 131 8 214 62 276 181 24 46 27 63 28 152 0 90 -3 107 -29 163 -33 70 -86 124 -154 154 -52 23 -185 33 -245 18z m153 -111 c118 -25 183 -151 150 -289 -45 -188 -302 -218 -393 -46 -30 57 -30 173 1 233 26 51 75 89 128 102 54 12 56 12 114 0z"/>
 <path d="M5070 1865 l0 -325 73 0 72 0 102 140 101 141 102 -141 103 -140 68 0 69 0 0 325 0 325 -60 0 -60 0 -2 -230 -3 -231 -100 135 c-58 78 -107 135 -117 136 -10 0 -56 -54 -117 -137 l-101 -137 0 232 0 232 -65 0 -65 0 0 -325z"/>
 <path d="M5880 1865 l0 -326 72 3 72 3 99 135 c54 74 101 133 105 131 4 -2 50 -63 102 -135 l96 -131 72 -3 72 -3 0 326 0 325 -60 0 -60 0 0 -225 c0 -125 -4 -225 -9 -225 -5 0 -53 59 -106 130 -56 75 -104 130 -114 130 -9 0 -56 -55 -110 -130 -51 -72 -97 -130 -102 -130 -5 0 -9 101 -9 225 l0 225 -60 0 -60 0 0 -325z"/>
 <path d="M6690 1865 l0 -325 245 0 245 0 0 60 0 60 -185 0 -185 0 0 75 0 75 175 0 175 0 0 55 0 55 -175 0 -175 0 0 75 0 75 183 2 182 3 3 58 3 57 -246 0 -245 0 0 -325z"/>
 <path d="M7270 1865 l0 -325 173 0 c195 0 252 11 303 58 18 16 40 44 50 63 23 44 24 152 1 195 -18 35 -81 94 -100 94 -7 0 -18 4 -26 9 -12 8 2 28 64 98 43 48 88 98 99 111 l19 22 -79 -1 -79 0 -89 -105 -89 -104 -63 0 -64 0 0 105 0 105 -60 0 -60 0 0 -325z m391 -34 c23 -23 29 -38 29 -71 0 -33 -6 -48 -29 -71 -29 -29 -30 -29 -150 -29 l-121 0 0 100 0 100 121 0 c120 0 121 0 150 -29z"/>
 <path d="M7895 2163 c10 -16 57 -84 105 -153 48 -69 90 -130 94 -137 4 -7 -36 -73 -97 -160 -56 -81 -106 -154 -111 -160 -5 -10 9 -13 62 -13 l68 0 59 88 c33 48 70 102 84 120 l24 33 80 -121 80 -120 70 0 69 0 -18 28 c-10 15 -60 87 -111 161 -52 74 -90 138 -86 145 4 6 53 77 110 158 57 81 103 150 103 153 0 3 -31 5 -68 5 l-69 0 -77 -115 c-42 -63 -80 -115 -84 -115 -5 0 -44 52 -87 115 l-78 115 -70 0 -69 0 17 -27z"/>
 <path d="M505 671 c-54 -24 -119 -100 -135 -156 -54 -194 152 -367 336 -281 123 57 175 206 113 327 -21 43 -80 96 -125 115 -47 20 -141 17 -189 -5z"/>
 </g>
<g id="layer102" fill="#2e2b16" stroke="none">
 <path d="M1275 2983 c-87 -12 -167 -38 -305 -97 -195 -84 -429 -319 -512 -515 -11 -25 -26 -59 -33 -76 -7 -16 -17 -42 -20 -57 -4 -16 -11 -26 -15 -23 -4 2 -5 -7 -2 -22 3 -15 1 -24 -5 -20 -5 4 -8 -7 -5 -25 3 -17 1 -28 -5 -25 -5 3 -7 -10 -5 -30 3 -20 0 -33 -4 -30 -9 5 -7 -1233 1 -1242 2 -2 38 4 80 14 119 26 238 91 319 174 80 81 80 81 104 158 16 52 18 95 14 441 -3 428 -3 435 66 566 69 132 210 242 358 280 72 19 190 21 266 5 175 -36 353 -191 414 -359 10 -27 22 -50 26 -50 4 0 8 175 8 389 l0 389 -46 27 c-78 46 -194 90 -289 110 -11 3 -40 9 -65 14 -44 10 -284 12 -345 4z"/>
 <path d="M2012 2010 c0 -14 2 -19 5 -12 2 6 2 18 0 25 -3 6 -5 1 -5 -13z"/>
 <path d="M505 671 c-54 -24 -119 -100 -135 -156 -54 -194 152 -367 336 -281 123 57 175 206 113 327 -21 43 -80 96 -125 115 -47 20 -141 17 -189 -5z"/>
 </g>
<g id="layer103" fill="#413e2a" stroke="none">
 <path d="M1245 2976 c-168 -32 -350 -117 -490 -231 -67 -54 -187 -184 -218 -237 -57 -96 -108 -208 -135 -296 -15 -51 -30 -90 -33 -88 -3 3 -3 -11 -1 -31 3 -20 1 -33 -4 -30 -8 5 -7 -1233 1 -1242 11 -11 169 37 243 74 88 44 195 137 225 195 52 100 51 88 48 509 -2 439 -1 445 67 575 69 132 210 242 358 280 72 19 190 21 266 5 175 -36 353 -191 414 -359 10 -27 22 -50 26 -50 4 0 8 175 8 389 l0 389 -102 51 c-153 76 -268 103 -453 107 -97 2 -175 -1 -220 -10z"/>
 <path d="M2012 2010 c0 -14 2 -19 5 -12 2 6 2 18 0 25 -3 6 -5 1 -5 -13z"/>
 <path d="M505 671 c-54 -24 -119 -100 -135 -156 -54 -194 152 -367 336 -281 123 57 175 206 113 327 -21 43 -80 96 -125 115 -47 20 -141 17 -189 -5z"/>
 </g>
<g id="layer104" fill="#6d5814" stroke="none">
 <path d="M1290 2984 c-248 -47 -434 -141 -602 -302 -96 -92 -165 -187 -221 -302 -38 -79 -81 -208 -92 -275 -4 -22 -9 -47 -12 -55 -6 -17 -4 -1222 2 -1228 11 -12 168 35 243 73 88 44 195 137 225 195 52 100 51 88 48 509 -2 439 -1 445 67 575 69 132 210 242 358 280 72 19 190 21 266 5 175 -36 353 -191 414 -359 10 -27 22 -50 26 -50 4 0 8 175 8 389 l0 388 -82 41 c-193 94 -271 113 -473 117 -82 2 -161 1 -175 -1z"/>
 <path d="M2010 2020 c0 -7 3 -10 7 -7 3 4 3 10 0 14 -4 3 -7 0 -7 -7z"/>
 <path d="M505 671 c-54 -24 -119 -100 -135 -156 -54 -194 152 -367 336 -281 123 57 175 206 113 327 -21 43 -80 96 -125 115 -47 20 -141 17 -189 -5z"/>
 </g>
<g id="layer105" fill="#ffbc00" stroke="none">
 <path d="M1265 2974 c-412 -73 -731 -352 -858 -749 -44 -137 -48 -201 -47 -815 0 -321 3 -586 5 -588 11 -12 167 35 243 73 123 62 213 155 256 265 16 41 18 83 17 440 -1 440 -1 444 67 574 69 132 210 242 358 280 72 19 190 21 266 5 175 -36 353 -191 414 -359 10 -27 22 -50 26 -50 4 0 8 171 8 380 0 436 9 396 -102 448 -208 99 -443 133 -653 96z"/>
 <path d="M505 671 c-54 -24 -119 -100 -135 -156 -54 -194 152 -367 336 -281 123 57 175 206 113 327 -21 43 -80 96 -125 115 -47 20 -141 17 -189 -5z"/>
 </g>

</svg>