<svg xmlns="http://www.w3.org/2000/svg" viewBox="0 0 592 471" width="592" height="471">
	<style>
		tspan { white-space:pre }
		.shp0 { fill: #fbcc25 } 
		.shp1 { fill: #161005 } 
		.shp2 { fill: #184056 } 
		.shp3 { fill: #ffffff } 
		.shp4 { fill: #808080 } 
		.shp5 { fill: #030307 } 
		.shp6 { fill: #f66256 } 
		.shp7 { fill: #f7bd2d } 
		.shp8 { fill: #2acc41 } 
		.shp9 { fill: #4285f4 } 
		.shp10 { fill: #34a853 } 
		.shp11 { fill: #acb7bd } 
		.shp12 { fill: #d1dadf } 
		.shp13 { fill: #429fff } 
		.shp14 { fill: #000000 } 
		.shp15 { fill: #33658a } 
		.shp16 { fill: #fdb084 } 
		.shp17 { fill: #0e0e1a } 
		.shp18 { fill: #241905 } 
	</style>
	<g id="Layer 1">
		<g id="&lt;Group&gt;">
			<g id="&lt;Group&gt;">
				<path id="&lt;Path&gt;" class="shp0" d="M310.05 31.33C273.35 12.22 232.19 27.66 202.16 49.51C197.45 54.01 193.38 58.85 189.75 63.96C157.61 109.94 161.66 178.45 126.16 223.88C114.46 238.87 99.07 250.44 84.71 262.9C63.57 281.23 43.84 302.56 34.29 328.86C24.73 355.16 27.28 387.32 46.53 407.62C60.35 422.19 80.43 428.81 99.92 433.63C150.9 446.25 204.01 450.2 256.3 445.26C268.94 444.07 281.88 442.25 293.01 436.12C307.77 428 317.53 413.38 328.49 400.59C368.83 353.52 428.53 328.68 485.33 303.84C500.42 297.24 515.87 290.24 527.23 278.31C539.57 265.35 545.83 247.84 550.53 230.57C556.62 208.12 560.63 185.09 562.46 161.89C563.8 144.97 563.78 127.05 555.59 112.18C543.01 89.32 515.3 80.2 490 73.83C485.78 72.77 481.49 71.69 477.2 70.52C472.08 68.66 466.99 66.66 461.92 64.56C456.86 62.46 451.81 60.26 446.74 58.08C431.15 49.95 415.71 46.52 398.56 44.81C369.4 43.09 341.96 41.38 315.09 33.55C313.57 32.78 311.89 32.04 310.05 31.33Z" />
			</g>
			<g id="&lt;Group&gt;">
				<path id="&lt;Path&gt;" class="shp1" d="M143.88 365.9C143.56 365.93 143.33 366.64 143.1 366.83C142.47 367.33 141.54 368.74 141.24 369.5C141.05 369.97 140.89 370.91 140.59 371.28C140.39 371.5 139.9 371.74 139.6 371.98C138.15 373.12 135.81 376.4 136.39 378.39C137.01 380.54 139.28 381.31 141.28 381.79C142.66 382.13 143.61 383.75 144.76 384.39C147.77 386.06 150.55 385.91 153.87 384.49C154.13 384.37 155.77 383.15 155.45 382.88C154.27 381.88 152.41 380.43 150.86 379.39C149.76 378.66 148.28 377.63 147.83 376.33C147.18 374.42 147.32 372.44 148.28 370.69C148.53 370.24 149.97 368.3 149.71 367.87C148.56 365.99 144.87 364.53 143.14 366.58" />
			</g>
			<g id="&lt;Group&gt;">
				<path id="&lt;Path&gt;" class="shp1" d="M198.24 376.65C197.95 376.82 198.04 377.54 197.9 377.8C197.52 378.52 197.26 380.16 197.29 380.95C197.32 381.43 197.57 382.31 197.44 382.76C197.35 383.04 196.99 383.47 196.81 383.81C195.95 385.46 195.15 389.33 196.52 390.78C198.01 392.34 200.45 391.95 202.51 391.45C203.94 391.11 205.5 392.07 206.84 392.09C210.34 392.14 212.86 390.75 215.35 388.01C215.55 387.79 216.56 385.99 216.15 385.91C214.62 385.59 212.29 385.2 210.4 385.02C209.08 384.89 207.26 384.69 206.3 383.77C204.9 382.44 204.19 380.68 204.35 378.75C204.39 378.24 204.91 375.93 204.49 375.68C202.63 374.59 198.58 375.03 197.84 377.57" />
			</g>
			<g id="&lt;Group&gt;">
				<path id="&lt;Path&gt;" class="shp2" d="M514.17 311.18L372.1 311.18C366.07 311.18 361.18 306.29 361.18 300.26L361.18 191.03C361.18 185 366.07 180.11 372.1 180.11L514.17 180.11C520.2 180.11 525.08 185 525.08 191.03L525.08 300.26C525.08 306.29 520.2 311.18 514.17 311.18Z" />
			</g>
			<path id="&lt;Path&gt;" class="shp3" d="M521.14 191.43L521.14 302.8C521.14 305.7 519.08 308.02 516.55 308.02L369.72 308.02C367.18 308.02 365.12 305.7 365.12 302.8L365.12 191.43C365.12 188.55 367.18 186.21 369.72 186.21L516.55 186.21C519.08 186.21 521.14 188.55 521.14 191.43Z" />
			<g id="&lt;Group&gt;">
				<path id="&lt;Path&gt;" class="shp4" d="M521.14 232.04L521.14 302.8C521.14 305.7 519.08 308.02 516.55 308.02L395.94 308.02C393.39 308.02 391.33 305.63 391.33 302.68L391.33 291.4C391.33 289.79 391.96 288.28 393.01 287.26L422 259.55C424.17 257.47 427.42 258.13 428.85 260.95L437.82 278.42C439.3 281.29 442.63 281.9 444.79 279.71L505.06 218.63C506.96 216.69 509.87 216.93 511.54 219.16L521.14 232.04Z" />
			</g>
			<g id="&lt;Group&gt;">
				<path id="&lt;Path&gt;" class="shp5" d="M427.17 221.8C427.17 227.61 422.47 232.31 416.66 232.31C410.86 232.31 406.15 227.61 406.15 221.8C406.15 215.99 410.86 211.29 416.66 211.29C422.47 211.29 427.17 215.99 427.17 221.8Z" />
			</g>
			<g id="&lt;Group&gt;">
				<path id="&lt;Path&gt;" class="shp2" d="M412.26 323.89L140.69 323.89L140.69 52.33L412.26 52.33L412.26 323.89Z" />
			</g>
			<g id="&lt;Group&gt;">
				<path id="&lt;Path&gt;" class="shp3" d="M405.83 318.13L147.11 318.13L147.11 75.92L405.83 75.92L405.83 318.13Z" />
			</g>
			<g id="&lt;Group&gt;">
				<path id="&lt;Path&gt;" class="shp6" d="M157.33 65.17C157.33 67.99 155.04 70.28 152.22 70.28C149.4 70.28 147.11 67.99 147.11 65.17C147.11 62.35 149.4 60.06 152.22 60.06C155.04 60.06 157.33 62.35 157.33 65.17Z" />
			</g>
			<g id="&lt;Group&gt;">
				<path id="&lt;Path&gt;" class="shp7" d="M170.01 65.17C170.01 67.99 167.72 70.28 164.9 70.28C162.08 70.28 159.79 67.99 159.79 65.17C159.79 62.35 162.08 60.06 164.9 60.06C167.72 60.06 170.01 62.35 170.01 65.17Z" />
			</g>
			<g id="&lt;Group&gt;">
				<path id="&lt;Path&gt;" class="shp8" d="M182.69 65.17C182.69 67.99 180.41 70.28 177.58 70.28C174.76 70.28 172.47 67.99 172.47 65.17C172.47 62.35 174.76 60.06 177.58 60.06C180.41 60.06 182.69 62.35 182.69 65.17Z" />
			</g>
			<g id="&lt;Group&gt;">
				<path id="&lt;Path&gt;" class="shp9" d="M278.67 117.99L164.9 117.99L164.9 122.18L278.67 122.18L278.67 117.99Z" />
			</g>
			<g id="&lt;Group&gt;">
				<path id="&lt;Path&gt;" class="shp10" d="M239.74 127.29L164.9 127.29L164.9 131.49L239.74 131.49L239.74 127.29Z" />
			</g>
			<g id="&lt;Group&gt;">
				<path id="&lt;Path&gt;" class="shp11" d="M268.58 136.6L164.9 136.6L164.9 140.79L268.58 140.79L268.58 136.6Z" />
			</g>
			<g id="&lt;Group&gt;">
				<path id="&lt;Path&gt;" class="shp11" d="M260.58 144.2L164.9 144.2L164.9 148.4L260.58 148.4L260.58 144.2Z" />
			</g>
			<g id="&lt;Group&gt;">
				<path id="&lt;Path&gt;" class="shp9" d="M278.67 166.61L164.9 166.61L164.9 170.81L278.67 170.81L278.67 166.61Z" />
			</g>
			<g id="&lt;Group&gt;">
				<path id="&lt;Path&gt;" class="shp10" d="M239.74 175.92L164.9 175.92L164.9 180.11L239.74 180.11L239.74 175.92Z" />
			</g>
			<g id="&lt;Group&gt;">
				<path id="&lt;Path&gt;" class="shp11" d="M268.58 185.23L164.9 185.23L164.9 189.42L268.58 189.42L268.58 185.23Z" />
			</g>
			<g id="&lt;Group&gt;">
				<path id="&lt;Path&gt;" class="shp11" d="M260.58 192.83L164.9 192.83L164.9 197.02L260.58 197.02L260.58 192.83Z" />
			</g>
			<g id="&lt;Group&gt;">
				<path id="&lt;Path&gt;" class="shp9" d="M278.67 215.24L164.9 215.24L164.9 219.43L278.67 219.43L278.67 215.24Z" />
			</g>
			<g id="&lt;Group&gt;">
				<path id="&lt;Path&gt;" class="shp10" d="M239.74 224.55L164.9 224.55L164.9 228.74L239.74 228.74L239.74 224.55Z" />
			</g>
			<g id="&lt;Group&gt;">
				<path id="&lt;Path&gt;" class="shp11" d="M268.58 233.85L164.9 233.85L164.9 238.05L268.58 238.05L268.58 233.85Z" />
			</g>
			<g id="&lt;Group&gt;">
				<path id="&lt;Path&gt;" class="shp11" d="M260.58 241.45L164.9 241.45L164.9 245.65L260.58 245.65L260.58 241.45Z" />
			</g>
			<g id="&lt;Group&gt;">
				<path id="&lt;Path&gt;" class="shp12" d="M393.3 238.05L299.75 238.05C297.68 238.05 296 236.37 296 234.3L296 118.99C296 116.92 297.68 115.24 299.75 115.24L393.3 115.24C395.37 115.24 397.05 116.92 397.05 118.99L397.05 234.3C397.05 236.37 395.37 238.05 393.3 238.05Z" />
			</g>
			<g id="&lt;Group&gt;">
				<path id="&lt;Path&gt;" class="shp12" d="M355.1 100.3L196.15 100.3L196.15 87.71L355.1 87.71L355.1 100.3Z" />
			</g>
			<g id="&lt;Group&gt;">
				<path id="&lt;Path&gt;" class="shp13" d="M361.18 100.3L338.57 100.3L338.57 87.71L361.18 87.71L361.18 100.3Z" />
			</g>
			<g id="&lt;Group&gt;">
				<path id="&lt;Path&gt;" class="shp14" d="M73.43 324.25L52.64 324.25L52.64 265.69L73.43 265.69L73.43 324.25Z" />
			</g>
			<g id="&lt;Group&gt;">
				<path id="&lt;Path&gt;" class="shp14" d="M102.39 324.25L81.6 324.25L81.6 235.15L102.39 235.15L102.39 324.25Z" />
			</g>
			<g id="&lt;Group&gt;">
				<path id="&lt;Path&gt;" class="shp14" d="M131.34 324.25L110.55 324.25L110.55 197.28L131.34 197.28L131.34 324.25Z" />
			</g>
			<g id="&lt;Group&gt;">
				<path id="&lt;Path&gt;" class="shp15" d="M43.92 245.92L87.17 174.45L95.73 188.03L119.83 143.27L112.78 136.22L136.12 129.04L134.62 155.41L128.49 149.36L95.99 213.25L86.61 198.21L55.43 252.23L43.92 245.92Z" />
			</g>
			<g id="&lt;Group&gt;">
				<path id="&lt;Path&gt;" class="shp16" d="M247.75 275.58C247.94 275.66 248.57 275.29 248.75 275.21C249.03 275.08 249.4 275.08 249.7 275C250.48 274.79 251.25 274.41 252.04 274.18C252.18 274.14 253.19 273.71 253.28 273.92C253.53 274.46 253.19 275.44 253.21 276.04C253.23 276.45 253.44 276.84 253.52 277.24C253.61 277.73 253.54 278.26 253.59 278.75C253.63 279.14 253.75 279.56 253.54 279.93C253.32 280.31 252.7 280.62 252.29 280.74C251.2 281.06 250.04 281.1 248.93 281.36C248.45 281.47 247.68 281.64 247.22 281.47" />
			</g>
			<g id="&lt;Group&gt;">
				<path id="&lt;Path&gt;" class="shp16" d="M250.81 275.39C250.68 275.34 251.31 274.95 251.39 274.91C251.86 274.65 252.27 274.39 252.63 273.98C253 273.55 253.22 273 253.56 272.54C254.16 271.72 255.19 271.07 256.17 270.84C256.33 270.81 256.54 270.79 256.69 270.81C256.89 270.85 257.18 270.84 257.35 270.98C257.57 271.16 257.56 271.53 257.58 271.79C257.6 272.35 257.58 272.92 257.56 273.48C257.54 273.82 257.44 274.15 257.64 274.46C258.16 275.27 260.06 274.5 260.09 275.66C260.18 279.58 255.12 282.76 251.83 280.27C251.21 279.79 250.46 279.31 250.13 278.57C249.51 277.22 250.4 276.08 251.32 275.22C251.44 275.12 251.95 274.51 252.05 274.55" />
			</g>
			<g id="&lt;Group&gt;">
				<path id="&lt;Path&gt;" class="shp17" d="M173.31 304.15C170.33 307.14 170.21 311.92 169.41 315.93C168.73 319.35 166.63 323.65 164.42 326.31C163.5 327.4 163.02 328.79 162.08 329.89C157.79 334.91 154.25 340.55 150.77 346.12C147.78 350.9 144.62 355.96 143.28 361.33C142.97 362.57 142.38 363.67 142.11 365C142.08 365.17 141.72 366.09 141.88 366.24C142.91 367.28 144.21 368.02 145.85 368.43C146.45 368.58 146.72 369.19 147.26 369.37C148.06 369.63 148.83 370.34 149.52 370.69C149.73 370.8 150.02 371 150.38 371.31C150.49 370.97 150.57 370.71 150.61 370.54C150.76 369.96 151.05 369.36 151.32 368.82C152.12 367.2 152.34 365.33 153.34 363.83C154.89 361.51 156.76 359.18 159.04 357.66C159.63 357.27 160.28 356.35 160.75 355.87C162.01 354.62 164.25 352.99 165.82 352.2C170.51 349.86 174.92 344.22 177.29 339.49C178.93 336.2 179.23 332.35 180.33 329.04C181.51 325.5 181 321.42 182.2 317.8C183.02 315.36 183.74 312.61 185.17 310.47C185.67 309.72 186.3 309.13 186.81 308.37C186.92 308.19 187.59 307.85 187.59 307.66C187.59 307.65 186.95 307.6 186.88 307.59C186.26 307.43 185.26 307.3 184.7 306.96C182.25 305.49 179.1 302.93 175.89 304C175.14 304.25 174.31 304.44 173.62 304.78C173.37 304.91 173.29 305.4 172.92 305.4" />
			</g>
			<g id="&lt;Group&gt;">
				<path id="&lt;Path&gt;" class="shp17" d="M179.66 324.9C181.1 327.42 181.65 330.64 183.54 332.95C185.98 335.93 188.58 338.82 191.02 341.8C192.38 343.46 194.08 344.9 195.63 346.28C195.88 346.5 197.17 346.91 197.19 347.23C197.22 347.68 196.57 348.28 196.53 348.82C196.43 350.31 195.92 351.71 195.55 353.08C194.31 357.67 194.69 363.15 194.6 367.88C194.57 369.57 193.98 371.37 194.32 373.04C194.71 374.98 194.05 377.11 194.16 379.05C194.18 379.35 194.08 380.89 194.28 381.02C195.28 381.69 197.32 380.14 198.48 380.28C199.72 380.43 200.73 380.83 201.94 381.16C203.25 381.51 204.72 381.27 206 381.61C206.61 381.78 207.31 382.44 207.85 382.58C207.94 382.61 207.73 382.08 207.71 382.02C207.57 381.53 207.5 380.99 207.41 380.52C207.13 379.16 207.21 377.76 207.24 376.36C207.33 371.85 208 367.4 208.3 362.89C208.59 358.58 210.51 354.64 210.79 350.45C210.9 348.79 210.92 346.99 210.82 345.34C210.77 344.47 210.16 343.59 209.99 342.76C209.89 342.25 209.34 341.78 209.08 341.34C208.24 339.88 207.53 338.74 206.49 337.46C204.4 334.92 202.23 332.49 200.12 329.91C199.12 328.69 197.54 327.36 197.01 325.78C196.33 323.75 195.87 321.76 195.29 319.73C194.88 318.26 195.73 316.63 195.48 315.37C195.2 314.02 194.46 312.39 193.52 311.31C192.32 309.94 189.95 307.63 188.17 307.15C186.74 306.76 185.32 307.43 184.04 307.86C180.27 309.12 178.41 312.8 177.44 316.36C177.09 317.68 176.29 319.28 176.69 320.69C177.37 323.11 178.72 324.98 180.55 326.61C181.2 327.2 181.67 328.56 182.54 328.8" />
			</g>
			<g id="&lt;Group&gt;">
				<g id="&lt;Group&gt;">
					<path id="&lt;Compound Path&gt;" fill-rule="evenodd" class="shp14" d="M418.56 294.88L398.63 302.9C398.97 307.02 398.91 311.18 398.43 315.31L417.93 323.61L420.39 324.66L419.34 327.12L407.13 355.81L406.08 358.27L403.62 357.23L384.05 348.89C381.55 351.9 378.78 354.65 375.78 357.13L383.69 376.77L384.69 379.25L382.21 380.25L353.28 391.9L350.8 392.9L349.8 390.42L342.09 371.27C337.8 371.72 333.49 371.74 329.22 371.31L321.06 390.48L320.01 392.94L317.55 391.89L288.86 379.67L286.4 378.62L287.45 376.16L295.43 357.41C291.79 354.46 288.49 351.13 285.61 347.46L266.75 355.05L264.27 356.05L263.27 353.57L251.62 324.64L250.62 322.17L253.1 321.17L272.2 313.48C271.84 309.14 271.93 304.76 272.47 300.41L253.72 292.43L251.27 291.38L252.31 288.93L264.53 260.23L265.58 257.77L268.04 258.82L287.2 266.98C289.79 263.95 292.67 261.16 295.78 258.66L287.97 239.28L286.97 236.8L289.45 235.8L318.38 224.15L320.86 223.15L321.86 225.63L329.67 245.02C333.85 244.64 338.07 244.68 342.27 245.14L350.6 225.57L351.65 223.11L354.11 224.16L382.8 236.38L385.26 237.42L384.21 239.88L375.91 259.38C379.35 262.23 382.47 265.42 385.22 268.92L404.91 260.99L407.39 259.99L408.39 262.47L420.04 291.4L421.04 293.88L418.56 294.88L418.56 294.88ZM321.27 273.06C301.9 280.86 292.49 302.97 300.29 322.34C308.09 341.71 330.19 351.12 349.56 343.32C368.93 335.52 378.34 313.41 370.54 294.04C362.74 274.67 340.64 265.26 321.27 273.06Z" />
				</g>
			</g>
			<g id="&lt;Group&gt;">
				<path id="&lt;Path&gt;" class="shp4" d="M210.85 268.25C210.02 267.94 209.44 267.44 208.49 267.29C204.89 266.71 199.92 267.78 196.89 269.81C195.54 270.72 193.4 271.15 192.42 272.57C191.67 273.67 190.61 274.52 189.85 275.62C188.2 278.01 186.77 280.66 185.48 283.28C183.73 286.83 181.23 289.95 179.16 293.28C178.15 294.91 176.58 296.46 175.2 297.74C173.76 299.07 172.55 300.85 171.32 302.36C170.77 303.04 170.16 303.74 169.51 304.33C169.46 304.38 168.86 304.84 168.92 304.97C169.14 305.45 171.54 305.88 172.01 306.06C174.95 307.16 177.59 308.71 180.36 310.11C183.52 311.71 187.45 312.6 190.46 314.47C191.9 315.36 193.23 316.42 194.71 317.27C195.79 317.9 196.58 318.98 197.76 319.42C197.99 319.5 198.68 319.88 198.88 319.69C199.46 319.15 199.35 317.8 199.33 317.15C199.3 315.58 199.11 313.9 199.49 312.34C200.89 306.44 201.73 300.38 205.58 295.31C207.13 293.26 208.77 291.87 210.7 290.22C211.56 289.49 212.52 288.46 213.54 287.99C214.93 287.36 216.41 286.82 217.7 286.05C217.84 285.97 218.76 285.51 218.79 285.45C218.84 285.3 218.07 284.57 217.98 284.36C217.36 283 216.5 281.63 215.69 280.36C214.55 278.58 213.62 276.75 213.43 274.93C213.36 274.26 213.85 273.24 214.11 272.54C214.16 272.39 214.52 271.73 214.46 271.6C214.02 270.63 211.91 271.13 211.52 270.29C211.33 269.86 210.33 269.72 210.16 269.34C210.11 269.25 209.72 268.19 209.65 268.22C209.59 268.25 209.42 268.82 209.41 268.85" />
			</g>
			<g id="&lt;Group&gt;">
				<path id="&lt;Path&gt;" class="shp18" d="M211.07 266.44C210.75 266.26 210.92 264.93 210.95 264.55C211.04 263.16 210.94 261.54 211.24 260.13C211.42 259.27 211.76 258.51 212.07 257.69C212.36 256.94 212.86 256.27 213.21 255.55C214.69 252.46 217.46 249.72 221.14 250.1C222.64 250.25 224 251.01 225.33 251.6C227.43 252.54 228.48 254.1 229.8 255.8C230.78 257.06 232.3 257.77 233.46 258.81C234.3 259.56 234.61 261.01 234.73 262.05C234.84 262.98 234.15 263.87 233.43 264.33C233.01 264.61 232.58 265.11 232.07 265.24C230.46 265.66 228.9 265.79 227.23 265.81C224.59 265.84 222.61 267.84 220.04 268.21C218.99 268.37 218.09 268.02 217.06 267.89C215.72 267.72 214.42 267.38 213.15 266.95C212.22 266.63 211.7 265.78 210.93 265.33" />
			</g>
			<g id="&lt;Group&gt;">
				<path id="&lt;Path&gt;" class="shp16" d="M228.75 263.42C228.14 263.63 228 264.62 227.82 265.14C227.13 267.22 228.39 269.5 227.53 271.22C226.82 272.64 224.56 271.31 223.65 271.76C223.33 271.93 222.81 272.87 222.62 273.23C222.21 274.05 221.6 274.61 220.71 274.9C218.37 275.68 218.36 273.12 216.84 272.35C216.12 271.99 215.27 272.28 214.63 272.6C214.43 272.7 213.71 273.34 213.6 273.23C212.58 272.21 211.44 271.04 210.61 269.8C210.25 269.27 209.52 269.16 209.23 268.57C208.97 268.05 209.44 267.09 209.72 266.66C209.97 266.3 210.28 265.81 210.56 265.53C210.91 265.19 211.54 265.3 211.98 265.19C213.5 264.81 215.6 265.71 217.13 265.93C217.87 266.03 218.68 265.83 219.39 265.63C220.72 265.25 222.49 264.71 223.6 263.87C224.39 263.28 225.6 262.58 226.55 262.39C227.35 262.23 228.66 262.3 228.66 263.18" />
			</g>
			<g id="&lt;Group&gt;">
				<path id="&lt;Path&gt;" class="shp4" d="M213.39 273.42C213.42 273.32 213.79 273.09 213.67 272.97C213.56 272.84 213.9 273.23 214 273.37C214.21 273.66 214.48 273.93 214.72 274.19C215.45 274.98 216.08 276.06 217.03 276.61C219.78 278.19 223.05 278.48 226.22 278.26C231.46 277.91 236.75 276.53 241.89 275.44C243.7 275.06 245.6 274.56 247.27 273.8C247.52 273.69 248.76 273.1 248.9 273.26C249.16 273.53 249.09 274.07 249.19 274.4C249.36 274.97 249.62 275.56 249.73 276.15C249.8 276.52 249.71 277.01 249.87 277.35C250.18 278.03 250.3 279.08 250.18 279.81C249.59 283.45 244.78 283.88 241.82 284.42C239.17 284.91 236.49 285.23 233.83 285.72C230.18 286.39 226.56 287.77 222.88 287.18C221.55 286.96 215.42 287.26 214.01 287.45C211.27 287.81 212.21 286.38 214.59 285.62C216.97 284.85 212.94 283.09 211.51 280.85C210.81 279.76 210.58 278.61 210.23 277.39C209.96 276.46 210.15 274.69 210.91 274C211.35 273.58 211.87 273.25 212.35 272.91C212.72 272.64 213.87 272.87 213.64 273.47" />
			</g>
			<path id="&lt;Path&gt;" class="shp4" d="M228.4 390.49C228.4 392.12 204.37 393.45 174.73 393.45C145.08 393.45 121.05 392.12 121.05 390.49C121.05 388.86 145.08 387.53 174.73 387.53C204.37 387.53 228.4 388.86 228.4 390.49Z" />
			<path id="&lt;Path&gt;" class="shp4" d="M383.82 395.05C383.82 396.68 359.79 398 330.14 398C300.5 398 276.47 396.68 276.47 395.05C276.47 393.41 300.5 392.09 330.14 392.09C359.79 392.09 383.82 393.41 383.82 395.05Z" />
			<g id="&lt;Group&gt;">
				<path id="&lt;Path&gt;" class="shp16" d="M247.56 285.89C247.31 285.79 248.13 285.3 248.21 285.26C248.67 285.06 249.14 284.72 249.62 284.57C249.88 284.5 250.16 284.53 250.41 284.45C251.67 284.04 252.69 283.2 253.94 282.73C254.13 282.66 255.16 282.1 255.34 282.49C255.46 282.76 255.05 283.27 254.89 283.44C254.44 283.9 254.12 284.43 254.18 285.07C254.26 285.8 255 286.2 255.29 286.82C255.79 287.93 255.66 289.15 255.1 290.22C254.86 290.69 254.35 290.88 253.92 291.15C252.14 292.29 249.89 291.36 248.19 290.38C247.58 290.03 246.59 290.32 246.09 289.91C245.06 289.08 246.04 287.73 246.73 287.01C246.89 286.85 247.69 285.93 247.68 286.09" />
			</g>
			<g id="&lt;Group&gt;">
				<path id="&lt;Path&gt;" class="shp4" d="M249.52 283.97C249.57 283.83 249.19 284.16 249.09 284.22C248.76 284.43 248.46 284.71 248.14 284.92C247.23 285.5 245.91 285.88 244.87 286.26C243.46 286.77 241.96 287.05 240.51 287.47C238.29 288.13 236.14 288.85 233.85 289.29C231.71 289.7 229.45 289.96 227.28 290.09C225.13 290.22 223 290.61 220.85 290.53C219.23 290.47 217.48 290.8 215.89 290.42C214.35 290.05 212.87 289.77 211.37 289.21C211.17 289.14 210.11 288.52 209.89 288.62C209.72 288.7 209.37 289.2 209.25 289.35C208.9 289.79 208.39 290.06 207.99 290.43C206.48 291.83 204.66 293.21 203.68 295.08C203.44 295.55 203.15 296 202.88 296.45C202.85 296.51 202.57 296.87 202.61 296.96C202.74 297.23 203.16 297.52 203.4 297.79C204.13 298.57 204.8 299 205.72 299.63C206.19 299.95 207.23 300.16 207.74 300.1C208.28 300.05 209.08 300.35 209.61 300.44C210.69 300.61 211.72 300.66 212.82 300.78C214.42 300.97 216.14 300.76 217.77 300.72C218.47 300.71 219.35 300.41 220.04 300.52C220.94 300.66 221.9 300.28 222.82 300.26C224.04 300.23 225.53 299.99 226.72 299.64C228.38 299.15 230.43 298.89 232.15 298.71C233.58 298.56 235.35 297.78 236.67 297.18C238.29 296.45 240.19 296.15 241.81 295.41C242.8 294.96 243.88 294.31 244.71 293.64C245.8 292.78 247.19 292.42 248.05 291.36C248.45 290.86 249.15 290.6 249.36 290.02C249.84 288.76 249.94 287.35 250.09 286.02C250.14 285.54 249.99 284.81 249.87 284.55C249.8 284.41 249.32 284.02 249.65 284.14" />
			</g>
		</g>
	</g>
</svg>