<svg xmlns="http://www.w3.org/2000/svg" viewBox="0 0 2873 1194" width="2873" height="1194">
	<style>
		tspan { white-space:pre }
		.shp0 { fill: #fec926 } 
		.shp1 { fill: #8d847c } 
		.shp2 { fill: #ffc926 } 
		.shp3 { fill: #ffca26 } 
	</style>
	<path id="Ellipse 2" class="shp0" d="M176.37 90.1C218.21 90.1 252.14 124.01 252.14 165.83C252.14 207.66 218.21 241.57 176.37 241.57C134.53 241.57 100.6 207.66 100.6 165.83C100.6 124.01 134.53 90.1 176.37 90.1Z" />
	<path id="Ellipse 1 copy 2" fill-rule="evenodd" class="shp1" d="M435.03 294.97C621.93 294.97 773.45 446.42 773.45 633.26C773.45 820.09 621.93 971.55 435.03 971.55C248.12 971.55 96.6 820.09 96.6 633.26C96.6 446.42 248.12 294.97 435.03 294.97ZM258.24 630.73C258.24 729.73 338.52 809.98 437.55 809.98C536.58 809.98 616.86 729.73 616.86 630.73C616.86 531.74 536.58 451.49 437.55 451.49C338.52 451.49 258.24 531.74 258.24 630.73Z" />
	<path id="Ellipse 1 copy" fill-rule="evenodd" class="shp2" d="M438.03 958.55C251.12 958.55 99.6 807.09 99.6 620.26C99.6 508.85 153.48 410.01 236.61 348.37C273.64 393.89 263.9 442.63 263.9 442.63L263.9 579.86C263.9 579.86 264.34 580.05 265.14 580.38C262.58 592.43 261.24 604.92 261.24 617.73C261.24 716.73 341.52 796.98 440.55 796.98C539.58 796.98 619.86 716.73 619.86 617.73C619.86 616.32 619.85 614.92 619.82 613.52L635.02 615.21L650.17 670.75L660.27 776.78L703.22 830.44C641.22 908.49 545.47 958.55 438.03 958.55Z" />
	<path id="Shape 1" class="shp3" d="M102.21 605.11L102.21 281.06C102.21 281.06 263.9 294.12 263.9 437.58C263.9 581.04 263.9 731.34 263.9 731.34L263.9 786.88L119.81 670.75L102.21 605.11Z" />
	<path id="Shape 2" class="shp1" d="M770.29 1156.95C770.29 1156.95 617.93 1155.4 617.93 952.5C617.93 749.6 617.93 523.32 617.93 523.32L770.29 583.91L770.29 1156.95Z" />
	<path id="Qcommerx do Brasil " fill="#eceeec" d="M1064.7 748.58L1029.95 709.85L1025.68 709.85Q973.13 709.85 943.93 680.79Q914.74 651.74 914.74 599.9Q914.74 548.2 943.79 518.87Q972.98 489.53 1024.11 489.53Q1075.81 489.53 1104.58 518.58Q1133.49 547.63 1133.49 599.9Q1133.49 635.79 1118.11 661.71Q1102.87 687.63 1074.1 700.73L1116.97 748.58L1064.7 748.58ZM1024.11 529.26Q999.05 529.26 985.23 547.78Q971.42 566.29 971.42 599.9Q971.42 634.08 984.95 652.31Q998.48 670.4 1024.11 670.4Q1049.32 670.4 1063.13 651.88Q1076.95 633.37 1076.95 599.9Q1076.95 566.29 1063.13 547.78Q1049.32 529.26 1024.11 529.26ZM1343.55 650.32L1343.55 694.32Q1328.45 702.15 1312.07 706.14Q1295.7 710.13 1277.9 710.13Q1224.77 710.13 1193.73 680.51Q1162.68 650.74 1162.68 599.9Q1162.68 548.92 1193.73 519.29Q1224.77 489.53 1277.9 489.53Q1295.7 489.53 1312.07 493.52Q1328.45 497.5 1343.55 505.34L1343.55 549.34Q1328.31 538.95 1313.5 534.1Q1298.69 529.26 1282.31 529.26Q1252.97 529.26 1236.17 548.06Q1219.36 566.86 1219.36 599.9Q1219.36 632.8 1236.17 651.6Q1252.97 670.4 1282.31 670.4Q1298.69 670.4 1313.5 665.55Q1328.31 660.71 1343.55 650.32ZM1486.11 529.26Q1461.04 529.26 1447.23 547.78Q1433.41 566.29 1433.41 599.9Q1433.41 633.37 1447.23 651.88Q1461.04 670.4 1486.11 670.4Q1511.31 670.4 1525.13 651.88Q1538.94 633.37 1538.94 599.9Q1538.94 566.29 1525.13 547.78Q1511.31 529.26 1486.11 529.26ZM1486.11 489.53Q1537.38 489.53 1566.43 518.87Q1595.48 548.2 1595.48 599.9Q1595.48 651.45 1566.43 680.79Q1537.38 710.13 1486.11 710.13Q1434.98 710.13 1405.78 680.79Q1376.73 651.45 1376.73 599.9Q1376.73 548.2 1405.78 518.87Q1434.98 489.53 1486.11 489.53ZM1636.92 706L1636.92 493.37L1706.71 493.37L1755.13 607.16L1803.84 493.37L1873.48 493.37L1873.48 706L1821.64 706L1821.64 550.48L1772.65 665.13L1737.9 665.13L1688.91 550.48L1688.91 706L1636.92 706ZM1927.17 706L1927.17 493.37L1996.95 493.37L2045.37 607.16L2094.08 493.37L2163.72 493.37L2163.72 706L2111.88 706L2111.88 550.48L2062.89 665.13L2028.14 665.13L1979.15 550.48L1979.15 706L1927.17 706ZM2217.41 706L2217.41 493.37L2365.38 493.37L2365.38 534.82L2272.24 534.82L2272.24 574.41L2359.82 574.41L2359.82 615.85L2272.24 615.85L2272.24 664.56L2368.51 664.56L2368.51 706L2217.41 706ZM2471.48 587.65L2494.55 587.65Q2511.78 587.65 2519.19 581.24Q2526.74 574.84 2526.74 560.17Q2526.74 545.64 2519.19 539.37Q2511.78 533.11 2494.55 533.11L2471.48 533.11L2471.48 587.65ZM2487 625.54L2471.48 625.54L2471.48 706L2416.65 706L2416.65 493.37L2500.39 493.37Q2542.4 493.37 2561.91 507.47Q2581.57 521.57 2581.57 552.05Q2581.57 573.13 2571.31 586.66Q2561.2 600.19 2540.69 606.59Q2551.94 609.16 2560.77 618.27Q2569.75 627.24 2578.86 645.62L2608.62 706L2550.23 706L2524.31 653.16Q2516.48 637.21 2508.36 631.37Q2500.39 625.54 2487 625.54ZM2830.65 493.37L2759.73 597.48L2833.5 706L2776.39 706L2726.69 633.37L2677.41 706L2620.02 706L2693.79 597.48L2622.87 493.37L2680.12 493.37L2726.69 561.88L2773.11 493.37L2830.65 493.37ZM958.13 807.21L936.29 807.21L936.29 911.14L958.13 911.14Q985.79 911.14 998.59 898.61Q1011.48 886.07 1011.48 859.04Q1011.48 832.18 998.59 819.74Q985.79 807.21 958.13 807.21ZM918.2 926L918.2 792.35L955.35 792.35Q994.2 792.35 1012.38 808.55Q1030.55 824.67 1030.55 859.04Q1030.55 893.59 1012.29 909.8Q994.02 926 955.35 926L918.2 926ZM1212.62 804.61Q1192.93 804.61 1181.29 819.29Q1169.74 833.98 1169.74 859.31Q1169.74 884.55 1181.29 899.23Q1192.93 913.92 1212.62 913.92Q1232.32 913.92 1243.77 899.23Q1255.32 884.55 1255.32 859.31Q1255.32 833.98 1243.77 819.29Q1232.32 804.61 1212.62 804.61ZM1212.62 789.93Q1240.73 789.93 1257.56 808.82Q1274.39 827.62 1274.39 859.31Q1274.39 890.91 1257.56 909.8Q1240.73 928.6 1212.62 928.6Q1184.42 928.6 1167.5 909.8Q1150.67 891 1150.67 859.31Q1150.67 827.62 1167.5 808.82Q1184.42 789.93 1212.62 789.93ZM1606.04 862.17L1577.04 862.17L1577.04 911.14L1606.04 911.14Q1620.63 911.14 1627.61 905.14Q1634.69 899.06 1634.69 886.61Q1634.69 874.08 1627.61 868.17Q1620.63 862.17 1606.04 862.17ZM1603.8 807.21L1577.04 807.21L1577.04 847.49L1603.8 847.49Q1617.05 847.49 1623.5 842.57Q1630.03 837.56 1630.03 827.35Q1630.03 817.24 1623.5 812.22Q1617.05 807.21 1603.8 807.21ZM1558.95 926L1558.95 792.35L1605.14 792.35Q1625.82 792.35 1637.01 800.94Q1648.2 809.54 1648.2 825.38Q1648.2 837.65 1642.47 844.9Q1636.74 852.15 1625.64 853.94Q1638.98 856.8 1646.32 865.93Q1653.75 874.97 1653.75 888.58Q1653.75 906.49 1641.58 916.24Q1629.4 926 1606.93 926L1558.95 926ZM1847.1 863.34Q1852.92 865.31 1858.38 871.75Q1863.93 878.2 1869.48 889.48L1887.84 926L1868.41 926L1851.31 891.71Q1844.69 878.29 1838.42 873.9Q1832.24 869.51 1821.5 869.51L1801.81 869.51L1801.81 926L1783.73 926L1783.73 792.35L1824.55 792.35Q1847.46 792.35 1858.74 801.93Q1870.02 811.51 1870.02 830.84Q1870.02 843.46 1864.11 851.79Q1858.29 860.11 1847.1 863.34ZM1824.55 807.21L1801.81 807.21L1801.81 854.65L1824.55 854.65Q1837.62 854.65 1844.24 848.66Q1850.95 842.57 1850.95 830.84Q1850.95 819.12 1844.24 813.21Q1837.62 807.21 1824.55 807.21ZM2071.97 876.68L2047.35 810.16L2022.82 876.68L2071.97 876.68ZM1986.12 926L2037.14 792.35L2057.64 792.35L2108.58 926L2089.78 926L2077.61 891.71L2017.36 891.71L2005.19 926L1986.12 926ZM2307.21 796.74L2307.21 814.37Q2296.92 809.45 2287.79 807.03Q2278.66 804.61 2270.15 804.61Q2255.38 804.61 2247.33 810.34Q2239.36 816.07 2239.36 826.63Q2239.36 835.5 2244.64 840.06Q2250.01 844.54 2264.87 847.31L2275.79 849.55Q2296.02 853.4 2305.6 863.16Q2315.27 872.83 2315.27 889.12Q2315.27 908.54 2302.2 918.57Q2289.22 928.6 2264.07 928.6Q2254.58 928.6 2243.84 926.45Q2233.18 924.3 2221.72 920.09L2221.72 901.47Q2232.74 907.65 2243.3 910.78Q2253.86 913.92 2264.07 913.92Q2279.55 913.92 2287.97 907.83Q2296.38 901.74 2296.38 890.46Q2296.38 880.61 2290.3 875.06Q2284.3 869.51 2270.51 866.74L2259.5 864.59Q2239.27 860.56 2230.23 851.97Q2221.19 843.37 2221.19 828.07Q2221.19 810.34 2233.63 800.14Q2246.16 789.93 2268.09 789.93Q2277.49 789.93 2287.25 791.63Q2297.01 793.33 2307.21 796.74ZM2442.47 926L2442.47 792.35L2460.55 792.35L2460.55 926L2442.47 926ZM2595.54 926L2595.54 792.35L2613.62 792.35L2613.62 910.78L2678.7 910.78L2678.7 926L2595.54 926Z" />
</svg>