<svg xmlns="http://www.w3.org/2000/svg" xmlns:xlink="http://www.w3.org/1999/xlink" viewBox="0 0 1159.79 1346.14"><defs><style>.cls-1{fill:none;}.cls-2{isolation:isolate;}.cls-3{fill:url(#linear-gradient);}.cls-4{mix-blend-mode:multiply;}.cls-5{fill:#fff;}.cls-6{fill:#fffeff;}.cls-7{fill:#fffdfe;}.cls-8{fill:#fffcfe;}.cls-9{fill:#fefbfd;}.cls-10{fill:#fefafd;}.cls-11{fill:#fef9fc;}.cls-12{fill:#fef8fc;}.cls-13{fill:#fef7fc;}.cls-14{fill:#fef6fb;}.cls-15{fill:#fdf5fb;}.cls-16{fill:#fdf4fa;}.cls-17{fill:#fdf3fa;}.cls-18{fill:#fdf2fa;}.cls-19{fill:#fdf1f9;}.cls-20{fill:#fdf0f9;}.cls-21{fill:#fceff8;}.cls-22{fill:#fceef8;}.cls-23{fill:#fcedf7;}.cls-24{fill:#fcecf7;}.cls-25{fill:#fcebf7;}.cls-26{fill:#fceaf6;}.cls-27{fill:#fbe9f6;}.cls-28{fill:#fbe8f5;}.cls-29{fill:#fbe7f5;}.cls-30{fill:#fbe6f4;}.cls-31{fill:#fbe5f4;}.cls-32{fill:#fbe4f4;}.cls-33{fill:#fbe3f3;}.cls-34{fill:#fae2f3;}.cls-35{fill:#fae1f2;}.cls-36{fill:#fae0f2;}.cls-37{fill:#fadff2;}.cls-38{fill:#fadef1;}.cls-39{fill:#faddf1;}.cls-40{fill:#f9dcf0;}.cls-41{fill:#f9dbf0;}.cls-42{fill:#f9daef;}.cls-43{fill:#f9d9ef;}.cls-44{fill:#f9d8ef;}.cls-45{fill:#f9d7ee;}.cls-46{fill:#f8d6ee;}.cls-47{fill:#f8d5ed;}.cls-48{fill:#f8d4ed;}.cls-49{fill:#f8d3ed;}.cls-50{fill:#f8d2ec;}.cls-51{fill:#f8d1ec;}.cls-52{fill:#f7d0eb;}.cls-53{fill:#f7cfeb;}.cls-54{fill:#f7ceea;}.cls-55{fill:#f7cdea;}.cls-56{fill:#f7ccea;}.cls-57{fill:#f7cbe9;}.cls-58{fill:#f7cae9;}.cls-59{fill:#f6c9e8;}.cls-60{fill:#f6c8e8;}.cls-61{fill:#f6c7e7;}.cls-62{fill:#f6c6e7;}.cls-63{fill:#f6c5e7;}.cls-64{fill:#f6c4e6;}.cls-65{fill:#f5c4e6;}.cls-66{fill:#f5c3e5;}.cls-67{fill:#f5c2e5;}.cls-68{fill:#f5c1e5;}.cls-69{fill:#f5c0e4;}.cls-70{fill:#f5bfe4;}.cls-71{fill:#f4bee3;}.cls-72{fill:#f4bde3;}.cls-73{fill:#f4bce2;}.cls-74{fill:#f4bbe2;}.cls-75{fill:#f4bae2;}.cls-76{fill:#f4b9e1;}.cls-77{fill:#f4b8e1;}.cls-78{fill:#f3b7e0;}.cls-79{fill:#f3b6e0;}.cls-80{fill:#f3b5df;}.cls-81{fill:#f3b4df;}.cls-82{fill:#f3b3df;}.cls-83{fill:#f3b2de;}.cls-84{fill:#f2b1de;}.cls-85{fill:#f2b0dd;}.cls-86{fill:#f2afdd;}.cls-87{fill:#f2aedd;}.cls-88{fill:#f2addc;}.cls-89{fill:#f2acdc;}.cls-90{fill:#f1abdb;}.cls-91{fill:#f1aadb;}.cls-92{fill:#f1a9da;}.cls-93{fill:#f1a8da;}.cls-94{fill:#f1a7da;}.cls-95{fill:#f1a6d9;}.cls-96{fill:#f0a5d9;}.cls-97{fill:#f0a4d8;}.cls-98{fill:#f0a3d8;}.cls-99{fill:#f0a2d8;}.cls-100{fill:#f0a1d7;}.cls-101{fill:#f0a0d7;}.cls-102{fill:#f09fd6;}.cls-103{fill:#ef9ed6;}.cls-104{fill:#ef9dd5;}.cls-105{fill:#ef9cd5;}.cls-106{fill:#ef9bd5;}.cls-107{fill:#ef9ad4;}.cls-108{fill:#ef99d4;}.cls-109{fill:#ee98d3;}.cls-110{fill:#ee97d3;}.cls-111{fill:#ee96d2;}.cls-112{fill:#ee95d2;}.cls-113{fill:#ee94d2;}.cls-114{fill:#ee93d1;}.cls-115{fill:#ed92d1;}.cls-116{fill:#ed91d0;}.cls-117{fill:#ed90d0;}.cls-118{fill:#ed8fd0;}.cls-119{fill:#ed8ecf;}.cls-120{fill:#ed8dcf;}.cls-121{fill:#ec8cce;}.cls-122{fill:#ec8bce;}.cls-123{fill:#ec8acd;}.cls-124{fill:#ec89cd;}.cls-125{fill:url(#linear-gradient-2);}.cls-126{fill:url(#linear-gradient-3);}.cls-127{fill:url(#linear-gradient-4);}.cls-128{fill:url(#linear-gradient-5);}.cls-129{clip-path:url(#clip-path);}.cls-130{fill:#6e2733;}.cls-131{fill:#d1dbea;}.cls-132{fill:#b0bfde;}.cls-133{fill:#161711;}.cls-134{fill:#3c463b;}.cls-135{fill:#323b31;}.cls-136{fill:#0e2a3b;}.cls-137{fill:#dabf6f;}.cls-138{fill:#282723;}.cls-139{fill:#153d57;}.cls-140{fill:#dee7ec;}.cls-141{fill:#e1cd96;}.cls-142{fill:#15100c;}.cls-143{fill:#4d2020;}.cls-144{fill:#edeef0;}</style><linearGradient id="linear-gradient" x1="1328.42" y1="1682.65" x2="2481.89" y2="1682.65" gradientTransform="matrix(0.97, 0.23, -0.22, 0.94, -917.55, -1415.56)" gradientUnits="userSpaceOnUse"><stop offset="0" stop-color="#f07778"/><stop offset="1" stop-color="#c56a93"/></linearGradient><linearGradient id="linear-gradient-2" x1="430.83" y1="133.3" x2="1159.33" y2="133.3" gradientUnits="userSpaceOnUse"><stop offset="0" stop-color="#f07778"/><stop offset="1" stop-color="#ea8ed9"/></linearGradient><linearGradient id="linear-gradient-3" x1="161.69" y1="871.75" x2="349.68" y2="871.75" xlink:href="#linear-gradient-2"/><linearGradient id="linear-gradient-4" x1="8479.43" y1="-10929.98" x2="9614.91" y2="-10929.98" gradientTransform="translate(10188.15 -9792.15) rotate(-176.9)" gradientUnits="userSpaceOnUse"><stop offset="0" stop-color="#8e1b79"/><stop offset="1" stop-color="#ea8eb4"/></linearGradient><linearGradient id="linear-gradient-5" x1="848.77" y1="105.5" x2="1040.78" y2="663.56" xlink:href="#linear-gradient-2"/><clipPath id="clip-path"><path class="cls-1" d="M180.85,797.65c56.88-1.49,97.32-45.56,161.09-31.78,66.75,14.42,100.35,191.82,248.55,248.47,115.12,44,362.12,46.65,486-195.15s33.86-524.89-151.68-540.35c-134.51-11.21-238.52,38.82-349.09,35.52C473.11,311.31,367,220.67,271.64,219.12,117.86,216.62,41.25,355.4,9.84,464.24-20.09,568,13.14,802.07,180.85,797.65Z"/></clipPath></defs><title>img4</title><g class="cls-2"><g id="Layer_1" data-name="Layer 1"><path class="cls-3" d="M134,691.45c56.38,11.41,106.9-24.64,166.35,4,62.24,30,52.29,219.88,184.48,311.83,102.69,71.42,345.3,130.37,525.94-89.79S1171.46,386.08,992.49,328c-129.74-42.14-244.3-14.44-352.39-43-100.29-26.5-182.81-143.77-276.33-167.07C212.94,80.29,103.83,205.39,46.49,310-8.16,409.76-32.23,657.79,134,691.45Z"/><g class="cls-4"><path class="cls-5" d="M160.11,739.26c55.1,2.23,97.42-39.48,158.07-21.42,63.49,18.89,83.08,199.66,222.25,266.41,108.11,51.85,346.75,70.71,484.1-164.56s70.92-526.12-107.36-553.85c-129.24-20.11-233.45,23.42-340.11,12.85-99-9.8-195-108-287.08-115.81C141.47,150.28,57.3,284.94,19,392.44-17.48,494.88-2.38,732.7,160.11,739.26Z"/><path class="cls-6" d="M160.13,739.4c55.1,2.22,97.41-39.45,158.06-21.41,63.49,18.89,83.09,199.55,222.25,266.27,108.11,51.83,346.75,70.69,484.07-164.42S1095.39,294,917.12,266.31c-129.23-20.1-233.43,23.4-340.1,12.83-99-9.81-195-107.95-287.07-115.77C141.45,150.77,57.29,285.35,19,392.78-17.47,495.15-2.35,732.83,160.13,739.4Z"/><path class="cls-7" d="M160.15,739.53c55.1,2.23,97.4-39.42,158-21.38C381.69,737,401.3,917.59,540.46,984.27c108.11,51.81,346.73,70.67,484-164.28s70.84-525.48-107.42-553.2C787.84,246.69,683.65,290.15,577,279.58c-99-9.81-195-107.9-287.07-115.71C141.43,151.26,57.29,285.75,19,393.11-17.45,495.42-2.32,733,160.15,739.53Z"/><path class="cls-8" d="M160.17,739.67c55.1,2.23,97.4-39.39,158-21.36,63.49,18.88,83.11,199.32,222.27,266,108.11,51.78,346.72,70.65,484-164.16S1095.28,295,917,267.26C787.8,247.17,683.61,290.6,577,280c-99-9.81-195-107.85-287.06-115.67C141.41,151.75,57.28,286.15,19,393.45-17.44,495.69-2.29,733.09,160.17,739.67Z"/><path class="cls-9" d="M160.19,739.8c55.09,2.23,97.39-39.35,158-21.33,63.49,18.87,83.12,199.2,222.28,265.83,108.11,51.76,346.71,70.63,484-164S1095.22,295.45,917,267.74c-129.22-20.1-233.4,23.3-340.05,12.73-98.95-9.81-195-107.8-287-115.61C141.39,152.24,57.27,286.55,19,393.78-17.43,496-2.26,733.21,160.19,739.8Z"/><path class="cls-10" d="M160.21,739.93c55.09,2.24,97.38-39.32,158-21.3,63.48,18.86,83.12,199.09,222.28,265.68,108.1,51.74,346.69,70.62,483.92-163.88s70.72-524.5-107.52-552.22c-129.21-20.09-233.38,23.28-340,12.7-98.95-9.81-195-107.74-287-115.56C141.37,152.73,57.27,287,19,394.12-17.42,496.23-2.24,733.34,160.21,739.93Z"/><path class="cls-11" d="M160.23,740.07c55.09,2.24,97.38-39.29,158-21.28,63.48,18.85,83.13,199,222.29,265.54,108.1,51.7,346.68,70.59,483.89-163.76S1095.1,296.4,916.87,268.69c-129.21-20.09-233.37,23.24-340,12.67-98.95-9.82-195-107.69-287-115.52C141.35,153.22,57.26,287.36,19,394.45-17.41,496.5-2.21,733.47,160.23,740.07Z"/><path class="cls-12" d="M160.25,740.2c55.09,2.25,97.37-39.26,158-21.25,63.48,18.84,83.15,198.85,222.3,265.39,108.1,51.68,346.67,70.57,483.85-163.62s70.64-523.85-107.59-551.56c-129.21-20.08-233.36,23.21-340,12.64-99-9.81-195-107.64-287-115.46C141.33,153.71,57.26,287.76,19,394.79-17.39,496.77-2.18,733.59,160.25,740.2Z"/><path class="cls-13" d="M160.27,740.34c55.08,2.24,97.36-39.23,158-21.24C381.75,738,401.43,917.85,540.58,984.35c108.09,51.66,346.65,70.56,483.81-163.48S1095,297.34,916.77,269.64c-129.2-20.08-233.34,23.18-340,12.6-98.94-9.81-195-107.58-287-115.41C141.31,154.2,57.25,288.17,19,395.12-17.38,497-2.15,733.72,160.27,740.34Z"/><path class="cls-14" d="M160.29,740.47c55.08,2.25,97.35-39.2,158-21.21,63.48,18.84,83.17,198.63,222.32,265.1C648.69,1036,887.24,1054.9,1024.38,821s70.55-523.21-107.66-550.9c-129.2-20.08-233.33,23.14-340,12.57-98.94-9.82-195-107.54-287-115.37C141.29,154.69,57.24,288.57,19,395.46-17.37,497.31-2.12,733.85,160.29,740.47Z"/><path class="cls-15" d="M160.31,740.61c55.08,2.25,97.35-39.17,158-21.19,63.48,18.83,83.18,198.51,222.33,265,108.09,51.61,346.63,70.52,483.74-163.22s70.52-522.88-107.69-550.57c-129.19-20.07-233.32,23.12-339.94,12.54-98.93-9.82-195-107.48-287-115.31C141.27,155.18,57.24,289,19,395.79-17.36,497.58-2.1,734,160.31,740.61Z"/><path class="cls-16" d="M160.33,740.74c55.08,2.25,97.34-39.14,158-21.16C381.78,738.4,401.49,918,540.64,984.39c108.09,51.59,346.62,70.5,483.7-163.08s70.48-522.56-107.72-550.24C787.43,251,683.31,294.15,576.7,283.57c-98.93-9.81-195-107.43-287-115.26C141.25,155.68,57.23,289.38,19,396.13-17.35,497.85-2.07,734.1,160.33,740.74Z"/><path class="cls-17" d="M160.35,740.88c55.08,2.25,97.33-39.11,158-21.14C381.78,738.55,401.51,918,540.65,984.4c108.09,51.57,346.61,70.49,483.68-162.94s70.43-522.24-107.76-549.92C787.39,251.47,683.28,294.6,576.66,284c-98.92-9.82-195-107.38-287-115.22-148.43-12.63-232.44,121-270.61,227.66C-17.33,498.12-2,734.23,160.35,740.88Z"/><path class="cls-18" d="M160.37,741c55.07,2.26,97.33-39.08,158-21.11,63.46,18.8,83.2,198.16,222.34,264.51,108.09,51.55,346.6,70.47,483.64-162.81S1094.7,299.7,916.52,272C787.34,252,683.24,295,576.63,284.46c-98.92-9.82-195-107.33-287-115.16C141.21,156.66,57.22,290.18,19.05,396.8-17.32,498.39-2,734.35,160.37,741Z"/><path class="cls-19" d="M160.39,741.14c55.07,2.26,97.32-39,158-21.08,63.46,18.8,83.21,198.05,222.35,264.37,108.09,51.51,346.59,70.44,483.6-162.68s70.36-521.58-107.82-549.26c-129.17-20.06-233.27,23-339.87,12.42-98.92-9.82-195-107.28-287-115.12C141.19,157.15,57.21,290.59,19.05,397.13-17.31,498.66-2,734.48,160.39,741.14Z"/><path class="cls-20" d="M160.41,741.28c55.07,2.26,97.31-39,157.94-21.06C381.81,739,401.58,918.15,540.71,984.44c108.09,51.49,346.57,70.43,483.57-162.54S1094.59,300.64,916.42,273c-129.17-20.06-233.25,23-339.85,12.38-98.92-9.82-195-107.23-287-115.06C141.17,157.64,57.2,291,19.06,397.47-17.3,498.94-2,734.61,160.41,741.28Z"/><path class="cls-21" d="M160.43,741.41c55.07,2.27,97.3-39,157.93-21,63.46,18.79,83.24,197.82,222.37,264.08,108.08,51.47,346.56,70.41,483.53-162.41s70.27-520.93-107.89-548.6c-129.16-20.05-233.24,22.94-339.84,12.35-98.91-9.82-195-107.17-287-115C141.15,158.13,57.2,291.39,19.06,397.8-17.29,499.21-1.93,734.74,160.43,741.41Z"/><path class="cls-22" d="M160.45,741.55c55.07,2.26,97.3-39,157.92-21,63.46,18.78,83.25,197.71,222.38,263.93,108.08,51.45,346.55,70.4,483.5-162.27s70.22-520.61-107.94-548.27c-129.15-20.05-233.22,22.9-339.81,12.32-98.9-9.83-195-107.12-287-115C141.13,158.62,57.19,291.79,19.06,398.14-17.27,499.48-1.9,734.86,160.45,741.55Z"/><path class="cls-23" d="M160.48,741.68c55.05,2.27,97.28-38.92,157.9-21,63.46,18.77,83.26,197.59,222.39,263.79,108.08,51.42,346.53,70.37,483.46-162.14s70.19-520.29-108-547.95c-129.15-20-233.21,22.88-339.79,12.29-98.9-9.82-195-107.07-287-114.91C141.11,159.11,57.18,292.2,19.07,398.47-17.26,499.75-1.87,735,160.48,741.68Z"/><path class="cls-24" d="M160.5,741.82c55.05,2.27,97.27-38.89,157.89-21,63.46,18.76,83.27,197.47,222.4,263.64,108.08,51.4,346.52,70.35,483.42-162s70.15-520-108-547.61C787.07,254.82,683,297.71,576.43,287.12c-98.89-9.82-194.95-107-287-114.86C141.09,159.6,57.18,292.6,19.07,398.81-17.25,500-1.84,735.12,160.5,741.82Z"/><path class="cls-25" d="M160.52,742c55,2.28,97.27-38.86,157.88-20.94,63.46,18.76,83.28,197.36,222.41,263.49,108.07,51.38,346.51,70.34,483.39-161.87s70.1-519.64-108-547.28C787,255.3,683,298.16,576.4,287.57c-98.89-9.83-194.95-107-287-114.82C141.07,160.09,57.17,293,19.07,399.14-17.24,500.29-1.82,735.24,160.52,742Z"/><path class="cls-26" d="M160.54,742.09c55.05,2.27,97.26-38.83,157.87-20.92,63.46,18.75,83.29,197.24,222.42,263.34,108.07,51.36,346.49,70.32,483.35-161.73s70.07-519.32-108.07-547C787,255.78,682.94,298.6,576.37,288c-98.89-9.83-195-106.91-286.95-114.76C141.05,160.58,57.16,293.41,19.07,399.48-17.23,500.56-1.79,735.37,160.54,742.09Z"/><path class="cls-27" d="M160.56,742.22c55.05,2.28,97.25-38.8,157.87-20.89,63.45,18.74,83.29,197.12,222.41,263.2,108.08,51.32,346.49,70.3,483.32-161.61s70-519-108.1-546.62c-129.13-20-233.15,22.75-339.72,12.15-98.89-9.82-195-106.86-287-114.71C141,161.07,57.16,293.81,19.08,399.81-17.21,500.83-1.76,735.5,160.56,742.22Z"/><path class="cls-28" d="M160.58,742.35c55,2.29,97.24-38.76,157.86-20.87,63.45,18.74,83.3,197,222.42,263.06,108.08,51.3,346.48,70.28,483.29-161.47s70-518.66-108.14-546.3c-129.12-20-233.14,22.72-339.71,12.13-98.87-9.83-194.95-106.81-286.94-114.67C141,161.56,57.15,294.21,19.08,400.15-17.2,501.1-1.73,735.62,160.58,742.35Z"/><path class="cls-29" d="M160.6,742.49c55,2.28,97.24-38.74,157.85-20.85,63.45,18.73,83.32,196.9,222.43,262.91,108.07,51.28,346.46,70.27,483.25-161.33s69.94-518.34-108.17-546c-129.12-20-233.13,22.69-339.69,12.09-98.87-9.83-194.95-106.76-286.93-114.61C141,162.06,57.14,294.62,19.08,400.48-17.19,501.37-1.7,735.75,160.6,742.49Z"/><path class="cls-30" d="M160.62,742.62c55,2.29,97.23-38.7,157.84-20.82,63.45,18.72,83.33,196.78,222.44,262.76,108.07,51.26,346.45,70.25,483.21-161.2s69.91-518-108.2-545.64c-129.11-20-233.12,22.66-339.67,12.06C477.37,280,381.29,183.08,289.31,175.22,141,162.55,57.14,295,19.09,400.82-17.18,501.64-1.67,735.88,160.62,742.62Z"/><path class="cls-31" d="M160.64,742.76c55,2.29,97.22-38.68,157.83-20.8,63.45,18.72,83.34,196.67,222.45,262.62C649,1035.81,887.36,1054.8,1024.1,823.51S1094,305.82,915.86,278.2c-129.11-20-233.1,22.62-339.65,12-98.87-9.83-195-106.66-286.93-114.51C141,163,57.13,295.42,19.09,401.15-17.17,501.91-1.65,736,160.64,742.76Z"/><path class="cls-32" d="M160.66,742.89c55,2.29,97.22-38.64,157.82-20.77,63.45,18.71,83.35,196.55,222.46,262.47C649,1035.8,887.37,1054.8,1024.08,823.66s69.82-517.37-108.27-545c-129.1-20-233.09,22.6-339.64,12-98.86-9.83-194.94-106.6-286.91-114.46C140.92,163.53,57.12,295.83,19.09,401.49-17.15,502.18-1.62,736.13,160.66,742.89Z"/><path class="cls-33" d="M160.68,743c55,2.29,97.21-38.62,157.81-20.75C381.93,741,401.85,918.71,541,984.6c108.06,51.19,346.41,70.19,483.1-160.8s69.79-517-108.3-544.65c-129.1-20-233.08,22.56-339.62,12C477.28,281.28,381.2,184.56,289.23,176.7,140.9,164,57.12,296.23,19.09,401.82-17.14,502.45-1.59,736.26,160.68,743Z"/><path class="cls-34" d="M160.7,743.16c55,2.3,97.2-38.58,157.8-20.72C381.94,741.13,401.87,918.76,541,984.61,649,1035.78,887.38,1054.79,1024.05,824s69.74-516.72-108.34-544.33c-129.09-20-233.07,22.54-339.6,11.94-98.86-9.84-194.94-106.5-286.91-114.36-148.32-12.69-232.09,119.43-270.1,225C-17.13,502.72-1.56,736.39,160.7,743.16Z"/><path class="cls-35" d="M160.72,743.3c55,2.3,97.19-38.56,157.8-20.71C382,741.28,401.89,918.8,541,984.63c108.06,51.13,346.39,70.15,483-160.53s69.7-516.39-108.37-544c-129.09-20-233,22.5-339.59,11.9-98.84-9.83-194.93-106.44-286.89-114.31C140.86,165,57.1,297,19.1,402.49-17.12,503-1.53,736.51,160.72,743.3Z"/><path class="cls-36" d="M160.74,743.43c55,2.3,97.19-38.52,157.79-20.68C382,741.43,401.91,918.84,541,984.64c108.05,51.11,346.37,70.13,483-160.4s69.66-516.06-108.4-543.66c-129.09-20-233,22.47-339.57,11.87-98.84-9.84-194.93-106.4-286.89-114.27-148.31-12.69-232,119.26-270,224.65C-17.11,503.26-1.51,736.64,160.74,743.43Z"/><path class="cls-37" d="M160.76,743.56c55,2.31,97.18-38.49,157.78-20.65,63.43,18.67,83.4,196,222.49,261.74,108.06,51.09,346.37,70.12,483-160.26s69.62-515.74-108.44-543.34c-129.08-20-233,22.44-339.55,11.84-98.84-9.84-194.93-106.34-286.89-114.21-148.3-12.7-232,119.16-270,224.48C-17.09,503.53-1.48,736.77,160.76,743.56Z"/><path class="cls-38" d="M160.78,743.7c55,2.31,97.17-38.46,157.77-20.63C382,741.74,402,918.93,541.05,984.66c108.06,51.07,346.36,70.1,482.93-160.12s69.58-515.42-108.47-543c-129.08-20-233,22.41-339.53,11.8C477.14,283.49,381.05,187,289.1,179.17c-148.3-12.7-232,119.07-270,224.33C-17.08,503.8-1.45,736.89,160.78,743.7Z"/><path class="cls-39" d="M160.8,743.83c55,2.31,97.17-38.43,157.76-20.6C382,741.89,402,919,541.07,984.68c108.06,51,346.34,70.08,482.89-160S1093.5,309.59,915.46,282c-129.07-20-233,22.38-339.52,11.78C477.11,283.94,381,187.54,289.07,179.66c-148.29-12.7-232,119-270,224.17C-17.07,504.07-1.42,737,160.8,743.83Z"/><path class="cls-40" d="M160.82,744c55,2.31,97.16-38.4,157.75-20.58C382,742,402,919,541.09,984.69c108,51,346.33,70.06,482.86-159.86s69.49-514.77-108.54-542.35c-129.07-20-233,22.35-339.5,11.74C477.08,284.38,381,188,289,180.16c-148.28-12.71-232,118.89-269.92,224C-17.06,504.34-1.39,737.15,160.82,744Z"/><path class="cls-41" d="M160.84,744.1c55,2.32,97.15-38.36,157.74-20.55C382,742.19,402,919.06,541.11,984.7c108,51,346.32,70,482.82-159.72s69.46-514.45-108.57-542c-129.06-20-233,22.32-339.48,11.71C477.05,284.82,381,188.53,289,180.65,140.74,168,57.07,299.45,19.12,404.5-17,504.61-1.37,737.27,160.84,744.1Z"/><path class="cls-42" d="M160.87,744.24c55,2.31,97.13-38.34,157.72-20.53C382,742.34,402,919.1,541.13,984.71c108,51,346.3,70,482.79-159.59S1093.33,311,915.31,283.43c-129.06-20-233,22.29-339.46,11.68C477,285.26,380.92,189,289,181.15,140.72,168.44,57.06,299.86,19.12,404.84-17,504.88-1.34,737.4,160.87,744.24Z"/><path class="cls-43" d="M160.89,744.37c55,2.32,97.13-38.3,157.71-20.51C382,742.49,402.06,919.14,541.15,984.73c108.05,50.94,346.29,70,482.75-159.46s69.37-513.79-108.64-541.37c-129-20-233,22.26-339.45,11.65C477,285.71,380.89,189.52,289,181.64,140.7,168.93,57.05,300.26,19.12,405.17-17,505.15-1.31,737.53,160.89,744.37Z"/><path class="cls-44" d="M160.91,744.51c55,2.32,97.12-38.28,157.71-20.49C382,742.65,402.08,919.19,541.17,984.74c108,50.92,346.28,70,482.71-159.32s69.34-513.47-108.67-541c-129.05-20-232.94,22.23-339.43,11.62C477,286.15,380.86,190,288.94,182.13,140.68,169.42,57.05,300.66,19.13,405.51-17,505.42-1.28,737.65,160.91,744.51Z"/><path class="cls-45" d="M160.93,744.64c55,2.33,97.11-38.24,157.7-20.46,63.42,18.62,83.47,195.05,222.56,260.57,108,50.9,346.27,70,482.68-159.19s69.29-513.14-108.71-540.7c-129-20-232.92,22.19-339.41,11.58-98.81-9.85-194.92-105.93-286.84-113.81C140.66,169.91,57,301.07,19.13,405.84-17,505.69-1.25,737.78,160.93,744.64Z"/><path class="cls-46" d="M161,744.77c55,2.33,97.11-38.21,157.69-20.43C382.06,743,402.13,919.27,541.21,984.77c108,50.87,346.25,70,482.64-159.06s69.25-512.82-108.74-540.38c-129-20-232.91,22.17-339.39,11.55C476.91,287,380.8,191,288.88,183.12,140.64,170.4,57,301.47,19.13,406.18-17,506-1.23,737.91,161,744.77Z"/><path class="cls-47" d="M161,744.91c55,2.33,97.1-38.18,157.68-20.41,63.42,18.6,83.5,194.82,222.58,260.28,108,50.85,346.24,69.93,482.6-158.92s69.21-512.5-108.78-540c-129-20-232.89,22.13-339.37,11.52-98.8-9.85-194.91-105.83-286.82-113.72C140.62,170.89,57,301.87,19.14,406.51-17,506.23-1.2,738,161,744.91Z"/><path class="cls-48" d="M161,745c55,2.34,97.09-38.15,157.67-20.38,63.42,18.59,83.51,194.7,222.58,260.13,108,50.83,346.24,69.91,482.58-158.79S1093,313.83,915,286.28c-129-20-232.88,22.11-339.35,11.49C476.86,287.92,380.74,192,288.83,184.11,140.6,171.38,57,302.27,19.14,406.85-17,506.5-1.17,738.16,161,745Z"/><path class="cls-49" d="M161,745.18c55,2.33,97.08-38.12,157.66-20.36,63.41,18.58,83.52,194.58,222.59,260,108,50.81,346.22,69.9,482.54-158.65S1092.93,314.3,915,286.76c-129-20-232.86,22.07-339.33,11.45C476.83,288.36,380.71,192.49,288.8,184.6,140.58,171.87,57,302.68,19.14,407.18-16.95,506.77-1.14,738.29,161,745.18Z"/><path class="cls-50" d="M161,745.31c55,2.34,97.08-38.09,157.65-20.34,63.41,18.59,83.53,194.48,222.6,259.85,108,50.77,346.21,69.87,482.5-158.52s69.09-511.53-108.88-539.07c-129-20-232.85,22-339.32,11.43C476.8,288.8,380.68,193,288.78,185.09,140.56,172.36,57,303.08,19.14,407.52-16.94,507-1.11,738.42,161,745.31Z"/><path class="cls-51" d="M161.05,745.45c55,2.34,97.07-38.06,157.64-20.32,63.41,18.58,83.54,194.36,222.61,259.7,108,50.75,346.2,69.86,482.47-158.39s69-511.19-108.92-538.73c-129-20-232.84,22-339.3,11.39-98.78-9.85-194.9-105.62-286.8-113.51C140.54,172.85,57,303.48,19.15,407.85-16.93,507.31-1.09,738.54,161.05,745.45Z"/><path class="cls-52" d="M161.07,745.58c55,2.34,97.06-38,157.64-20.29,63.4,18.57,83.54,194.24,222.61,259.55,108,50.73,346.18,69.84,482.43-158.25s69-510.87-109-538.41c-129-20-232.82,22-339.28,11.36-98.78-9.85-194.9-105.56-286.8-113.46C140.52,173.34,57,303.89,19.15,408.19-16.91,507.58-1.06,738.67,161.07,745.58Z"/><path class="cls-53" d="M161.09,745.72c55,2.34,97.06-38,157.63-20.27,63.4,18.56,83.55,194.13,222.62,259.4,108,50.71,346.17,69.82,482.39-158.11s69-510.55-109-538.08c-129-20-232.81,21.95-339.26,11.33-98.78-9.86-194.9-105.52-286.79-113.41C140.5,173.83,57,304.29,19.15,408.52-16.9,507.85-1,738.8,161.09,745.72Z"/><path class="cls-54" d="M161.11,745.85c55,2.35,97.05-38,157.62-20.24,63.4,18.55,83.57,194,222.63,259.26,108,50.68,346.16,69.8,482.36-158s68.92-510.22-109-537.75c-129-19.95-232.8,21.92-339.25,11.3C476.68,290.57,380.56,195,288.67,187.07,140.48,174.33,57,304.69,19.16,408.86-16.89,508.13-1,738.92,161.11,745.85Z"/><path class="cls-55" d="M161.13,746c55,2.36,97-37.93,157.61-20.21,63.4,18.54,83.58,193.89,222.64,259.11,108,50.66,346.14,69.78,482.32-157.85s68.89-509.9-109.05-537.42c-129-19.95-232.79,21.89-339.23,11.27C476.66,291,380.52,195.46,288.64,187.56,140.46,174.82,57,305.1,19.16,409.19-16.88,508.4-1,739.05,161.13,746Z"/><path class="cls-56" d="M161.15,746.12c55,2.35,97-37.91,157.6-20.19,63.4,18.54,83.59,193.78,222.65,259,108,50.64,346.13,69.77,482.28-157.71S1092.53,317.6,914.6,290.09c-129-19.95-232.77,21.85-339.21,11.23C476.63,291.46,380.49,196,288.62,188.06,140.44,175.31,57,305.5,19.16,409.53-16.87,508.67-.95,739.18,161.15,746.12Z"/><path class="cls-57" d="M161.17,746.25c55,2.36,97-37.87,157.59-20.17,63.4,18.54,83.6,193.67,222.66,258.82,108,50.62,346.12,69.75,482.25-157.58s68.8-509.25-109.12-536.76c-129-19.95-232.76,21.83-339.19,11.2-98.76-9.86-194.9-105.31-286.77-113.21C140.42,175.8,57,305.9,19.17,409.86-16.85,508.94-.92,739.31,161.17,746.25Z"/><path class="cls-58" d="M161.19,746.39c55,2.36,97-37.84,157.58-20.15,63.4,18.53,83.61,193.55,222.66,258.68,108,50.58,346.12,69.73,482.22-157.45S1092.41,318.54,914.5,291c-129-20-232.75,21.79-339.18,11.17C476.57,292.34,380.43,197,288.56,189,140.4,176.29,57,306.3,19.17,410.2-16.84,509.21-.89,739.43,161.19,746.39Z"/><path class="cls-59" d="M161.21,746.52c55,2.36,97-37.81,157.57-20.12,63.4,18.52,83.62,193.44,222.67,258.53,108,50.56,346.1,69.71,482.18-157.31S1092.36,319,914.45,291.51c-129-19.94-232.74,21.77-339.16,11.14-98.75-9.86-194.89-105.2-286.75-113.11C140.38,176.78,57,306.71,19.17,410.53-16.83,509.48-.86,739.56,161.21,746.52Z"/><path class="cls-60" d="M161.23,746.66c55,2.36,97-37.78,157.56-20.1,63.4,18.51,83.63,193.32,222.68,258.38,108,50.54,346.09,69.69,482.15-157.18S1092.3,319.49,914.4,292c-129-19.94-232.72,21.73-339.14,11.1C476.51,293.23,380.37,197.94,288.51,190,140.36,177.27,56.94,307.11,19.17,410.87-16.82,509.75-.83,739.69,161.23,746.66Z"/><path class="cls-61" d="M161.25,746.79c55,2.37,97-37.75,157.56-20.07,63.39,18.5,83.63,193.2,222.68,258.23,108,50.52,346.08,69.68,482.11-157S1092.24,320,914.35,292.46c-129-19.93-232.71,21.71-339.12,11.08-98.74-9.87-194.89-105.1-286.75-113-148.14-12.76-231.55,117-269.3,220.68C-16.81,510-.8,739.81,161.25,746.79Z"/><path class="cls-62" d="M161.28,746.93c54.95,2.36,97-37.72,157.54-20C382.21,745.38,402.46,920,541.51,985c108,50.49,346.06,69.65,482.07-156.91s68.61-507.63-109.28-535.12c-129-19.93-232.7,21.67-339.11,11-98.73-9.86-194.88-105-286.73-113C140.32,178.25,56.93,307.92,19.18,411.54-16.79,510.29-.78,739.94,161.28,746.93Z"/><path class="cls-63" d="M161.3,747.06c54.95,2.37,97-37.69,157.53-20,63.39,18.49,83.66,193,222.7,257.94,108,50.47,346.05,69.64,482-156.78s68.56-507.3-109.32-534.79c-129-19.92-232.68,21.65-339.09,11-98.73-9.86-194.88-105-286.73-112.91C140.3,178.74,56.92,308.32,19.18,411.88-16.78,510.56-.75,740.07,161.3,747.06Z"/><path class="cls-64" d="M161.32,747.19c55,2.38,97-37.65,157.52-20C382.22,745.68,402.51,920.05,541.55,985c108,50.45,346,69.62,482-156.64s68.52-507-109.35-534.46c-129-19.93-232.67,21.61-339.07,11C476.4,295,380.25,199.92,288.4,192,140.28,179.23,56.91,308.72,19.19,412.21-16.77,510.83-.72,740.19,161.32,747.19Z"/><path class="cls-65" d="M161.34,747.33c54.95,2.38,97-37.63,157.51-20C382.23,745.83,402.53,920.1,541.57,985c108,50.43,346,69.6,482-156.5S1092,321.84,914.15,294.36C785.21,274.44,681.49,316,575.09,305.31c-98.72-9.87-194.87-104.89-286.71-112.81C140.26,179.72,56.91,309.13,19.19,412.55-16.76,511.1-.69,740.32,161.34,747.33Z"/><path class="cls-66" d="M161.36,747.46c54.94,2.38,96.95-37.59,157.5-20C382.24,746,402.55,920.14,541.59,985c108,50.39,346,69.58,481.93-156.38S1092,322.31,914.1,294.84c-128.94-19.92-232.65,21.55-339,10.91C476.34,295.89,380.19,200.91,288.35,193,140.24,180.21,56.9,309.53,19.19,412.88-16.75,511.37-.66,740.45,161.36,747.46Z"/><path class="cls-67" d="M161.38,747.6C216.32,750,258.33,710,318.87,727.67c63.38,18.46,83.7,192.51,222.74,257.36,108,50.37,346,69.56,481.89-156.24s68.4-506-109.45-533.47C785.12,275.4,681.42,316.84,575,306.2c-98.72-9.87-194.87-104.79-286.71-112.71C140.22,180.71,56.9,309.93,19.19,413.22-16.73,511.64-.64,740.57,161.38,747.6Z"/><path class="cls-68" d="M161.4,747.73c54.94,2.39,96.94-37.53,157.48-19.9,63.38,18.46,83.71,192.4,222.75,257.21,108,50.35,346,69.55,481.86-156.1S1091.84,323.26,914,295.79c-128.93-19.91-232.62,21.49-339,10.85C476.29,296.77,380.13,201.9,288.3,194,140.2,181.2,56.89,310.34,19.2,413.55-16.72,511.91-.61,740.7,161.4,747.73Z"/><path class="cls-69" d="M161.42,747.87c54.94,2.38,96.93-37.51,157.48-19.88,63.37,18.45,83.71,192.28,222.74,257.06,108,50.33,346,69.53,481.83-156S1091.79,323.73,914,296.27C785,276.36,681.34,317.72,575,307.09c-98.7-9.88-194.87-104.69-286.69-112.62C140.18,181.69,56.88,310.74,19.2,413.89-16.71,512.18-.58,740.83,161.42,747.87Z"/><path class="cls-70" d="M161.44,748c54.94,2.39,96.92-37.47,157.47-19.85,63.37,18.44,83.72,192.16,222.75,256.92,108,50.3,346,69.51,481.79-155.84s68.28-505-109.55-532.49c-128.92-19.9-232.59,21.43-339,10.79C476.23,297.66,380.06,202.9,288.24,195,140.16,182.18,56.88,311.14,19.2,414.22-16.7,512.45-.55,741,161.44,748Z"/><path class="cls-71" d="M161.46,748.14c54.93,2.39,96.92-37.45,157.46-19.83,63.37,18.43,83.74,192.05,222.76,256.77,108,50.28,346,69.49,481.76-155.7s68.23-504.71-109.59-532.16c-128.92-19.91-232.58,21.39-339,10.75C476.2,298.1,380,203.39,288.22,195.46c-148.08-12.79-231.35,116.08-269,219.1C-16.69,512.72-.52,741.08,161.46,748.14Z"/><path class="cls-72" d="M161.48,748.27c54.93,2.39,96.91-37.41,157.45-19.81C382.3,746.89,402.68,920.4,541.7,985.09c108,50.26,345.94,69.47,481.72-155.57s68.19-504.38-109.63-531.83c-128.9-19.9-232.56,21.37-338.92,10.73C476.17,298.54,380,203.89,288.19,196c-148.07-12.79-231.33,116-269,218.94C-16.67,513-.5,741.21,161.48,748.27Z"/><path class="cls-73" d="M161.5,748.41c54.93,2.39,96.9-37.39,157.44-19.79C382.31,747,402.7,920.44,541.72,985.1c108,50.24,345.93,69.46,481.68-155.43s68.16-504.06-109.66-531.5c-128.9-19.9-232.55,21.33-338.91,10.69C476.14,299,380,204.38,288.16,196.45c-148.06-12.8-231.3,115.9-269,218.78C-16.66,513.26-.47,741.34,161.5,748.41Z"/><path class="cls-74" d="M161.52,748.54c54.93,2.4,96.9-37.35,157.43-19.76,63.37,18.42,83.77,191.71,222.79,256.34,108,50.2,345.92,69.43,481.65-155.3s68.11-503.74-109.7-531.18C784.8,278.75,681.16,320,574.8,309.3c-98.69-9.87-194.86-104.42-286.66-112.36C140.07,184.14,56.85,312.75,19.22,415.56-16.65,513.53-.44,741.46,161.52,748.54Z"/><path class="cls-75" d="M161.54,748.67c54.93,2.41,96.89-37.31,157.42-19.73,63.37,18.41,83.78,191.59,222.8,256.19,108,50.18,345.9,69.42,481.61-155.17s68.07-503.4-109.73-530.84c-128.89-19.89-232.52,21.27-338.87,10.63-98.68-9.88-194.86-104.38-286.66-112.32C140.05,184.63,56.84,313.16,19.22,415.9-16.64,513.8-.41,741.59,161.54,748.67Z"/><path class="cls-76" d="M161.56,748.81c54.92,2.4,96.88-37.29,157.41-19.71,63.37,18.4,83.79,191.47,222.81,256,108,50.16,345.89,69.4,481.57-155s68-503.08-109.76-530.52c-128.88-19.88-232.51,21.25-338.85,10.6-98.68-9.88-194.86-104.32-286.66-112.26C140,185.12,56.84,313.56,19.22,416.23-16.63,514.07-.38,741.72,161.56,748.81Z"/><path class="cls-77" d="M161.58,748.94c54.92,2.41,96.87-37.25,157.41-19.68,63.36,18.39,83.79,191.36,222.81,255.89,108,50.14,345.88,69.38,481.54-154.89s68-502.76-109.8-530.19c-128.88-19.88-232.49,21.21-338.84,10.56C476,300.75,379.85,206.36,288.06,198.42,140,185.61,56.83,314,19.22,416.57-16.61,514.34-.36,741.84,161.58,748.94Z"/><path class="cls-78" d="M161.6,749.08c54.92,2.41,96.87-37.23,157.4-19.66,63.36,18.38,83.8,191.24,222.82,255.75,108,50.11,345.86,69.36,481.5-154.77S1091.27,328,913.49,300.55C784.62,280.66,681,321.73,574.67,311.08,476,301.2,379.82,206.86,288,198.92,140,186.1,56.82,314.37,19.23,416.9-16.6,514.61-.33,742,161.6,749.08Z"/><path class="cls-79" d="M161.62,749.21C216.54,751.62,258.48,712,319,729.57,382.37,748,402.82,920.7,541.83,985.18c108,50.09,345.86,69.34,481.47-154.63S1091.21,328.44,913.44,301c-128.87-19.88-232.47,21.15-338.8,10.5C476,301.64,379.79,207.35,288,199.41,140,186.6,56.82,314.77,19.23,417.24-16.59,514.88-.3,742.1,161.62,749.21Z"/><path class="cls-80" d="M161.64,749.35c54.92,2.41,96.85-37.17,157.38-19.62,63.35,18.38,83.83,191,222.83,255.46,108,50.07,345.85,69.33,481.44-154.49s67.87-501.79-109.9-529.2C784.53,281.62,680.93,322.62,574.6,312,475.94,302.08,379.76,207.85,288,199.9,140,187.09,56.81,315.17,19.23,417.57-16.58,515.15-.27,742.22,161.64,749.35Z"/><path class="cls-81" d="M161.67,749.48c54.9,2.42,96.84-37.13,157.36-19.59,63.35,18.37,83.84,190.9,222.84,255.31,108,50,345.83,69.31,481.4-154.35S1091.1,329.38,913.34,302C784.48,282.1,680.9,323.06,574.57,312.41c-98.65-9.89-194.84-104.07-286.62-112C139.93,187.58,56.8,315.58,19.24,417.91-16.57,515.42-.24,742.35,161.67,749.48Z"/><path class="cls-82" d="M161.69,749.62c54.9,2.41,96.83-37.11,157.35-19.57,63.35,18.36,83.85,190.78,222.85,255.17,108,50,345.82,69.29,481.36-154.23s67.79-501.14-110-528.54c-128.85-19.87-232.43,21.06-338.75,10.4-98.65-9.88-194.84-104-286.62-112C139.91,188.07,56.8,316,19.24,418.24-16.55,515.69-.22,742.48,161.69,749.62Z"/><path class="cls-83" d="M161.71,749.75c54.9,2.42,96.82-37.07,157.34-19.54,63.35,18.35,83.86,190.67,222.86,255,108,50,345.81,69.27,481.33-154.09s67.74-500.82-110-528.22c-128.85-19.86-232.42,21-338.73,10.38-98.65-9.89-194.84-104-286.61-111.92-148-12.82-231.11,115-268.66,217.2C-16.54,516-.19,742.61,161.71,749.75Z"/><path class="cls-84" d="M161.73,749.88c54.9,2.43,96.81-37,157.33-19.51,63.35,18.34,83.87,190.55,222.87,254.87,108,50,345.79,69.25,481.29-154s67.71-500.49-110-527.89c-128.85-19.87-232.4,21-338.72,10.34-98.64-9.89-194.84-103.91-286.6-111.86-148-12.83-231.09,114.9-268.63,217C-16.53,516.23-.16,742.73,161.73,749.88Z"/><path class="cls-85" d="M161.75,750c54.9,2.43,96.81-37,157.32-19.49C382.42,748.86,403,921,542,985.26c108,49.94,345.78,69.23,481.26-153.83s67.66-500.16-110.07-527.56c-128.84-19.86-232.39,21-338.7,10.31-98.64-9.89-194.84-103.85-286.6-111.81-148-12.83-231.06,114.82-268.59,216.88C-16.52,516.5-.13,742.86,161.75,750Z"/><path class="cls-86" d="M161.77,750.15c54.89,2.43,96.8-37,157.32-19.46C382.43,749,403,921,542,985.27c108,49.92,345.77,69.21,481.22-153.69s67.62-499.84-110.1-527.23c-128.84-19.86-232.38,20.94-338.68,10.28-98.64-9.89-194.84-103.81-286.59-111.77-148-12.83-231,114.73-268.57,216.72C-16.51,516.77-.1,743,161.77,750.15Z"/><path class="cls-87" d="M161.79,750.29c54.89,2.43,96.79-36.95,157.31-19.45C382.44,749.17,403,921.05,542,985.28c108,49.9,345.76,69.2,481.18-153.55S1090.75,332.21,913,304.83C784.21,285,680.67,325.73,574.38,315.07c-98.64-9.89-194.84-103.75-286.59-111.71-148-12.84-231,114.63-268.54,216.56C-16.49,517-.07,743.11,161.79,750.29Z"/><path class="cls-88" d="M161.81,750.42c54.89,2.44,96.79-36.92,157.3-19.42C382.45,749.32,403,921.09,542,985.29c108,49.88,345.74,69.18,481.15-153.42S1090.7,332.68,913,305.3c-128.83-19.85-232.35,20.87-338.65,10.21-98.62-9.89-194.83-103.7-286.58-111.66-148-12.84-231,114.55-268.5,216.4C-16.48,517.32,0,743.24,161.81,750.42Z"/><path class="cls-89" d="M161.83,750.56c54.89,2.43,96.78-36.89,157.29-19.4,63.34,18.31,83.92,190,222.9,254.15,108,49.85,345.74,69.15,481.12-153.29s67.5-498.87-110.2-526.24C784.12,285.93,680.6,326.62,574.31,316c-98.62-9.9-194.83-103.65-286.57-111.61-148-12.85-231,114.45-268.48,216.24C-16.47,517.59,0,743.37,161.83,750.56Z"/><path class="cls-90" d="M161.85,750.69c54.88,2.44,96.77-36.86,157.28-19.37,63.34,18.3,83.93,189.86,222.91,254,108,49.82,345.73,69.14,481.08-153.15s67.46-498.55-110.23-525.92c-128.82-19.84-232.33,20.81-338.61,10.15-98.62-9.89-194.83-103.6-286.57-111.56C139.75,192,56.74,319.2,19.26,420.92-16.46,517.86,0,743.49,161.85,750.69Z"/><path class="cls-91" d="M161.87,750.83c54.88,2.44,96.76-36.83,157.27-19.35,63.34,18.29,83.94,189.74,222.92,253.85,108,49.8,345.71,69.12,481.05-153s67.42-498.22-110.27-525.58C784,286.88,680.52,327.51,574.24,316.84,475.63,307,379.42,213.3,287.68,205.33c-148-12.85-230.94,114.28-268.42,215.93C-16.45,518.13,0,743.62,161.87,750.83Z"/><path class="cls-92" d="M161.89,751c54.88,2.44,96.76-36.79,157.26-19.32,63.34,18.29,84,189.62,222.93,253.7,108,49.78,345.7,69.11,481-152.88s67.38-497.89-110.3-525.26C784,287.36,680.49,328,574.21,317.29c-98.61-9.9-194.82-103.5-286.56-111.46C139.71,193,56.73,320,19.27,421.59-16.43,518.4.07,743.75,161.89,751Z"/><path class="cls-93" d="M161.91,751.09c54.88,2.45,96.75-36.76,157.25-19.29,63.34,18.28,84,189.51,222.94,253.56,108,49.75,345.69,69.08,481-152.75S1090.41,335,912.74,307.68c-128.8-19.84-232.29,20.72-338.56,10.05-98.61-9.9-194.82-103.44-286.55-111.41C139.69,193.47,56.72,320.41,19.27,421.93-16.42,518.67.09,743.87,161.91,751.09Z"/><path class="cls-94" d="M161.93,751.23c54.88,2.45,96.74-36.73,157.25-19.28,63.33,18.28,84,189.4,222.94,253.42,108,49.73,345.67,69.07,480.94-152.62s67.29-497.24-110.37-524.6c-128.8-19.83-232.28,20.69-338.54,10-98.61-9.9-194.82-103.39-286.55-111.37C139.67,194,56.72,320.82,19.27,422.26-16.41,518.94.12,744,161.93,751.23Z"/><path class="cls-95" d="M162,751.36c54.87,2.46,96.74-36.7,157.24-19.25,63.33,18.27,84,189.28,223,253.27,108,49.71,345.66,69.05,480.9-152.48S1090.3,336,912.64,308.63c-128.8-19.83-232.26,20.66-338.53,10-98.59-9.9-194.81-103.34-286.54-111.31C139.65,194.45,56.71,321.22,19.28,422.6-16.4,519.21.15,744.13,162,751.36Z"/><path class="cls-96" d="M162,751.5c54.87,2.45,96.73-36.67,157.23-19.23,63.32,18.26,84,189.17,223,253.12,108,49.69,345.65,69,480.86-152.34s67.22-496.6-110.43-523.95c-128.79-19.82-232.25,20.63-338.51,10-98.59-9.9-194.81-103.28-286.53-111.26C139.63,194.94,56.71,321.62,19.28,422.93-16.39,519.48.18,744.26,162,751.5Z"/><path class="cls-97" d="M162,751.63c54.87,2.46,96.72-36.64,157.22-19.2,63.32,18.25,84,189.05,223,253,108,49.65,345.63,69,480.83-152.22s67.17-496.27-110.47-523.61c-128.79-19.82-232.24,20.6-338.49,9.93-98.59-9.91-194.81-103.24-286.53-111.22C139.61,195.43,56.7,322,19.28,423.27-16.37,519.75.21,744.38,162,751.63Z"/><path class="cls-98" d="M162,751.77c54.87,2.46,96.71-36.61,157.21-19.18,63.32,18.25,84,188.93,223,252.83,107.95,49.63,345.62,69,480.79-152.08s67.14-495.95-110.51-523.28C783.71,290.23,680.26,330.62,574,320c-98.59-9.9-194.82-103.18-286.53-111.16C139.59,195.92,56.69,322.43,19.29,423.6-16.36,520,.23,744.51,162,751.77Z"/><path class="cls-99" d="M162,751.9c54.87,2.46,96.71-36.58,157.2-19.15,63.32,18.24,84,188.82,223,252.68,107.95,49.61,345.61,69,480.75-151.94s67.1-495.63-110.54-523c-128.77-19.82-232.2,20.54-338.45,9.86-98.58-9.9-194.81-103.13-286.51-111.11C139.57,196.41,56.69,322.83,19.29,423.94-16.35,520.29.26,744.64,162,751.9Z"/><path class="cls-100" d="M162.06,752c54.85,2.46,96.69-36.55,157.18-19.13,63.32,18.23,84,188.7,223,252.53,108,49.59,345.6,69,480.73-151.81S1090,338.34,912.38,311c-128.76-19.82-232.19,20.5-338.43,9.83-98.58-9.91-194.81-103.08-286.51-111.06C139.55,196.9,56.68,323.23,19.29,424.27-16.34,520.56.29,744.76,162.06,752Z"/><path class="cls-101" d="M162.08,752.17c54.85,2.47,96.68-36.52,157.17-19.11,63.32,18.23,84,188.59,223,252.4,108,49.56,345.59,68.93,480.69-151.68s67-495-110.61-522.3c-128.76-19.81-232.18,20.48-338.41,9.8-98.57-9.91-194.81-103-286.51-111C139.53,197.39,56.67,323.64,19.29,424.61-16.33,520.83.32,744.89,162.08,752.17Z"/><path class="cls-102" d="M162.1,752.3c54.85,2.47,96.68-36.48,157.16-19.08,63.32,18.22,84.05,188.48,223,252.25,108,49.54,345.58,68.92,480.65-151.54s67-494.65-110.64-522c-128.75-19.81-232.16,20.44-338.39,9.76-98.57-9.9-194.81-103-286.5-111C139.51,197.88,56.67,324,19.3,424.94-16.31,521.1.35,745,162.1,752.3Z"/><path class="cls-103" d="M162.12,752.44C217,754.91,258.79,716,319.28,733.38c63.31,18.21,84.05,188.36,223,252.1,108,49.52,345.57,68.9,480.62-151.41s66.93-494.32-110.68-521.64c-128.75-19.8-232.15,20.42-338.38,9.74-98.56-9.91-194.8-102.93-286.49-110.91-147.87-12.89-230.7,113.18-268.06,214C-16.3,521.37.37,745.14,162.12,752.44Z"/><path class="cls-104" d="M162.14,752.57c54.85,2.48,96.66-36.42,157.15-19,63.31,18.21,84.06,188.24,223,252,107.94,49.5,345.55,68.89,480.58-151.27s66.89-494-110.71-521.31c-128.74-19.8-232.14,20.38-338.36,9.7C475.26,312.7,379,219.74,287.33,211.75c-147.86-12.89-230.68,113.1-268,213.86C-16.29,521.64.4,745.27,162.14,752.57Z"/><path class="cls-105" d="M162.16,752.71c54.84,2.48,96.65-36.4,157.14-19,63.31,18.2,84.08,188.13,223,251.81,107.94,49.46,345.54,68.86,480.54-151.14s66.85-493.68-110.74-521c-128.74-19.8-232.13,20.36-338.34,9.68C475.23,313.14,379,220.23,287.31,212.24c-147.86-12.88-230.66,113-268,213.71C-16.28,521.91.43,745.4,162.16,752.71Z"/><path class="cls-106" d="M162.18,752.84c54.84,2.48,96.65-36.36,157.13-19,63.31,18.19,84.09,188,223,251.66,107.94,49.44,345.53,68.84,480.51-151s66.81-493.35-110.78-520.65C783.35,294.06,680,334.18,573.75,323.5,475.2,313.59,379,220.73,287.28,212.74c-147.85-12.89-230.64,112.91-268,213.54C-16.27,522.18.46,745.52,162.18,752.84Z"/><path class="cls-107" d="M162.2,753c54.84,2.48,96.64-36.34,157.12-19,63.31,18.18,84.1,187.89,223.05,251.51,107.94,49.42,345.51,68.83,480.47-150.87s66.77-493-110.81-520.33c-128.73-19.79-232.1,20.29-338.31,9.61C475.17,314,378.93,221.23,287.25,213.23,139.41,200.34,56.63,326.05,19.31,426.62-16.25,522.45.49,745.65,162.2,753Z"/><path class="cls-108" d="M162.22,753.11c54.84,2.49,96.63-36.3,157.11-18.94C382.64,752.35,403.44,922,542.39,985.54c107.93,49.4,345.5,68.81,480.44-150.73s66.72-492.7-110.85-520C783.25,295,679.89,335.07,573.69,324.39c-98.54-9.92-194.79-102.67-286.46-110.67C139.39,200.83,56.63,326.46,19.31,427-16.24,522.72.51,745.78,162.22,753.11Z"/><path class="cls-109" d="M162.24,753.25c54.84,2.48,96.63-36.27,157.1-18.92C382.65,752.5,403.46,922,542.41,985.56c107.93,49.37,345.49,68.79,480.4-150.61s66.69-492.37-110.88-519.66c-128.72-19.79-232.07,20.22-338.27,9.54-98.54-9.91-194.79-102.61-286.46-110.61C139.37,201.32,56.62,326.86,19.32,427.29-16.23,523,.54,745.91,162.24,753.25Z"/><path class="cls-110" d="M162.26,753.38c54.83,2.49,96.62-36.24,157.09-18.89C382.66,752.66,403.48,922,542.42,985.57c107.94,49.35,345.48,68.77,480.37-150.47s66.65-492-110.91-519.34C783.16,296,679.82,336,573.62,325.27c-98.53-9.91-194.78-102.56-286.45-110.56C139.35,201.81,56.61,327.26,19.32,427.62-16.22,523.26.57,746,162.26,753.38Z"/><path class="cls-111" d="M162.28,753.51c54.83,2.5,96.61-36.2,157.09-18.86,63.3,18.16,84.13,187.44,223.07,250.93,107.94,49.33,345.47,68.76,480.34-150.33s66.6-491.73-110.95-519c-128.71-19.78-232.05,20.16-338.24,9.48-98.53-9.92-194.78-102.51-286.44-110.51C139.33,202.3,56.61,327.67,19.32,428-16.21,523.53.6,746.16,162.28,753.51Z"/><path class="cls-112" d="M162.3,753.65c54.83,2.49,96.6-36.18,157.08-18.84C382.67,753,403.52,922.13,542.46,985.59c107.93,49.31,345.46,68.74,480.3-150.2s66.56-491.4-111-518.68c-128.71-19.78-232,20.14-338.22,9.45C475,316.24,378.78,223.7,287.12,215.7,139.31,202.79,56.6,328.07,19.33,428.29-16.2,523.8.63,746.29,162.3,753.65Z"/><path class="cls-113" d="M162.32,753.78c54.83,2.5,96.6-36.14,157.07-18.81,63.29,18.14,84.15,187.2,223.09,250.64,107.93,49.27,345.44,68.71,480.26-150.07s66.53-491.08-111-518.35c-128.7-19.78-232,20.1-338.2,9.41C475,316.69,378.74,224.2,287.09,216.19,139.29,203.28,56.59,328.47,19.33,428.63-16.18,524.07.65,746.41,162.32,753.78Z"/><path class="cls-114" d="M162.34,753.92c54.82,2.5,96.59-36.12,157.06-18.79,63.29,18.13,84.17,187.09,223.1,250.49,107.93,49.25,345.43,68.7,480.23-149.93s66.48-490.76-111.05-518c-128.7-19.77-232,20.08-338.19,9.39C475,317.13,378.71,224.69,287.07,216.69,139.27,203.77,56.59,328.88,19.33,429-16.17,524.34.68,746.54,162.34,753.92Z"/><path class="cls-115" d="M162.36,754.05c54.82,2.51,96.58-36.08,157.05-18.76,63.29,18.12,84.18,187,223.11,250.34,107.93,49.23,345.42,68.68,480.19-149.8s66.44-490.43-111.08-517.69c-128.69-19.77-232,20-338.17,9.35C475,317.57,378.68,225.19,287,217.18,139.25,204.26,56.58,329.28,19.34,429.3-16.16,524.61.71,746.67,162.36,754.05Z"/><path class="cls-116" d="M162.38,754.19c54.82,2.5,96.58-36.06,157-18.75,63.29,18.12,84.19,186.86,223.12,250.2C650.46,1034.85,888,1054.31,1022.69,836s66.41-490.1-111.11-517.37c-128.69-19.76-232,20-338.15,9.33C474.92,318,378.65,225.68,287,217.67c-147.79-12.92-230.44,112-267.67,212C-16.15,524.88.74,746.79,162.38,754.19Z"/><path class="cls-117" d="M162.4,754.32c54.82,2.51,96.57-36,157-18.72,63.29,18.12,84.2,186.75,223.13,250.06,107.92,49.18,345.39,68.64,480.12-149.53s66.36-489.78-111.15-517c-128.68-19.76-232,20-338.13,9.29C474.89,318.46,378.62,226.18,287,218.17,139.2,205.25,56.57,330.09,19.34,430-16.14,525.15.77,746.92,162.4,754.32Z"/><path class="cls-118" d="M162.42,754.46c54.82,2.51,96.56-36,157-18.7,63.29,18.11,84.21,186.63,223.14,249.91,107.92,49.16,345.38,68.62,480.08-149.4S1089,346.82,911.48,319.56c-128.68-19.75-232,20-338.12,9.26C474.86,318.9,378.59,226.68,287,218.66,139.18,205.74,56.56,330.49,19.34,430.3-16.12,525.42.8,747.05,162.42,754.46Z"/><path class="cls-119" d="M162.44,754.59c54.81,2.51,96.55-36,157-18.67C382.74,754,403.67,922.43,542.6,985.68c107.92,49.14,345.37,68.61,480-149.26S1088.92,347.29,911.43,320c-128.67-19.76-231.95,19.92-338.1,9.23-98.5-9.93-194.77-102.1-286.4-110.12C139.16,206.23,56.55,330.89,19.35,430.64-16.11,525.69.82,747.18,162.44,754.59Z"/><path class="cls-120" d="M162.47,754.72c54.8,2.52,96.54-35.93,157-18.64,63.28,18.09,84.22,186.4,223.14,249.62,107.92,49.11,345.36,68.58,480-149.13s66.24-488.81-111.25-516.05c-128.67-19.76-231.93,19.89-338.08,9.19-98.5-9.93-194.77-102-286.39-110.06C139.14,206.72,56.55,331.29,19.35,431-16.1,526,.85,747.3,162.47,754.72Z"/><path class="cls-121" d="M162.49,754.86c54.8,2.52,96.53-35.9,157-18.62,63.28,18.08,84.23,186.28,223.15,249.47,107.92,49.08,345.35,68.57,480-149S1088.81,348.23,911.33,321c-128.67-19.75-231.92,19.86-338.07,9.16-98.48-9.92-194.76-102-286.38-110C139.12,207.21,56.54,331.7,19.35,431.31-16.09,526.23.88,747.43,162.49,754.86Z"/><path class="cls-122" d="M162.51,755c54.8,2.52,96.52-35.87,157-18.59,63.28,18.07,84.25,186.16,223.16,249.32,107.92,49.06,345.34,68.55,479.94-148.86s66.16-488.16-111.31-515.39c-128.66-19.75-231.91,19.83-338,9.13-98.48-9.93-194.76-101.94-286.38-110C139.1,207.7,56.54,332.1,19.36,431.64-16.08,526.51.91,747.56,162.51,755Z"/><path class="cls-123" d="M162.53,755.13c54.8,2.52,96.52-35.84,157-18.58,63.28,18.08,84.26,186.06,223.17,249.18,107.91,49,345.32,68.54,479.91-148.72s66.11-487.84-111.36-515.07c-128.65-19.74-231.89,19.8-338,9.1-98.48-9.93-194.76-101.89-286.37-109.91C139.08,208.19,56.53,332.5,19.36,432-16.06,526.78.94,747.68,162.53,755.13Z"/><path class="cls-124" d="M162.55,755.26c54.79,2.53,96.51-35.81,157-18.55,63.28,18.07,84.27,185.94,223.18,249,107.91,49,345.31,68.51,479.87-148.6s66.08-487.5-111.39-514.73c-128.64-19.74-231.87,19.77-338,9.06-98.48-9.93-194.76-101.83-286.37-109.86C139.06,208.68,56.52,332.91,19.36,432.31-16,527.05,1,747.81,162.55,755.26Z"/></g><path class="cls-125" d="M430.83,0C453.6,67.67,483.4,149.82,557.9,201.41,661.36,273.06,905.6,332.49,1087,112.54A566.82,566.82,0,0,0,1159.33,0Z"/><path class="cls-126" d="M220.46,813.1c28.62-15.3,59-21.07,82-20.42,23.26.74,39.15,7.92,44.79,20.84s.91,30.18-8.26,49.16c-9.41,18.87-23.19,39.58-41,57.12-34,35.18-83.56,42.47-118.24,11.66C145.11,900.91,161.21,843.27,220.46,813.1Z"/><path class="cls-127" d="M180.85,797.65c56.88-1.49,97.32-45.56,161.09-31.78,66.75,14.42,100.35,191.82,248.55,248.47,115.12,44,362.12,46.65,486-195.15s33.86-524.89-151.68-540.35c-134.51-11.21-238.52,38.82-349.09,35.52C473.11,311.31,367,220.67,271.64,219.12,117.86,216.62,41.25,355.4,9.84,464.24-20.09,568,13.14,802.07,180.85,797.65Z"/><path class="cls-128" d="M1151.23,875.06c8.73,6.82,10.86,18.59,6,28.92-4.51,10.45-16,19.47-26.78,23.6-22.45,8.76-29.07-.3-40.1-15.21-10.26-15-21.73-30.69-7.51-37,7-3.11,20-5.81,33.15-7C1129.23,867.29,1142.67,867.71,1151.23,875.06Z"/><g class="cls-129"><path class="cls-5" d="M384.13,669.68s2.12,7.21-36.28,18.86-91.76,19.74-91.76,19.74l80.3-33.93S370,662.64,384.13,669.68Z"/><path class="cls-5" d="M268.13,707.61c-20.42,7.07-27,22.11-34.07,27.79l-12.51,10s8.26-12,10.65-15.7.1-5.45-5.44-.11-19.25,21.72-19.25,21.72a88.82,88.82,0,0,1,7.75-16.22c5.85-9.29,14-18.21,16.05-19.89,3.81-3,17.3-8.2,27.44-10.39C270.19,702.38,282.83,702.52,268.13,707.61Z"/><path class="cls-130" d="M316.9,696.63c10.53-2.42,21.22-5.15,31-8.09,9.35-2.84,22.43-6.18,27.59-8.45,16-7.05.88-13.16.88-13.16-14.18-7-39.93,7.42-39.93,7.42l-24,10.14Z"/><path class="cls-5" d="M495.64,554.3l107.44,11.12s-51.56-38.93-90.77-49.25S494,554.76,495.64,554.3Z"/><path class="cls-131" d="M264.72,519.06s17-21.18,97.53-23.81c7.28-.24,16.32.59,24.66.67,103.94,1,101.31,11.52,101.31,11.52l22.58,6.87-3,40.81L340.9,556.65Z"/><path class="cls-132" d="M340.9,556.65l141.33-1.29.07-.56-22-8.46S463.65,536,360,527.63c-34-2.74-59.06-2-77.44.25Z"/><polygon class="cls-132" points="490.48 522.83 486.97 549.75 486.97 556.65 506.3 560.1 503.95 527.66 490.48 522.83"/><path class="cls-5" d="M292.52,496.38c-1,12.29-7.64,22.93-14.59,23.44H258.17c-7-.51-13.56-11.15-14.58-23.44l-4.86-60.77c-1.08-12.16,3.67-36.55,14.18-43.75,9.63-6.41,20.66-6.41,30.28,0,10.51,7.2,15.27,31.59,14.18,43.75Q294.94,466,292.52,496.38Z"/><path class="cls-5" d="M158.68,700.4l52.88,86S132.92,748.58,137,713.42,158.68,700.4,158.68,700.4Z"/><path class="cls-131" d="M359.34,495.38l-59.79,6.12L262.1,513.07l-31.56-6.7-42,18.22s-19,18.24-1.36,76.84S198,727.75,198,727.75l152.63,9.68S344.43,527.94,359.34,495.38Z"/><path class="cls-131" d="M215.62,527.2a25.92,25.92,0,0,0-25.93-3c-6.17,2.62-13.41,10.19-20.16,18.59-39.29,48.82-58.3,109.39-62.38,121.11s-9.48,46.88,6.79,57.3l16.27,10.41L166,711.36l-7.29-11L156,693.89s19-41.67,39.32-79.44S215.62,527.2,215.62,527.2Z"/><polygon class="cls-132" points="260.39 511.41 245.3 527.88 230.22 506.15 239.28 492.74 260.39 511.41"/><polygon class="cls-132" points="294.26 492.04 265.26 510.72 278.97 527.19 301.6 501.5 294.26 492.04"/><rect class="cls-132" x="257.16" y="510.64" width="12.88" height="220.84"/><path class="cls-133" d="M203.22,1274.3c-1.63,2-.43,7.19-.43,7.19s28.54,3.17,37.73,1c2.39-.56,6.42-2.61,10.22-4.79.64-.37,1.77-2.56,2.39-2.93,1.15-.68,1.75.46,2.73-.15a33.55,33.55,0,0,0,4.37-3c2.5-13.09-.83-18.37-.83-18.37s-24.32-8.08-28.87-2.45C219.81,1264.06,206.8,1270,203.22,1274.3Z"/><path class="cls-134" d="M273.48,794.94s18.87,169.53,56.83,229.61,58-11,58-11L350.63,732.35l-119.31-.7S255.4,730.72,273.48,794.94Z"/><path class="cls-134" d="M295.5,732.33s-18.06,273.17-22.61,287c-15.36,46.79-55.13,18.72-60.55,3.12s-14.47-131-12.66-215.26,1.81-78.71,1.81-78.71Z"/><path class="cls-134" d="M266.6,970.75s12.45,42.75,11.8,89.76c-.57,41.71-9.72,125.61-18.52,193.36-.54,4.14-34.37-.24-34.37-.24s-8-160.18-10.1-202.93c-.72-15.17-6.94-59.07-1.33-73.38C224.28,951.31,249.84,950.48,266.6,970.75Z"/><path class="cls-135" d="M377,1019.59s-13.17,7.26-43.35,9.78c-6,.51,43.81,235.83,43.81,235.83l42.75-18.44-33.1-238.22Z"/><path class="cls-133" d="M380.76,1262.54l4.07,21.27h21.7s1.2-3,3-3c1.54,0,3.54,3,5.64,3H470.4s1-4.47-.22-6c-.61-.79-4.24-2.17-6.66-2.85-11.21-3.15-43.28-13-48.86-23.69C407.88,1238.23,380.76,1262.54,380.76,1262.54Z"/><path class="cls-132" d="M158.68,700.4s2.4,0,5,4.94c2.32,4.3,8,8.53,4.52,10s-21.2,18.45-23.72,20.45-11.92-1.38-11.92-1.38-6.27-3.14-5.77-4.64S154.65,701.49,158.68,700.4Z"/><path class="cls-136" d="M270.52,388.2V374.45h29.7a18.07,18.07,0,0,1,18.08,18.08v13.75H288.6A18.09,18.09,0,0,1,270.52,388.2Z"/><path class="cls-5" d="M242.07,471.65a16.08,16.08,0,0,0,16.08,16.08h36.5a16.07,16.07,0,0,0,16.07-16.08v-73a16.08,16.08,0,0,0-16.07-16.09h-36.5a16.09,16.09,0,0,0-16.08,16.09Z"/><path class="cls-136" d="M269.37,374.45a18,18,0,0,0-15.12,8.18H248a14,14,0,0,0-14,14v34.61h9.86V417.18a9.86,9.86,0,0,1,9.86-9.85h29.77a18.08,18.08,0,0,0,18.08-18.09V374.45Z"/><path class="cls-5" d="M247,440.25a8.58,8.58,0,0,0-8.58-8.57h-.72a8.57,8.57,0,0,0-8.57,8.57v10.42a8.58,8.58,0,0,0,8.57,8.58h.72a8.57,8.57,0,0,0,7.85-5.11"/><path class="cls-5" d="M796.42,607.79c-26.21,13.2-73.81,99.41-73.81,99.41s-9.5,37.59,71.49-62.58C818.42,614.54,802.88,604.53,796.42,607.79Z"/><path class="cls-5" d="M692.63,790,689,777.84l-.2-10.37,6.08-15.7s8.5-15.8,13.84-20.61,16.25-29,18.56-31.55,19.11,1.11,19.11,1.11-18.5,21.66-25.11,30.87-11.49,25.6-14,29.3A49.68,49.68,0,0,1,698,771.3s4.72-10.94,6.3-13.66-2.3-3-2.3-3-8.08,14.33-8.6,18.94a27,27,0,0,0,.61,8.9Z"/><path class="cls-137" d="M840.92,557.86,780.57,682.42l-2.79,7.5L741.61,674c44.76-69.36,54.09-83,59.75-96.72,2.07-5,18.41-46.22,20.66-53.92s9.34-28.25,36.78-33.29C885,485.28,840.92,557.86,840.92,557.86Z"/><polygon class="cls-136" points="736.1 493.16 806.5 617.38 936.24 664.31 941.76 716.76 795.45 673.97 730.58 613.24 736.1 493.16"/><path class="cls-138" d="M929,476.88c0,29.68-24.57,53.74-54.88,53.74s-54.88-24.06-54.88-53.74,24.57-53.73,54.88-53.73S929,447.2,929,476.88Z"/><path class="cls-5" d="M885.16,1200.43l.58,65.75s-23.44,28.58-32,33.15-7.43.58-6.86-1.71,14.87-18.87,17.15-28-2.86-65.17-2.28-68S885.16,1200.43,885.16,1200.43Z"/><path class="cls-5" d="M946.91,1207.29s8.57,37.16,9.14,49.74-1.71,16.58,1.72,20.58,27.44,35.44,33.16,35.44,5.71-5.71,5.71-5.71-18.86-24-21.72-33.16-3.43-60-3.43-65.17S946.91,1207.29,946.91,1207.29Z"/><path class="cls-5" d="M955.28,628.16s-9.21,1.19-4.37,50.55S974,799.49,974,799.49l-1.49-114.85S970,640.74,955.28,628.16Z"/><path class="cls-139" d="M877.92,745.37l3.81,236.3,7.63,226.39-33.54,1.52S832.19,980.9,829.14,961.09,791.79,782,811.61,742.32,877.92,745.37,877.92,745.37Z"/><path class="cls-136" d="M811.61,742.32a35.62,35.62,0,0,0-1.67,4c21.48,33.39,41.72,61.6,46.37,68.81,2.65,4.12,11.51,19.17,23.38,39.53l-1.77-109.26S831.42,702.68,811.61,742.32Z"/><path class="cls-139" d="M955.67,740s9.91,100.62,9.91,169.22,6.86,269.08,6.86,269.08v35.06l-25.92-.76L906.13,956.51,872.59,740Z"/><path class="cls-138" d="M967.87,474.39c0,29.68-24.57,53.74-54.88,53.74s-54.89-24.06-54.89-53.74,24.58-53.74,54.89-53.74S967.87,444.71,967.87,474.39Z"/><path class="cls-138" d="M929.76,418.56c0,28.3-21.5,51.26-48,51.26s-48-23-48-51.26,21.5-51.27,48-51.27S929.76,390.24,929.76,418.56Z"/><path class="cls-5" d="M873.35,433.61s4.57,27.44.76,35.06-29.73,25.16-33.54,30.49,7.63,46.5,45,40.4,70.89-29.73,70.89-35.82-.77-12.2-13-16.77-32-7.63-37.35-13.72-12.2-21.35-8.39-37.36S873.35,433.61,873.35,433.61Z"/><path class="cls-137" d="M937.76,561.29l13.15,137.77v8l39.45-2.29S978.92,598.44,977.21,593.3s-5.72-49.74-5.15-57.74-1.15-48-27.44-44S937.76,561.29,937.76,561.29Z"/><path class="cls-5" d="M893.66,378.93c-.78-.21-1.57-.4-2.39-.54-1.66,9.42-9.15,20.57-20.76,29.33a69,69,0,0,1-8.59,5.54v8.84c0,13.09,11.08,23.71,24.77,23.71s24.77-10.62,24.77-23.71V402.17C904.66,397.64,898.15,389.41,893.66,378.93Z"/><path class="cls-130" d="M945.19,748.23H822.28L840,644l-4-122.2s22.87,8.8,42.88,10.06C892,532.73,920,521.84,920,521.84Z"/><path class="cls-140" d="M975,801s-2.91,18.27-4.85,21.57c-1.35,2.29-9.5,12-9.5,12s.53-6.79,3.58-10.9S975,801,975,801Z"/><path class="cls-141" d="M829.52,507.55S833.33,583,831,610.45,805.89,724.79,803.6,740.79l-2.28,16s9.91,6.1,15.24,6.86,15.51-4.38,19.06-22.87c4.38-22.86,17.89-101.6,20.58-115.86C860,604.73,857,545.66,860,538s14.1-32.4,12.58-38.5S860,482.39,860,482.39,835.62,493.06,829.52,507.55Z"/><path class="cls-141" d="M925.75,480.11s-14.86,6.28-19.43,8.57-2.29,27.44,0,30.87,6.29,80.61,6.86,98.9,2.85,90.33,5.71,103.48,1.15,28.58,14.87,33.73,30.87,5.15,30.87,5.15-6.86-45.17-10.29-60.6-14.29-52.6-15.44-76,2.29-58.88,3.43-77.75,11.44-49.16,12.58-52.59S930.33,481.82,925.75,480.11Z"/><path class="cls-133" d="M886.31,1262.75a14.35,14.35,0,0,1,1.63,8.23c-.53,3.43-3.35,13.49-3.35,13.49l-6.28,2.86v-4.57s-11.44,13.72-17.16,17.72-17.7,14-24.58,11.43a4.18,4.18,0,0,1-2.29-2.86s10.87-12,12.58-13.72,5.72,1.72,10.29-1.14,17.64-15.34,21.16-19.44A71.4,71.4,0,0,0,886.31,1262.75Z"/><path class="cls-133" d="M955.86,1269a22.78,22.78,0,0,0-.65,8.5c.49,3.44,3.11,8.92,3.11,8.92l5.74,3.24s10.73,13.34,16,17.34,16.44,14,22.84,11.44a4.16,4.16,0,0,0,2.12-2.86s-10.09-12-11.68-13.72-5.31,1.72-9.56-1.14-16.4-15.34-19.66-19.44A121.72,121.72,0,0,1,955.86,1269Z"/><path class="cls-137" d="M922.9,477.82l-16.58,10.86a13.52,13.52,0,0,1,6.86,6.86,88.81,88.81,0,0,1,4,12L932,482.39S922.9,476.1,922.9,477.82Z"/><path class="cls-137" d="M861.73,479.53l2.68,4.44L873,499.16s-1.81-4.76-8.39.38c-4.43,3.47-6.85,12-6.85,12l-4.58-27.44Z"/><path class="cls-5" d="M965.25,760.87c2.67,23.45-6.86,34.65-9.11,44.3A167.74,167.74,0,0,1,950,824.63c8.53-6.21,7.93-13.81,10.45-17.92s1.15-3,2.67,5.32c.87,4.71-5.8,13.87-9.32,20.34-3,5.59-3,8.88-3,8.88A96.87,96.87,0,0,0,963.09,826c6.4-10.15,11.36-22.36,12-25.2,1.21-5.19-.08-20.92-2.71-31.94C969.43,756.37,963.32,744,965.25,760.87Z"/><polygon class="cls-139" points="568.07 497.13 589.8 552.51 516.65 673.97 471.1 671.21 476.62 624.28 568.07 497.13"/><path class="cls-138" d="M431.39,459.73a59.3,59.3,0,0,0-10.22.94,56.17,56.17,0,0,1,1,10.2c0,28-20.64,51.15-47.8,55.88,4.91,26.51,28.56,46.62,57,46.62,32.05,0,58-25.44,58-56.82S463.44,459.73,431.39,459.73Z"/><path class="cls-138" d="M504.59,462.28a48.28,48.28,0,0,0-23.13-5.86c-26.37,0-47.75,20.93-47.75,46.75s21.38,46.75,47.75,46.75c25.8,0,46.77-20,47.66-45.1A56.45,56.45,0,0,1,504.59,462.28Z"/><path class="cls-138" d="M504.67,455.92c0,24.63-18.7,44.6-41.77,44.6s-41.79-20-41.79-44.6,18.71-44.6,41.79-44.6S504.67,431.29,504.67,455.92Z"/><path class="cls-5" d="M409.17,528s19.73,38.46,42.94,43.77,55.37.33,58.69-9-4.81-27.52-10.11-32.16-22.55-9.29-27.19-17.9c-3.78-7-2.65-19.9,0-29.85s10.61-10.61,2.66-15.25-4.65-9.29-12.61-8-12.6-1.66-12.6,6c0,13.93,1.14,33.48-6.63,42.44C435.7,518.09,427.26,521.11,409.17,528Z"/><path class="cls-5" d="M478.57,429.41q-1-.29-2.07-.48c-1.45,8.21-8,17.9-18.07,25.53a59.76,59.76,0,0,1-7.48,4.81V467c0,11.38,9.65,20.62,21.55,20.62s21.56-9.24,21.56-20.62V449.62C488.14,445.68,482.47,438.53,478.57,429.41Z"/><path class="cls-140" d="M451.22,1284.09s-4.35-1.87-16.36-4.15c-7-1.33-12.36-1.29-14.89-3.92-4.16-4.36-1.85-14.91-3.89-14.43-9.94,2.28-13.38,25.54-7.59,28.44s38.59-1,41.28-1.18S452.05,1283.46,451.22,1284.09Z"/><path class="cls-140" d="M473.45,1024.1c-4.63-2.38-19.25,10.44-25.11,22.09-11.48,22.84-14,35.64-17.57,61.24-5.56,40.6-15.22,105-18.07,132.53-2.56,24.78-13.63,53.71,5.16,50.4-2.21-34.26,14.86-85,24.92-111.62C477.15,1087.89,487.67,1031.39,473.45,1024.1Z"/><path class="cls-130" d="M444.38,1282c1.87,7.82-22.15,4.67-28.37,2.62a72.61,72.61,0,0,0-9.73-2.56c-.25,0-.49,0-.74,0a3.75,3.75,0,0,0-.09.57c0,4.29-1.9,10,5,10H453.5C488.71,1292.58,444.34,1281.79,444.38,1282Z"/><path class="cls-140" d="M488.4,756.88c-8-2.88-8.82,4.29-16.28,21.68-14.64,34.11-25.7,85.53-26.45,141.27-.88,65.31,5.26,122.88,15.55,159.64,13.23-24.75,22.26-38.8,33.31-95C519,859.92,513.09,765.71,488.4,756.88Z"/><path class="cls-140" d="M477.88,997.64c-3.54-2.4-11.19,8.46-17,19.06-11.45,20.8-17,46.59-24.41,82.2-8.69,41.73-13,79-12.62,103.24,9.09-18.18,17.21-41.64,27.84-66C488,1053,488.79,1005,477.88,997.64Z"/><path class="cls-5" d="M478.92,693.07c-4.3,19.47-.21,22.19-11.37,5.81L385.3,569.4c-11.17-16.38-4.59-35.93,14.62-39.76L502.53,511c19.21-3.83,25.38,15,21.08,34.45Z"/><path class="cls-5" d="M431.38,756.12c-11.83-2.81-12.38,4.69-21.7,23-18.28,36-23.95,89.83-20.39,148.1,3.41,55.77,8.4,125.71,14.32,143.66,2.77,8.42,12.11,15.93,15.38,22.91,13.38-31.2,21-69.17,27.77-111.32C467.84,851.38,467.73,764.77,431.38,756.12Z"/><path class="cls-5" d="M490.83,749.06c-8-2.45-8.56,4.11-15.33,20.15-13.28,31.46-22.45,78.63-21.29,129.53,1.35,59.62,9.36,112,20.75,145.37,9.82-27.29,15.86-60.46,21.41-97.29C513.64,832.24,515.47,756.57,490.83,749.06Z"/><path class="cls-130" d="M508.26,984.77a118.05,118.05,0,0,0,2.33-14.46c2.12-50,14.76-98.89-15.16-271-1.44-9.21-5.49-23.57-7.93-31.34-18.93-14.31-36.88-3.33-57.13-14.37-7.85,8.17-25.65,24.33-34.49,41.39-52.23,100.9-29.25,246.73-35.4,300.82C407.19,1007.22,458.07,1006,508.26,984.77Z"/><path class="cls-130" d="M398,535.25c13.78,47.16-14.75,138.26-14.75,138.26s-9.5,5-13.13-2.87c-4.61-10-3.15-38.95,2.17-106.57C375.55,522.21,395.67,527.36,398,535.25Z"/><path class="cls-142" d="M488.39,668.7c-.06.81-3.95,1.23-8.7.93l-53.84-3.35c-4.76-.29-8.57-1.19-8.52-2l.18-3.07c.05-.81,3.95-1.23,8.7-.94l53.84,3.36c4.76.29,8.57,1.19,8.52,2Z"/><path class="cls-141" d="M524.51,585Q518,560.58,511.8,536a42.53,42.53,0,0,0-3.82-9.73A547.32,547.32,0,0,1,397,540.69c-.24,1.51-.42,3.07-.52,4.68-.95,17.63.31,35.29-.43,52.92-.36,7.52,5.15,14.5,11.79,19.46a13.63,13.63,0,0,0-1,4.32l-1.32,8.56c-.35,7.06,4.7,31.14,11.27,31.47l71.42,3.81c6.58.34,15.21-14.15,15.56-21.21l9.89-34.57a13.41,13.41,0,0,0-.08-1.8C520.69,602.24,526.75,593.24,524.51,585Z"/><path class="cls-130" d="M423.57,522.37s-37-1.15-43.46,16.56,9.27,43.49,9.27,43.49,9.39,32.83,12,50.64-8.74,34.71-5.25,31.24c.71-.7,9.08.1,22.4-6.14s5.94-30.52,4.64-38.36-7.84-46.32-6.37-52.7S423.57,522.37,423.57,522.37Z"/><path class="cls-130" d="M529.39,537.08s2.85-14.78-3.26-20.66c-9-8.64-30.61-7.47-37.61-5.42a87.76,87.76,0,0,0-11.73,4.31s24.48,9.89,23.54,60.55c-.16,8.66-2.4,26.29-5.35,39.77S491,655.42,491,655.42s14.61,3,15.29,5.15,1.57-15.63,11.53-32.58S529.39,537.08,529.39,537.08Z"/><path class="cls-143" d="M497.11,509.7c13.62,11.34,21.88,21,19.8,79.94-.33,9.55.15,27.09-1.74,43.41.83-1.68,5-9.27,5.71-11.09,13.31-34,8.51-84.88,8.51-84.88s2.85-14.78-3.26-20.66C519.64,510.16,506.53,509.06,497.11,509.7Z"/><path class="cls-5" d="M403.29,1059.28q1.09-9.49,2.31-18.7c4-9.37,7.81-14.56,11.19-14.37,12.77.7,29.59,48.29,3.47,171.16-1.31,6.18-15.63,112-16.32,109.58C395.43,1277,392.44,1153.1,403.29,1059.28Z"/><path class="cls-130" d="M403.76,1317.41c-5.91,17.36-14.42,30.16-19,28.6s-3.52-16.9,2.39-34.26,14.42-30.16,19-28.6S409.67,1300.05,403.76,1317.41Z"/><path class="cls-5" d="M405,1307.42c-2.45,13.31-10,23.68-14.59,22.12s-4.45-12.71.48-25.3c6.23-15.94,8.79-20.61,8.08-31.35C398.27,1262.81,414.17,1257.41,405,1307.42Z"/><path class="cls-5" d="M670.59,418.81c-1.86,6.23.09,12.3,4.33,13.55h0c4.24,1.27,9.18-2.76,11-9l2.33-7.84c1.84-6.24-.09-12.31-4.33-13.57h0c-4.24-1.25-9.18,2.78-11,9Z"/><path class="cls-144" d="M628.53,476.06c.45,11.4,6.12,21.5,12.51,22.26l18.26.8c6.44-.19,13-9.76,14.43-21.06q3.48-28,7-55.95c1.49-11.17-1.9-33.9-11.33-41-8.62-6.31-18.81-6.76-28-1.23-10,6.22-15.39,28.57-14.89,39.83Z"/><path class="cls-5" d="M620.31,446.75c2.46,10.72,6.71,13.43,14.38,14.94,7.33,1.05,9.09,1.87,16.41,2.92,7.77.72,16.17-9.26,18.4-18.6,3.59-15.45,12.62-27.85,16.21-43.27,2.28-9.26-1.34-17.77-12.39-25-10.13-6.51-21.91-19.41-33.16-16-12.33,3.9-19.77,22-19.63,31.63C620.53,409.29,620.3,430.8,620.31,446.75Z"/><path class="cls-136" d="M691.92,390.83l-6.21,11.91s-11.43-14.11-19.43-25.6c-2.52-3.62-30-5.14-36.86-4.22-5,.66-5.86,7-7.15,10.64-4.67,13.05,2.72-22.17,2.72-22.17s10-16.29,27.58-16.91c9.68-.34,13.93,5.47,17.27,12.91.78,1.74-10.51-3.24-8.51-3.4.51,0,11.37,10.38,11.68,11.15a58.69,58.69,0,0,0,5.56,11.16C687.33,389.23,691.92,390.83,691.92,390.83Z"/><polygon class="cls-144" points="650.52 396.28 642.88 397 644.73 401.72 638.62 403.69 631.69 426.72 641.59 427.89 643.76 413.71 650.1 406.82 665.42 406.08 650.52 396.28"/><path class="cls-133" d="M518.47,1251.37l0,24.62-2.7,20.66-7.75,6.17-6,2.4-1.49,3.57-20.1,16c-5.52,3-13.55,5-23.6,3.51-3.41-.51.47-10.06,1.51-11.55,6-8.53,15.57-18.07,15.57-18.07l14.84-21.94,16.58-27.29Z"/><path class="cls-133" d="M712.28,1276.75,707.79,1287l-1.92,11.27,1.92,17.54,9.61.59,7-2.14,5,2.88s27.34,3,37.47,2.51c16.79-.88,25.82-3.39,28.84-6.9,1.68-2-6.42-4.85-9-5-15.06-1-31.51-9.21-31.51-9.21l-13.45-12.8-3.2-9.61Z"/><path class="cls-131" d="M573.23,502.82l58-24.84,19.67,11.9,35.53-9.14s41.41,24.84,45.55,24.84-1.38,231.88-1.38,231.88L625.69,770.59l-40-26.23Z"/><polygon class="cls-136" points="590.73 733.82 483.58 1277.91 522.21 1276.69 581.59 1101.26 595.12 1048.76 657.64 841.19 673.46 729.88 590.73 733.82"/><polygon class="cls-136" points="703.23 1280.34 694.92 1060.31 676.59 960.75 652.95 823.98 662.43 730.23 746.5 724.91 743.17 882.55 751.76 1023.8 753.45 1077.16 749.05 1288.24 703.23 1280.34"/><polygon class="cls-139" points="614.64 752.01 621.54 531.62 629.83 479.43 567.71 496.82 563.58 765.07 614.64 752.01"/><polygon class="cls-139" points="675.38 477.98 691.48 508.8 701.6 737.51 702.98 754.91 771.99 747.67 748.53 534.52 736.1 491.16 675.38 477.98"/><polygon class="cls-136" points="609.12 647.74 591.18 558.03 602.22 541.47 592.56 498.68 602.22 484.88 631.21 475.21 621.54 575.97 616.02 708.48 609.12 647.74"/><path class="cls-136" d="M675.49,477.18c-1.38,4.14,14.61,33.46,14.61,33.46l8.74,166.09,20.7-122.84L714,531.81,719.54,518l-17.19-34.92Z"/><polyline class="cls-130" points="649.09 488.73 645.93 498.68 648.69 500.98 654.67 500.52 657.43 498.22 654.49 488.64 649.55 488.67"/><polygon class="cls-132" points="649.14 488.6 635.03 504.42 624.05 477.69 627.56 470.66 649.14 488.6"/><polygon class="cls-132" points="675.24 470.15 654.49 488.64 668.2 505.11 679.76 478.44 675.24 470.15"/><path class="cls-130" d="M651.13,491.79a23.32,23.32,0,0,1,5.56,10.63c6.81,28.37,19.17,109.23-5.75,189.76-2.44,7.88-11.79,12.19-11.79,12.19l-9.5-13.49s16.52-106.53,18.56-189C648.29,498.5,651.11,495.12,651.13,491.79Z"/></g></g></g></svg>