<?xml version="1.0" encoding="iso-8859-1"?>
<!-- Generator: Adobe Illustrator 19.0.0, SVG Export Plug-In . SVG Version: 6.00 Build 0)  -->
<svg version="1.1" id="Layer_1" xmlns="http://www.w3.org/2000/svg" xmlns:xlink="http://www.w3.org/1999/xlink" x="0px" y="0px"
	 viewBox="0 0 512 512" style="enable-background:new 0 0 512 512;" xml:space="preserve">
<path style="fill:#FFBC00;" d="M499.157,30.771l-60.92,147.316l-55.234,133.565l-46.028,111.304l-31.136,75.293
	C302.398,506.573,294.282,512,285.28,512h-58.558c-9.003,0-17.119-5.427-20.56-13.751l-31.137-75.293l-46.028-111.304
	L73.764,178.087L12.843,30.771C6.783,16.116,17.55,0,33.404,0h445.192C494.449,0,505.217,16.116,499.157,30.771z"/>
<path style="fill:#E0A000;" d="M275.469,467.478c0,4.611-3.735,8.348-8.344,8.348h-22.251c-4.609,0-8.344-3.736-8.344-8.348
	s3.735-8.348,8.344-8.348h22.251C271.734,459.13,275.469,462.867,275.469,467.478z"/>
<path style="fill:#92B703;" d="M499.157,30.771l-60.92,147.316l-55.234,133.565l-46.028,111.304H175.024l-46.028-111.304
	L73.764,178.087L12.843,30.771C6.783,16.116,17.55,0,33.404,0h445.192C494.449,0,505.217,16.116,499.157,30.771z"/>
<path style="fill:#768900;" d="M292.157,367.304c0,4.611-3.735,8.348-8.344,8.348h-55.627c-4.609,0-8.344-3.736-8.344-8.348
	c0-4.611,3.735-8.348,8.344-8.348h55.627C288.422,358.957,292.157,362.693,292.157,367.304z"/>
<path style="fill:#FF6029;" d="M499.157,30.771l-60.92,147.316l-55.234,133.565H128.996L73.764,178.087L12.843,30.771
	C6.783,16.116,17.55,0,33.404,0h445.192C494.449,0,505.217,16.116,499.157,30.771z"/>
<path style="fill:#B7441C;" d="M319.97,228.174c0,4.611-3.735,8.348-8.345,8.348H200.372c-4.609,0-8.344-3.736-8.344-8.348
	s3.735-8.348,8.344-8.348h111.253C316.235,219.826,319.97,223.563,319.97,228.174z M289.376,253.217h-66.751
	c-4.609,0-8.344,3.736-8.344,8.348c0,4.611,3.735,8.348,8.344,8.348h66.751c4.609,0,8.345-3.736,8.345-8.348
	C297.72,256.954,293.985,253.217,289.376,253.217z"/>
<path style="fill:#73A4BC;" d="M33.404,0h445.192c15.853,0,26.621,16.116,20.56,30.771l-60.919,147.316H73.764L12.843,30.771
	C6.783,16.116,17.55,0,33.404,0z"/>
<path style="fill:#56889B;" d="M331.096,72.348c0,4.611-3.735,8.348-8.345,8.348H189.249c-4.609,0-8.344-3.736-8.344-8.348
	S184.639,64,189.249,64h133.503C327.361,64,331.096,67.736,331.096,72.348z M300.501,97.391h-89.002
	c-4.609,0-8.344,3.736-8.344,8.348s3.735,8.348,8.344,8.348h89.002c4.609,0,8.344-3.736,8.344-8.348S305.11,97.391,300.501,97.391z"
	/>
<g>
</g>
<g>
</g>
<g>
</g>
<g>
</g>
<g>
</g>
<g>
</g>
<g>
</g>
<g>
</g>
<g>
</g>
<g>
</g>
<g>
</g>
<g>
</g>
<g>
</g>
<g>
</g>
<g>
</g>
</svg>
